<svg xmlns="http://www.w3.org/2000/svg" viewBox="0 0 1190 161" width="1190" height="161">
	<style>
		tspan { white-space:pre }
		.shp0 { fill: #ffe6b2 } 
	</style>
	<g id="Layer">
		<g id="Layer">
			<path id="Layer" fill-rule="evenodd" class="shp0" d="M929.6 48.4C931.8 48.4 933.8 49 935.4 50.9C935.1 51.3 934.8 51.7 934.3 51.6C930.2 50.7 926.2 52.3 922.2 52.4C919.3 52.5 916.5 52.1 913.6 52.3C911.4 52.4 911 51.7 910.8 49.1C910.8 48.33 910.71 47.47 910.61 46.6C910.61 46.6 910.6 46.6 910.6 46.6C909.8 47.8 908.8 47.8 907.6 47.6C904.8 47.1 902 46.5 899.1 47.4C898 47.7 897.8 47 897.8 45.9C897.8 45.72 897.78 45.55 897.75 45.39C900.54 45.53 903.31 45.56 906 44.4C907.3 43.9 908.8 43.6 909.9 44.5C911.2 45.7 912.2 43.5 913.1 44.4C914.6 46.1 915.2 44 916.2 43.7C916.7 43.6 917.6 43.1 917.7 43.6C918.3 46.9 919.4 44 920.3 43.9C921.7 43.8 923.2 43.6 924.6 43.7C928.7 44 932.7 42.6 936.7 42.1C938.7 41.9 940.6 42.8 942.6 42.3C943.7 42.1 944.6 44.9 947.1 43.7C945.6 46.2 944.5 47.4 942.7 46.2C941.8 45.6 941.2 46.2 940.5 46.3C939.9 46.4 939.2 47.1 938.6 46.6C937.5 45.7 936.7 45.6 935.7 47.1C935 48.1 934 47.6 933.6 46.4C933 44.7 932 45 931.3 46C930 47.8 928.5 48.2 926.6 47.4C925.7 47.1 924.8 47.7 924.1 48.3C923.8 48.6 923.3 48.9 923.4 49.5C923.5 50.3 924 50.5 924.6 50.5C925.7 50.6 926.6 50.7 929.6 48.4ZM895.41 45.28C894.59 46.2 893.64 46.83 892.7 47.6C892 48.2 891.7 49 892.4 49.9C893.6 51.4 896 51.3 898 51C901.3 50.5 904.7 49.7 908 50.6C906.1 53 903.6 53.9 901 53.5C898.3 53 895.7 53.7 893.1 53.8C889.8 53.9 886.5 54.2 883.2 54.3C879.8 54.4 876.3 55.1 872.9 55.2C869.5 55.4 866.1 56 862.7 56.3C861.19 56.42 859.66 56.5 858.14 56.63C858.23 56.56 858.32 56.48 858.4 56.4C858.7 56.1 859.2 55.8 859.1 55.2C858.7 54.4 858.2 54.9 857.8 55.3C857.5 55.6 857.1 55.9 856.6 56.3C856.83 56.5 857.03 56.64 857.22 56.71C855.32 56.91 853.43 57.24 851.6 57.9C850 58.5 848.2 58.1 846.6 58C840.72 57.47 835 58.33 829.29 59.16C829.29 59.14 829.3 59.12 829.3 59.1C829.4 58.8 828.9 58.7 828.6 58.7C828.14 58.79 827.51 58.8 827.41 59.43C827.24 59.45 827.07 59.48 826.9 59.5C822.69 60.06 818.48 60.3 814.26 60.72C813.51 59.23 810.81 60.05 811.4 57.2C811.4 57.2 810.8 56.9 810.5 56.8C808.4 56.3 807.3 57.6 806.3 60.3C808.61 59.04 810.42 60.54 812.3 60.94C811.87 60.99 811.43 61.04 811 61.1C806.5 61.7 802.1 61.2 797.7 61.8C794.4 62.2 791 62.2 787.8 63C786.1 63.4 784.5 62.7 782.9 63C775.5 64.3 767.9 64.9 760.4 65.2C756.2 65.4 752.1 66.5 747.9 66.5C742.9 66.5 738 68.4 733 68.3C728.3 68.2 723.6 69.4 718.8 69.1C716 68.9 713.1 69.9 710.2 70.1C708.2 70.3 706.2 70.5 704.2 70.1C703.2 69.9 702.2 69.9 701.2 70.2C697.3 71.2 693.3 71.3 689.3 71.6C688.7 71.65 688.11 71.7 687.51 71.76C687.61 71.56 687.7 71.33 687.8 71.1C687.5 70.6 687.6 69.7 686.9 69.7C686.2 69.7 686 70.4 686 71.1C686 71.37 686.03 71.67 686.14 71.9C683.58 72.18 681.02 72.49 678.4 72.7C671.8 73.1 665.2 74.2 658.6 74.7C650.7 75.4 642.8 75.9 635 76.8C627.3 77.7 619.5 78.3 611.8 79.2C600.6 80.4 589.5 81.4 578.3 82.6C568.7 83.6 559.1 84.8 549.5 85.6C541.5 86.2 533.6 87.5 525.6 88.2C518.9 88.7 512.2 90 505.4 90.1C500.6 90.1 495.8 91.2 491 91.9C489.4 92.1 487.9 92.3 486.3 92.2C481.5 92 476.9 93.7 472.1 93.9C466.7 94.2 461.4 95.5 455.9 95.6C452.7 95.7 449.4 96.2 446.3 96.8C442.8 97.5 439.3 96.6 435.7 97.3C427.1 98.9 418.3 99.6 409.6 100.5C403.3 101.1 396.9 101.3 390.6 102.8C386.9 103.7 382.9 103.4 379.1 103.7C378.5 103.8 378 103.8 377.4 103.9C375.3 104.4 373.8 105.6 374.3 106.5C375.2 107.8 376.6 106.9 377.7 107.2C381.4 108.1 384.9 106.7 388.4 106.1C391.2 105.6 394.1 105 397 105.3C399.4 105.5 401.8 105.1 404.1 104.2C405.1 103.8 406.2 103.7 407.1 104.9C408.4 106.6 410.1 106.4 411.2 105.2C412.7 103.6 414.5 106.2 415.5 104.5C416.5 102.8 417.9 103.2 419.3 103C421.1 102.8 422.8 102.7 424.6 103.2C426.3 103.7 428 103.6 429.8 102.8C431.7 101.9 433.9 101.6 436 102.3C436.6 102.5 437.2 102.8 437.9 102.5C443.2 100.7 448.7 101 454 99.8C456.5 99.2 459.3 99.9 461.9 99.4C463.4 99.1 464.9 98.5 466.4 98.2C469.1 97.7 471.6 98.7 474.2 98.7C475.9 98.6 477.4 98.6 478.9 97.9C480.5 97 482.3 97.6 484.1 97.2C487.4 96.5 490.8 95.1 494.1 95.8C496.8 96.4 499 95 501.5 95.2C504 95.4 506.6 95.6 509.1 95C510 94.8 510.7 95.5 511.4 95.4C513.7 95.3 516 95.6 518.3 94.6C520.9 93.5 523.8 93.1 526.7 93.8C527.4 94 528 94 528.5 93.3C529.7 91.8 531.2 91.9 532.8 91.9C535.5 91.9 538.1 91.4 540.8 91.2C545.5 90.9 550.2 89.5 554.7 90C558.7 90.4 562.4 89.8 566.2 89.2C569.6 88.7 573 88.5 576.4 88.3C582.8 87.9 589 85.9 595.4 85.6C601 85.3 606.7 84.8 612.4 83.8C613.8 83.5 615.3 83.6 616.7 83.7C621.4 84 625.9 82.4 630.5 82C631.3 81.9 632.3 81.4 633.1 81.7C636.1 82.7 639 82.2 642 81.9C643.6 81.7 645.3 82.5 646.7 80.9C646.9 80.7 647.2 80.7 647.6 80.9C650.7 82.3 653.7 80.8 656.8 80.6C659 80.4 661.2 80.3 663.4 80.9C665.4 81.5 667.4 81.6 669.1 79.8C669.5 79.4 670.3 79 670.6 79.2C672.6 80.6 674.4 79.1 676.3 78.8C676.9 78.7 677.7 78.4 677.9 78.7C679.8 80.8 682.2 79 684.2 79.6C684.8 79.8 685.4 79.6 685.8 79.1C688.9 75.9 692.6 76.9 696.1 77.7C698.5 78.2 700.6 77.9 702.8 77.1C703.8 76.8 704.7 76.3 705.6 75.9C706.1 75.7 706.7 75.6 707.2 75.4C708.8 74.7 709.4 77.8 711.1 76.7C712.2 75.9 713.3 75.4 714.7 75.1C718.5 74.3 722.2 74.7 725.9 75.4C727.5 75.7 728.9 75.4 730.4 74.4C732.6 72.8 735.3 73.1 737.8 72.9C742.7 72.4 747.7 72.2 752.6 71.8C752.9 71.8 753.1 71.7 753.3 71.7C757.7 73.3 761.8 70.9 766 70.7C769.7 70.6 773.4 70 777.2 70.7C779.9 71.2 782.7 71.4 785.2 69.4C786 68.7 787.1 68.8 788.1 69C791.8 69.6 795.4 69.4 798.9 67.8C799.3 67.6 799.9 67.5 800.2 67.7C802.3 69 804.2 67.6 806.2 67.2C807.6 67 809.2 66.4 810.7 67.7C811.7 68.6 812.9 67.8 813.8 67.3C816.1 66.1 818.4 65.9 820.7 66.1C821.9 66.2 823.1 66.3 824.3 65.7C825.2 65.2 826.3 65.2 827.2 65.7C828.5 66.5 829.7 66.7 831 65.7C831.5 65.3 832.2 65.5 832.9 65.8C833.3 66 833.8 66.2 834.2 66.1C840.7 64.7 847.5 65 854.1 63.6C858.8 62.6 863.7 62 868.6 62.3C869.3 62.4 870.1 62.4 870.9 62.2C874.7 61.1 878.5 61.7 882.3 62.5C882.7 62.5 883 62.7 882.9 63.2C882.9 63.6 882.6 64.1 882.4 64.1C880 64.5 877.7 65.7 875.2 65.4C873.1 65.1 870.9 65.3 868.9 65.9C865.8 66.8 862.7 66.5 859.6 66.8C854.8 67.2 850.1 67.8 845.3 68.1C841.5 68.3 837.7 69 833.8 68.5C833 68.4 832.3 68.7 831.5 68.8C825.6 69.7 819.7 69.8 813.9 70.7C809.2 71.4 804.5 70.5 799.8 71.9C797.4 72.6 794.7 72.5 792.2 72.6C790 72.7 788.1 74 785.8 74C783.8 74 781.8 73.9 779.8 73.7C776.1 73.3 772.5 73.8 769.1 75.6C768.2 76.1 767.1 76.6 766.3 76C763.9 74.2 761.5 74.8 759 75.3C753.2 76.4 747.3 76.7 741.4 77.4C739.2 77.7 737 78 734.8 78.2C734.4 78.2 733.9 78.1 733.5 78.3C730.6 80 727.7 80.3 724.6 79.1C724.2 79 723.5 79.3 723 79.6C720 81.4 716.6 81.3 713.6 80.7C709.9 80 706.4 80.6 702.8 80.8C701.8 80.9 700.9 81.4 699.9 81.7C698.6 82.2 697 82.5 696 81.8C692.7 79.5 689.8 82.6 686.7 82.3C684.9 85.1 682.8 84 680.6 82.9C680 82.6 679.3 83 678.6 83C673.5 83.2 668.4 84.1 663.4 84.8C663.1 84.9 662.9 85 662.7 85C654.3 83.9 646.2 86.7 637.9 87.3C636.2 87.4 634.6 87.2 632.9 87.2C626.9 87.2 621 88.7 615.1 88.9C610 89.1 604.9 89.4 599.9 90.3C595.6 91 591.2 90.2 587.1 92C585.7 92.6 584.6 91.3 583.2 91.6C579 92.3 574.9 92.9 570.7 93.3C566.1 93.8 561.4 93.9 556.8 94.9C555.9 95 555 94.8 554.1 94.7C552.3 94.6 550.4 94.3 548.6 95.4C547.2 96.3 545.5 95.9 544 96.1C540.2 96.7 536.4 97.7 532.5 97.9C530.1 98.1 527.8 99.3 525.3 99C524 98.8 522.6 99.5 521.5 98.2C521.2 97.9 520.6 97.7 520.3 98.2C518.7 100.4 516.4 99.7 514.4 99.9C510.6 100.3 506.9 101.1 503.2 101.6C500.5 101.9 497.5 102.9 494.8 100.8C494.2 100.4 493.5 100.4 492.9 100.9C490.2 102.9 486.8 101.7 484 103.3C482.5 104.1 481.8 101.2 480.4 102.4C479.5 103.2 478.5 104.2 477.2 104.2C470.1 104.3 463.2 106.6 456.1 106.7C453.6 106.8 451.2 107.6 448.8 106.9C448.5 106.8 448.1 106.8 447.8 107C444 109 439.9 108.2 436 109C434.3 109.4 432.5 109.3 430.9 110.5C430.2 111 429.4 111.1 428.7 110.6C427 109.3 425.2 109.7 423.5 110C418 111 412.4 110.8 406.9 111.5C406.6 111.5 406.2 111.4 405.9 111.5C400.9 113.7 395.6 113 390.4 113.4C386.6 113.8 382.7 115 378.9 114.6C374.9 114.2 371.4 116.5 367.5 116.3C363.6 116.1 359.6 116.4 355.8 117.1C351.6 117.8 347.5 118.6 343.3 119C340.6 119.3 337.8 119.8 335 119.9C328.6 120.1 322.2 121 315.8 122C312 122.6 308.2 123.3 304.5 123.4C299.9 123.5 295.4 124.7 290.8 125C286.2 125.3 281.7 126 277.2 126.6C274.1 127 271 127.8 267.9 127.9C266.6 128 265.4 128.2 264.3 128.9C263.7 129.3 263 129.8 262.4 129.6C260 129 258.4 129.6 258.1 132.7C258 133.4 257.5 133.7 256.9 133.8C254.8 134.3 252.8 134.8 250.7 135.3C249.4 135.6 248 135.5 247.4 134.1C246.3 131.6 244.6 131.9 243.2 132.9C241.3 134.3 238.9 134.3 237.3 136.2C236.8 136.8 236.2 136.5 235.5 136.3C234 135.9 232.5 135.6 230.9 135.4C229.7 135.3 228.2 134.9 227.4 136.7C227 137.5 226.2 137.4 225.6 137C223.9 135.9 222.4 136.5 221 137.7C218.2 140.1 215 138.2 212 138.7C211.4 138.8 210.8 137.9 210.7 137.2C210.6 135.5 209.6 135.4 208.4 135.4C207.2 135.5 206.2 135.4 205.6 137.3C205.1 139 204.1 141 201.9 139.2C201.5 138.9 201.1 139.4 200.7 139.7C198.3 141.5 195.7 141.8 193 141.7C190.7 141.6 188.4 142.1 186.1 142.7C183.6 143.3 181.1 143.4 178.6 143.4C177.8 143.4 177.3 143.6 177.1 144.5C176.9 145.5 177.5 146 178.2 146C180 146 181.7 147.4 183.7 146.2C184.7 145.6 186.5 145.7 187.5 146.6C188.9 147.8 189.9 147.2 191.1 146.5C191.9 146.1 192.9 145.6 193.7 145.8C197.7 146.5 201.5 144 205.2 144.8C208.6 145.5 211.5 143.4 214.8 143.7C216.2 143.9 217.8 143.5 219 144.4C220.3 145.3 221.3 144.7 222.4 144C224.9 142.3 226.3 142.4 228.5 144.5C229.2 145.1 229.7 145.2 230.2 144.5C231.6 142.7 232.9 142.9 234.2 144.5C235 145.5 236 144.6 236.9 144.6C236.2 146.2 235.1 146.9 233.5 146.9C230.7 146.9 228 147.6 225.4 148.8C223.7 149.7 221.7 149.1 219.9 148.8C218.2 148.5 216.9 148.5 215.3 149.7C212.9 151.5 209.9 150.9 207.2 150.1C205.7 149.7 204.3 149.4 203.2 150.8C202.5 151.6 201.8 151.5 201 151.5C196.4 151.6 191.8 151.8 187.1 151.7C184.8 151.7 182.7 152 180.7 153.2C180.1 153.6 179.5 154.4 178.9 154C176.1 152 173.3 154.4 170.5 153.8C169.4 153.6 168.1 153.8 166.9 154.3C165.6 154.8 164.1 155.2 162.7 154.4C162.6 154.4 162.5 154.3 162.4 154.3C159.8 155.9 157.4 155.3 154.9 154.1C154.4 153.9 153.8 154.3 153.4 154.8C152.8 155.7 152 155.9 151.3 155.3C149.7 154.2 148.2 154.5 146.8 155.3C145.7 155.9 144.6 155.4 143.5 155.7C141.7 156 140 155.3 138.3 155.3C136.8 155.3 135.2 156.5 133.5 156.4C132.8 156.4 132.1 156.5 131.5 156.2C129.6 155.4 127.6 155.6 125.9 156.3C120.9 158.5 115.8 157.5 110.7 157.9C103.7 158.4 96.7 158.1 89.7 158.6C84.2 159 78.6 159.6 73.2 160.7C69.7 161.5 66.3 160.5 62.9 160C62.1 159.8 61.4 159.6 60.6 159.5C57.7 159 56.6 156.6 57.9 153.5C59.1 150.8 58.9 150.2 56.2 149.4C54.5 148.9 53.1 148.4 53.5 146C53.6 144.8 53 144.8 52.3 144.6C49.5 143.6 49 142.7 49.3 139.3C49.5 137.9 48.7 137.2 48 136.5C46 134.7 45.7 132.7 45.9 129.6C46.1 125.7 46.4 121.6 45.8 117.6C45.6 116.3 45.5 115.1 45.1 113.9C44.6 112.3 44.5 111.4 45.8 110C46.9 108.9 47.2 106.6 48.3 105C48.9 104.1 48.3 102.5 47.7 101.4C46.7 99.4 45.7 97.5 44.6 95.5C43.1 92.6 43.1 91.2 45.5 89.5C47.2 88.3 47.4 87.4 46 86C45.1 85 44.9 83.6 45.1 82.5C45.4 79.9 45.2 77 48.2 75.9C49.3 75.5 50 74.1 50.9 73.1C52.5 71.1 51.7 67.8 49.4 67C48.8 66.8 48.1 66.8 47.6 65.9C48.5 63 50.4 61.1 53.2 60.5C54.7 60.1 56.3 59.7 57.6 58.7C58.2 58.2 59.1 58 59.8 58C64.5 58.2 68.8 55.4 73.5 56C76.8 56.4 79.9 54.6 83.3 55.7C85.2 56.2 87.5 55.2 89.6 55.2C93.8 55.3 98.1 56 102.2 55.9C106.6 55.8 110.9 56.8 115.3 55.9C118 55.4 120.8 55.3 123.6 55.5C128.7 55.9 133.8 55 138.9 54.9C144.2 54.8 149.5 54.5 154.8 54.4C159 54.4 163.2 53.8 167.4 53.5C173.9 53 180.5 52.5 187 52C193.9 51.4 200.8 50.4 207.8 50.4C212.6 50.4 217.4 48.8 222.3 49.4C224.6 49.7 227.1 48.6 229.5 48.8C230 48.9 230.6 48.5 230.7 49.5C230.7 50.5 230.2 50.8 229.4 50.6C227.4 50 226 52 224.1 52.1C221.6 52.3 219.2 51.8 216.8 52.1C214.8 52.4 212.9 52.7 210.9 52.9C209.2 53.1 207.6 53.8 206.1 52.5C205.6 52 205.1 52.4 204.7 52.9C202.6 55.5 198.7 57.4 195.9 57.2C195.3 57.2 194.7 57 194.1 56.5C191.7 54.6 191.1 54.6 189.3 57C188.8 57.7 188.2 57.6 187.6 57.7C183.7 58.6 179.7 58.5 175.7 59.1C173.4 59.4 171.2 59.1 169 59.6C168.5 59.8 167.6 59.9 167.4 59.6C165 56.7 164.4 60.4 162.9 60.7C164.1 62.3 165.6 61.9 167 62C168.7 62.2 170.7 61 172.1 63.4C172.5 64 173.7 64.1 174.1 63C174.8 60.7 176.5 60.9 178 61C180.3 61.2 182.6 61.1 184.9 60.6C186.8 60.2 188.9 61.1 191 60.6C195.5 59.6 200.1 60.1 204.6 59.5C204.8 60.9 203.4 61.7 203.9 63.4C204.8 64.2 206.1 63.7 207.2 63.5C209.2 63.1 211.2 62 213.3 61.7C213.8 61.6 214.4 61.1 214.6 60.6C215.6 58.2 217.6 57.8 219.6 57.8C227.1 57.7 234.4 56.1 241.9 56C244 56 246.1 55.3 249 55.8C247.1 56.1 246.1 56.6 244.8 56.4C244.2 56.3 243.5 56.7 242.9 57C242.4 57.3 242 58 242.1 58.6C242.2 59.4 242.8 59.5 243.4 59.5C246.9 59.8 250.3 60.2 253.7 59.3C255.9 58.7 258 58 260.3 59.1C261.4 59.6 262.2 58.3 263.4 58.2C270.6 57.9 277.7 56 284.9 56.5C288.1 55 291.6 55.8 294.9 55C296.2 54.7 297.7 55.6 298.9 54.9C300.2 56.2 297.8 57.1 299.1 58.1C300 58.7 300.8 58.5 301.7 58.4C303.9 58.2 306.1 57.9 308.3 57.9C313.2 57.9 318 57 322.9 56.5C323.6 56.5 324.3 56.4 324.9 56.5C329.3 57.5 333.5 56.1 337.8 55.8C342.7 55.5 347.5 55.1 352.4 54.5C358.7 53.7 365.2 54.1 371.4 51.8C371.9 51.6 372.5 51.7 373.1 51.8C375.8 52.1 378.5 52.3 381.3 51.3C383.2 50.6 385.3 51.2 387.3 51C395.2 50.2 403.2 49.7 411.1 48.5C420.2 47.2 429.4 47.6 438.4 45.3C442.9 46.1 447.3 44.3 451.9 44.4C454.8 44.5 457.9 44.2 460.8 43.8C464.6 43.2 468.5 43 472.4 42.6C474.7 42.3 477 41.9 479.3 41.6C489.1 40.5 498.7 39.2 508.5 38.7C512.8 38.5 517.1 37.6 521.4 37.2C529.8 36.4 538.3 35.7 546.7 34.9C554.3 34.2 562 33.4 569.6 32.7C582.8 31.5 595.9 30.3 609.1 29C623.2 27.7 637.2 26.3 651.3 25.1C661.5 24.2 671.6 23.1 681.8 22.2C689.6 21.6 697.3 20.9 705.1 20.4C712.7 19.9 720.4 19.5 728 18.7C733.9 18.1 739.9 17.4 745.8 17C752.4 16.6 759 15.6 765.6 15.7C767.9 15.7 770.1 14.5 772.5 15.1C777.4 16.3 782.1 14.7 786.8 14C788.6 13.7 790.2 13.8 792.5 14.8C788.4 17.2 784.7 17.6 780.8 16.8C780.3 16.7 779.7 15.9 779.3 16.3C777.1 18.4 774.3 17.5 771.8 18.4C770.2 18.9 768.6 18.7 767.1 18.6C764.5 18.5 761.9 18.8 759.4 19.1C755.4 19.6 751.3 19.3 747.3 20.1C743.4 20.8 739.6 20.6 735.7 21.1C731.2 21.7 726.6 22.5 722.1 22.1C717.2 21.6 712.6 22 707.9 23.5C707.7 23.5 707.4 23.5 707.2 23.5C703 23.7 698.9 24.1 694.7 24.8C693.1 25.1 691.4 25.8 689.9 24.2C689.8 24 689.3 24.1 689 24.2C685.1 25.8 681.1 26.5 677 25.7C673.8 28 670.6 26.7 667.4 25.9C666.5 25.7 665.2 26 664.2 26.7C663.7 27 663.1 27.6 662.7 27.5C659.3 26.7 656.1 28.6 652.9 28.5C648.9 28.4 645.1 28.8 641.4 30.4C640.8 30.7 640.2 30.8 639.5 30.5C638.9 30.3 638.2 30 637.6 30.5C635.3 32.5 632.8 31.6 630.6 30.8C626.9 29.3 623.6 30.8 620.2 31.8C618.3 32.4 616.8 33 615.1 31.2C614.2 30.3 612.6 30.7 611.3 31.2C607.4 32.7 603.4 33.6 599.3 33.8C597.5 33.9 595.5 33.5 593.7 34.5C593.2 34.8 592.4 34.6 591.8 34.4C589.7 33.7 587.7 33.7 585.7 35C584.9 35.5 583.7 35.6 582.8 35.4C578.9 34.5 575.2 35.2 571.5 36.3C569.3 37 567.1 36.8 564.9 36.8C560.1 36.8 555.4 38.1 550.6 37.9C547.7 37.8 544.9 38.7 542 39C536 39.7 530 41 523.9 41C522.1 41 520.4 40.2 518.6 40.6C512.5 41.9 506.4 43 500.3 43.3C495.7 43.5 491.2 44.7 486.5 44.8C482.9 44.9 479.2 44.7 475.6 45.7C473 46.5 470.1 46.2 467.3 46.4C460.9 47 454.6 47.6 448.2 48.1C443.3 48.5 438.4 49.3 433.6 49.2C429.3 49.1 425.2 49.4 421.3 51.3C420.6 51.7 419.6 51.7 418.7 51.5C413.9 50.6 409.3 52.6 404.6 52.8C402.4 52.9 400 52.7 397.8 53.6C396.6 54 395.4 54.1 394.4 55.5C396.5 57 398.5 56.5 400.5 56.1C402.4 55.7 404.2 55.3 406.1 55.1C408 54.9 409.8 55.9 411.6 55.9C413.3 55.9 415 54.6 416.9 54.2C422.2 53.2 427.4 53.8 432.7 54.4C433.3 54.5 434 55 434.3 54.5C435.9 51.9 438.4 52.7 440.4 52.4C447.2 51.3 454 50.9 460.9 50.1C467.4 49.3 474.1 49.6 480.6 48.3C482.5 47.9 484.1 49.5 486.1 49.1C489.1 48.5 492.2 47.9 495.2 47.9C498.7 47.9 501.9 46.2 505.5 46.5C509.6 46.8 513.8 47.5 518 46.1C520.1 45.4 522.6 44.9 525.1 45.6C526.5 46 528.3 45.6 529.6 44.8C532.4 43 535.1 43.5 537.9 44.2C540.7 45 543.4 44.2 546.2 44.2C549.3 44.2 552.8 44.3 555.5 42.9C558.6 41.4 561.1 42.8 563.9 42.7C563.5 43.6 563 44.2 561.9 44.2C557.4 44.1 553 45 548.5 46C545 46.8 541.2 48.4 537.4 46.6C536.3 46.1 535.5 47.4 534.3 47.5C530.1 47.8 526 48.3 521.8 49C520.1 49.3 518.3 48.2 516.8 49.9C516.7 50 516.3 50.1 516.2 50C512.8 47.9 509.4 50.7 506.1 50.1C501.5 49.3 497.2 50.7 492.8 51.1C488.9 51.4 484.9 51.4 481.1 53C477.7 54.4 474.2 54.4 470.6 53.8C469.8 53.7 469.1 53.3 468.4 53.9C466.3 55.8 463.9 55.6 461.7 55C458.8 54.2 456.1 56 453.2 55.3C452.6 55.2 452.3 56.3 451.7 56.7C449.6 58.2 447.5 59.1 444.9 57.4C442.4 55.8 439.5 56.6 436.8 56.7C435.4 56.7 434.1 57 432.8 56.8C429.9 56.3 427.2 57.7 424.4 58.1C421.1 58.6 417.8 60 414.4 60.2C413.7 60.3 412.9 60.3 412.6 60.9C411.2 63.3 409 62.9 407 63.6C405 64.4 402.9 64.6 400.8 64.7C395.8 65 390.9 65.9 386 66.3C379.3 66.9 372.6 68 365.9 68.3C363.6 68.3 361.3 68.8 359 69.2C357.4 69.5 355.7 69.8 354.1 69C353.2 68.5 352.2 68.9 351.2 69.1C348.4 69.7 345.6 70.2 342.8 70.9C340 71.6 337.1 71.7 334.2 71.7C331.2 71.7 328.3 72.5 325.3 72.7C324.5 72.7 323.9 73.1 323.3 73.8C322.5 74.7 322.4 75.6 323.7 76C324.4 76.2 325.2 76.2 325.6 76.7C327.5 78.8 329.5 78 331.4 76.9C332.1 76.5 332.8 75.6 333.5 76.1C335.7 77.5 337.2 75.5 339 74.8C342.2 73.6 345.6 72 349.1 73.8C349.7 74.2 350.3 74.1 351 74.1C352.5 74.2 354.1 73.9 355.6 74.8C356.3 75.2 357.2 75.3 357.8 74.7C359.7 72.9 362.1 73.3 364.1 72.2C365.1 71.6 366.4 71.6 367.6 72.5C369.6 74 371.2 73.9 372.9 72.4C375.2 70.4 375.2 70.3 377.8 72.3C378.6 72.9 379.4 73.2 380.3 72.6C381.3 71.9 382.4 71.6 383.5 72.2C385.4 73.2 387.4 72.9 389 71.8C393.4 68.9 398.3 69.5 402.9 68.2C404 67.9 405.1 68.3 406 69.1C407.2 70.4 408.5 70.5 410 69.8C411.2 69.3 412.6 69.4 413.9 69.4C417.7 69.3 421.6 69 425.3 68.3C427.2 68 429 67.7 430.9 67.7C434.4 67.7 437.8 67.3 440.5 64.2C441.1 63.4 441.9 63.4 442.8 64.3C444.8 66.5 447.1 66.7 449.4 64.9C449.8 64.6 450.3 64.1 450.6 64.4C452.1 66.1 454.2 63.8 455.8 65.5C456.5 66.3 457.4 65 458.3 65.1C463.2 65.5 468 64.2 472.8 63.7C479.2 63 485.8 62.8 492.2 61.8C495.7 61.2 499.3 61.7 502.7 60.6C504.6 59.9 506.3 60.8 508.2 61C507.2 62.2 506 62.6 504.8 62.8C503.8 63 503 63.4 503.1 64.7C503.2 66 504.2 66.2 505.1 66.1C509.3 65.7 513.5 65.2 517.7 64.7C518.4 64.6 519.1 64.3 519 63.3C518.9 62.3 518 62.4 517.4 62.4C515.1 62.5 512.7 62.6 510.4 62.3C509.9 62.2 509.5 62.2 509.4 61.5C509.4 60.9 509.8 60.7 510.3 60.6C513.7 60.1 517 59 520.5 59C524.7 59 528.8 58.4 533 58.4C535.1 58.4 537.4 57.7 539.5 57.3C542.4 56.8 545.3 56.7 548.3 57.1C545.6 59.2 542.5 59 539.5 59.5C534.9 60.3 530.2 59.5 525.7 61.1C524.6 61.5 523.5 61.5 522.4 61.2C521.8 61.1 521.3 61.3 521.1 62C520.7 62.9 521.2 63.4 521.7 64C522.5 65 523.5 64.7 524.5 64.5C531.5 62.9 538.7 63.2 545.7 62.2C555.1 60.9 564.7 61.3 574.1 59.5C576.9 59 579.8 59.2 582.5 57.7C582 56 580.5 56.4 579.8 55.5C579.4 54.8 579.1 54 580.1 53.7C581 53.5 582 53.3 583 53.2C589.3 52.7 595.6 52.2 601.9 51.7C603.5 51.6 604.9 50.6 606.5 50.9C607.3 51 608.2 51 608.2 52.2C608.2 53.6 607 53.1 606.4 53.4C605.9 53.6 605.3 53.6 604.8 53.2C603.8 52.4 602.7 52.8 601.6 52.9C599.8 53.1 597.9 53.1 596.2 54.3C594.5 51.6 593.5 55.5 591.9 55C591.3 54.9 590.6 55.6 590.7 56.5C590.7 57.4 591.4 57.9 592.1 57.8C594.6 57.5 597.1 58.3 599.6 57.1C603 55.5 606.7 56.4 610.2 56C614.3 55.5 618.4 55.1 622.4 54.6C623.7 54.5 624.9 54.1 625 52C622.6 51 619.7 52.5 616.8 51C618 50.6 618.8 50.2 619.7 50.1C625.1 49.6 630.3 47.9 635.8 48.2C637.1 48.3 638.5 48.1 639.8 47.9C645.6 47.2 651.5 47 657.3 45.8C660.1 45.2 663 45.1 665.9 45.3C669.6 45.6 673.4 45.5 677.1 44.3C680.6 43.1 684.3 42.5 688 43.3C691 43.9 693.8 43.4 696.5 42.2C697.2 41.8 697.9 41.3 698.7 41.6C701.9 42.9 705.1 42 708.3 41.8C715.4 41.3 722.4 40.3 729.5 39.8C733.4 39.5 737.5 39.8 741.4 39C748.1 37.6 754.9 37.9 761.6 37.1C766.9 36.4 772.3 36.5 777.6 35.5C780 37 782 35.2 784.3 34.7C786 34.4 787.8 34.7 789.6 34.8C790 34.8 790.4 35.3 790.5 35.8C790.6 36.5 790.1 37 789.6 37.1C788.9 37.3 788.3 37.3 787.6 37.3C784.2 37 780.7 37 777.4 38C774.4 38.8 771.5 38.1 768.5 38.6C765.8 39 763.1 39.7 760.3 39.6C759.3 39.5 758.3 39.9 757.5 39C757.4 38.8 757 38.6 757 38.6C755.4 40.6 753.2 40.3 751.2 40.8C750.7 41 750.7 41.9 750.9 42.5C751 43.1 751.4 43.8 752 43.6C753.4 43.2 754.7 44.1 756.2 43.4C757.6 42.7 757.7 42.9 757.2 45.2C756.3 46.4 754.3 46.9 755.3 49.3C755.5 49.6 754.9 49.9 754.6 49.8C753.9 49.5 753.2 49.1 752.6 48.6C751.1 47.3 749.6 45.9 748.4 48.9C745.6 48.6 743.6 51.9 740.6 51.1C739.2 50.7 737.7 51.1 736.3 51.3C733.9 51.7 733.3 51.5 732.3 48.9C732 48.1 731.6 48 731.1 48C730.4 48 730.1 48.5 730.3 49.3C730.5 50.3 729.8 51.1 729.3 50.5C726.8 47.2 724.9 49.3 722.9 51.3C721 49.1 720.4 49.1 718.1 50.3C717.5 50.6 716.8 50.9 716.3 51.3C715.2 52.2 714.2 52.5 713.1 51.1C712.3 50.1 711.1 50.3 710 50.6C709.3 50.9 709.1 51.2 708.8 52.1C708.1 54.6 706.4 55 705 53.1C704.7 52.7 704.5 52.3 704.3 51.8C703.8 50.6 702.8 50.9 702 51.2C700.9 51.6 701.1 52.5 701.3 53.4C701.4 53.9 701.6 54.3 701.7 54.8C700.5 55.3 699.5 55 698.4 54.6C697.5 54.3 696.4 53.1 695.7 55.1C695.6 55.3 695.3 55.5 695.1 55.4C692.4 54.2 689.7 56.6 687 55.4C686.1 54.9 684.9 55 683.8 55.5C682.8 56 681.7 55.9 681.2 54.4C681.8 54.6 682.4 54.9 682.5 53.7C682.6 53.4 682.2 52.8 682.1 52.8C681.1 52.7 681.5 53.7 681.2 54.3L681.1 54.3C681.2 54.3 681.2 54.4 681.2 54.4C680.4 55.1 680 56.1 679.5 56.9C678.7 56.9 678.7 56.5 678.8 55.9C679 54.9 679 53.4 678 53.5C677 53.5 675.7 53 674.7 54.5C672.9 57.4 672.8 57.4 669.9 55.5C669.2 55.1 669 55.1 668.6 55.7C668.4 56 668.1 56.2 667.7 56.1C664.7 55.3 664.1 55.3 662.3 56.6C661.7 57.1 661.3 57 660.8 56.6C659.6 55.6 658.4 54.7 657.3 53.8C656.5 54.3 656.5 55.1 656.3 55.8C655 59.3 655.1 59.4 651.7 59.2C648.8 59 645.9 58.8 643.1 59.6C642.7 59.7 642.1 60 641.9 59.5C641.1 57.7 640 58.9 639.6 59.5C638.6 61 637.4 61.2 636.1 60.8C635.3 60.6 634.8 60.8 634.1 60.9C631 61.4 627.9 61.4 624.8 62.1C623.6 62.3 621.4 63 621.8 59.8C621.9 59.2 621.5 58.9 621 58.9C620 58.8 619 58.6 618 58.7C617.2 58.8 616.3 59 616.2 60.1C615.8 63.7 613.5 64 611.1 64.2C609.8 64.3 608.4 64.2 607.1 63.8C607.1 62.8 607.9 63.1 608.3 62.9C608.8 62.6 609.7 62.8 609.8 61.8C609.9 60.7 609 60.4 608.3 60.1C606.8 59.3 605.5 60.5 604 60.3C603.6 59.4 605.4 59.2 604.7 58.3C604.2 57.7 603.7 58.2 603.2 58.6C602.5 59.2 601.5 59.6 601.6 60.8C601.8 63.1 600.4 63.2 599.1 63.5C598.1 63.7 597 64 596.1 63.7C594.2 63.2 594.2 65.6 592.9 65.8C591.6 66 590.9 64.2 589.5 64.6C588.6 64.8 587.9 65.5 587.2 66C586.4 66.6 586.4 66.5 585.1 65C585.1 64.9 585 64.7 585 64.7C582.1 65.2 579.6 61.8 576.7 63.8L576.7 63.7C576.4 64.6 576.2 65.4 575.2 65.8C571.6 67.3 567.9 66.9 564.3 66.9C562.6 67 561 67.1 559.4 67.7C556.9 68.6 554.2 68.7 551.7 69.2C549.6 69.6 547.8 70.3 545.8 69.3C545.6 69.2 545.1 69.4 544.9 69.6C542.1 72.1 539.1 71.6 536.2 70.1C534.9 69.4 533.6 69.6 532.3 69.8C528.4 70.5 524.5 70.7 520.7 71.2C514.2 72 507.6 72.4 501.2 73.9C500.6 74 500.1 74.2 499.7 74.7C498.6 76 497.3 76.1 496.1 75C494.7 73.7 493.1 74.7 491.6 74.8C489.7 74.9 488 75.1 486.3 73.5C484.8 72 482.9 72.8 481.2 73.4C480.8 73.6 480.2 74.2 480.3 74.5C481.2 78.5 478.2 77.6 476.6 78.4C476.4 78.5 476.3 78.7 476.1 78.8C476 80 476.7 80 477.4 80C478.8 80 480.3 80.1 481.7 80.1C482 80.1 482.3 80.3 482.4 80.2C485.6 76.6 489.5 81.2 492.8 79.1C493.1 78.9 494.1 79.2 494.3 79.6C495.3 81.3 495.9 81.2 496.8 79.5C497.1 78.8 498.1 78.5 498.9 78.8C500.2 79.3 501.5 78.7 502.8 78.4C507.9 77.2 513.2 77.6 518.3 76.3C524.7 74.7 531.3 75.3 537.8 74.5C543.6 73.8 549.6 73.4 555.6 73.1C561.8 72.8 568 71.6 574.2 70.9C579.4 70.3 584.6 69.6 589.8 69.5C591.7 69.5 593.5 69.2 595.3 68.9C597.2 68.6 599.1 69.2 600.9 68.9C603.4 68.6 605.8 67.9 608.4 67.7C614.4 67.2 620.3 66.5 626.3 66C630.6 65.6 634.9 64.7 639.2 64.9C641.9 65 644.4 64.7 647 64.3C649.2 64 651.5 64.5 653.8 64.5C655.4 64.4 656.3 62.6 657.8 63.5C657.2 64.6 656.9 66 655.5 66.1C656 67.5 654.9 67.8 654.2 68.4C654.1 69 655.5 69.9 654.1 70.4C653.4 70.7 652.8 71 653.1 71.9C653.4 72.8 654.1 73.3 655 73.1C655.9 72.9 656.5 72.4 656.8 71.2C657.1 70.1 657.2 68.3 657.5 68.1C660.3 66.7 659.1 65.1 657.9 63.5C660.3 64.4 662.7 65.3 665.3 64.2C665.4 64.1 665.8 64.1 665.9 64.3C667.9 66.3 669.8 64.6 671.7 64.1C675 63.2 678.4 63.7 681.7 62.5C682.4 62.2 683.1 64.1 682.4 64.9C681.6 65.9 681.4 66.5 682.3 67.4C683 68.1 683.8 68.9 684.9 68.1C685.3 67.7 685.9 67.5 686.3 67.1C687.7 65.9 687.6 65.3 686 64.2C685.5 63.9 684.5 63.9 684.8 62.8C685.1 61.7 686 61.9 686.8 62C688.8 62.3 690.3 63.7 691.9 64.8C692.7 65.3 693.5 66.7 694.5 65.4C695.5 64.2 694.6 63.4 693.8 62.6C693.6 62.5 693.7 62.2 693.6 61.7C694.6 61.6 695.9 60.6 695.8 63C695.8 63.9 696.1 64.5 697 64.4C697.7 64.4 697.9 63.8 697.8 63.1C697.5 61.2 698.7 60.8 699.8 60.8C702.8 60.7 705.8 60.3 708.7 59.6C709.3 59.5 709.9 59.5 710.4 59.7C714.1 61.1 717.8 60.1 721.4 59C725.1 57.9 728.8 56.8 732.7 57.1C734.1 57.2 735.3 56.6 736.6 56.4C740.6 55.6 744.8 57 748.8 55.5C749.5 55.2 750.3 55.4 751.1 55.6C752.6 55.9 754 55.8 755.5 55C757.6 53.9 759.7 54 762.2 54.8C764.6 55.6 767.4 54.9 770 54.6C775.9 54 781.8 53.1 787.7 52.7C789.5 52.5 791.4 52.7 793.2 52.9C795.3 53.1 797.3 53 799.4 52.4C801.7 51.7 801.9 51.9 802.3 54.7C802.5 56 802.9 56.9 804.1 57C805.4 57.1 806.2 56 806.1 54.9C805.8 52.5 807.1 52.7 808.3 53C809.5 53.4 810.7 54.5 810.6 51.8C810.6 51.6 811.3 51.2 811.5 51.3C814 52.1 816.3 49.7 818.7 50.4C821.5 51.1 823.9 49.7 826.5 49.7C829.2 49.7 832 48.9 834.7 49.3C838.1 49.9 841.5 48.3 844.9 49.3C845.3 49.4 845.8 49.3 846.2 49.2C851.8 47.5 857.5 47.6 863.1 47.1C868 46.7 872.9 46.4 877.8 46C879.7 45.9 881.5 44.9 883.4 45.3C886.4 46 889.4 45.5 892.4 45.3C893.4 45.23 894.41 45.25 895.41 45.28ZM576.6 63.6C576.59 63.6 576.59 63.6 576.58 63.6C576.59 63.63 576.59 63.67 576.6 63.7L576.6 63.6ZM576.58 63.6C576.5 63.13 576.49 62.67 576.4 62.3C576.2 61.8 575.8 61.5 575.3 61.8C575.1 61.9 575 62.4 574.9 62.7C574.7 63.4 575.2 63.4 575.7 63.5C575.99 63.5 576.29 63.6 576.58 63.6ZM895.8 44.8C896.42 44 897.51 44.22 897.75 45.39C896.97 45.36 896.19 45.31 895.41 45.28C895.54 45.13 895.67 44.97 895.8 44.8ZM910.67 46.62C912.64 49.91 914.34 50.49 917.3 49.3C918.9 48.7 918.4 47.8 917.9 46.8C918.9 47.5 919.9 48 921.2 47.5C920.2 45.7 919 46.7 917.9 46.8C916.6 46.5 915.5 44.2 914.1 45.9C912.92 47.37 911.85 47.02 910.67 46.62ZM910.6 46.5C910.6 46.53 910.61 46.57 910.61 46.6C910.63 46.61 910.65 46.62 910.67 46.62C910.65 46.58 910.62 46.54 910.6 46.5ZM653.9 68.5C654.2 67.7 654.6 66.9 655.2 66.3C654.7 65.6 654.1 65.4 653.6 66.1C653.1 66.9 653 67.9 653.9 68.5ZM708 46.1C708.1 46.8 708.5 47.3 709.2 47.1C710 46.8 710.9 46.5 711.7 46.2C711.73 46.2 711.76 46.19 711.79 46.19C710.99 45.59 710.19 45 709.1 45.2C708.6 45.3 708.1 45.6 708 46.1ZM711.8 46.2C711.8 46.2 711.8 46.19 711.8 46.19C711.8 46.19 711.79 46.19 711.79 46.19C711.79 46.19 711.8 46.2 711.8 46.2ZM711.8 46.19C713.36 46.06 714.73 47.49 716.2 47.1C720 46.2 724 47.9 727.7 46.1C728.2 45.8 728.9 45.9 729.4 45.9C733.7 45.9 737.8 45.2 742 44.3C742.7 44.2 743.4 44.1 743.5 43C742.6 41.8 741.4 41.7 740.2 41.8C737.1 42 733.9 42.3 730.7 42.6C726.1 43 721.5 43.7 716.8 43.9C715.1 44 713.6 44.9 712 45C711.5 45 711.79 45.79 711.8 46.19ZM698.1 46.8C698 48.1 698.7 48.8 699.7 48.7C700.8 48.6 702.3 48.6 702.5 47.2C702.7 45.4 701 45.9 700 45.4C699.2 45.4 698.3 45.3 698.1 46.8ZM652.8 51.9C653.1 52.8 653.9 52.8 654.5 52.7C657.1 52 660 54.3 662.5 52C662.8 51.8 663.4 51.9 663.8 52C665.5 52.3 667.2 52 668.8 51.5C670.2 51 671.4 50.9 672.5 52.1C672.8 52.4 673.3 53.1 673.4 52.2C673.7 50.3 675 50.7 676 50.7C679.8 50.7 683.5 49.5 687.3 49.8C689.1 50 690.6 49.2 691.1 46.7C689.2 45.4 687.6 46.6 686 46.6C682 46.7 678 46.8 674.1 47.3C671.2 47.6 668.4 47.6 665.6 48.3C663.4 48.8 660.5 50.3 658.2 47.7C658.1 47.5 657.4 47.4 657.3 47.6C656.3 49 654.8 49.1 653.6 50C653 50.5 652.5 51.1 652.8 51.9ZM640.5 52.7C640.6 53.5 641.2 53.5 641.8 53.5C643.6 53.2 645.5 52.9 647.3 52.4C648.6 52 648.7 50.9 647.7 49.8C647.2 49.2 646.6 48.9 645.7 48.9C643.8 49 642.5 50.1 641.2 51.5C640.9 51.9 640.6 52.3 640.5 52.7ZM631.7 57.2C631.7 57 631.6 56.7 631.5 56.7C631.3 56.7 631.2 56.8 631 56.9C631 57.1 631.1 57.4 631.2 57.4C631.4 57.4 631.5 57.3 631.7 57.2ZM629.5 53C629.3 54.4 630.6 54.3 631.3 54.6C631.6 54.7 631.9 54.8 632.1 54.8C633.2 54.5 634.2 54.4 635.1 54C635.9 53.6 636.5 52.8 636.2 51.9C635.8 50.8 634.9 51 634.2 51.4C633.4 51.9 632.9 53.1 631.7 52.3C630.9 51.7 629.8 51.5 629.5 53ZM352.4 59.7C352.4 61.2 353.4 60.8 354.1 60.8C354.7 60.8 355.2 60.8 355.8 60.7C359.4 60.1 362.9 59.3 366.3 61.2C366.7 61.5 367.6 61.3 367.8 60.8C368.6 59 370 59.4 371.3 59.4C374.6 59.4 378 59.6 381.1 58C381.8 57.6 382.6 57.4 383.7 57.9C385.7 57.8 387.9 56.8 390.3 57.2C390.8 57.3 391.6 56.8 391.5 56.1C391.5 55.2 390.7 55 390 55.1C388.2 55.3 386.5 55.9 384.7 55.9C377.3 55.9 370 57.7 362.6 58C359.7 58.1 357 59.9 354.1 59C353.4 58.8 352.6 58.8 352.4 59.7ZM345 61.2C344.9 61.6 345.2 61.8 345.6 61.8C346.3 61.8 347.1 61.7 347.4 60.8C347.4 60.3 347.1 60.1 346.8 60.1C346 60.1 345.2 60.1 345 61.2ZM336.1 62.1C336 62.2 336.2 62.6 336.3 62.7C337.3 63.1 337.9 62.4 338.5 61.3C337.4 60.9 336.7 61.2 336.1 62.1ZM332.5 62.1C332.7 62.6 333.2 62.8 333.6 62.6C333.9 62.4 334.3 62.4 334 61.7C333.9 61.3 333.6 61.1 333.1 61.1C332.5 61.1 332.4 61.7 332.5 62.1ZM255 70.9C254.8 69 252.8 70.1 251.6 70.2C250.7 70.3 249.2 70 249.4 71.5C249.6 73 251 72.1 251.9 72.1C253.1 72.1 255.1 72.7 255 70.9ZM261.3 62.3C261.1 61.5 260.5 61.7 259.9 61.6C258.2 61.2 256.7 62.8 255 62.4C254.1 62.3 253.2 62 252.4 62.7C252 63.1 251.6 63.6 251.8 64.3C252 64.9 252.4 65.3 252.8 65.1C254.8 64.1 256.9 64.1 259.1 64.6C259.5 64.7 259.9 64.3 260.3 64C260.8 63.6 261.6 63.4 261.3 62.3ZM282.8 60.6C282.7 60.2 282.4 60.1 282 60C281.9 60.2 281.4 60.3 281.4 60.5C281.4 61.2 281.9 61.3 282.3 61.4C282.7 61.5 282.9 61.2 282.8 60.6ZM289.4 81.5C289.2 80.6 288.7 80.2 288 80.3C287.4 80.4 286.4 80.1 286.3 81C286.1 82.1 287.1 82.3 287.8 82.4C288.5 82.5 289.1 82.4 289.4 81.5ZM289.6 67.1C289.8 66.3 289.2 66.4 288.8 66.3C288.4 66.3 287.8 66.3 287.7 66.8C287.7 67.4 288.2 67.6 288.6 67.7C289.1 67.9 289.5 67.7 289.6 67.1ZM302.1 79.3C301.5 78.4 300.9 77.1 300 76.6C299.1 76.2 297.8 76.4 296.8 76.7C295.6 77 295.3 78.6 294.4 79.5C297.3 81.5 299.4 82 301.1 81.2C301.9 80.9 302.8 80.2 302.1 79.3ZM309.8 65.2C307.6 63.3 306.3 63.6 304.2 66.1C306.2 65.8 307.9 65.5 309.8 65.2ZM311.6 64.4C313 64.9 314.4 65.3 315.7 64.1C315.8 64.1 315.7 63.5 315.6 63.5C314.3 62.9 312.9 62.7 311.7 63.9C311.7 64 311.7 64.2 311.6 64.4ZM319.8 73.7C318.1 73.6 316.4 72.8 314.7 74.2C314 74.8 313.2 75.2 313.4 76.5C313.6 77.8 314.4 78.3 315.9 78.1C318 78.7 318.9 76.1 320.4 74.9C320.8 74.6 320.6 73.6 319.8 73.7ZM323.3 63.4C323.4 63.4 323.4 63.2 323.6 62.8C322.4 61.8 321.4 62.1 320.5 63C320.4 63.1 320.5 63.9 320.6 64C321.6 64.5 322.4 64 323.3 63.4ZM369.4 108.3C369.4 107.9 369.3 107.6 368.7 107.7C368.5 107.8 367.8 107.6 367.9 108.4C367.9 108.7 368.1 109.1 368.5 109.1C369 109.1 369.4 108.9 369.4 108.3ZM371.9 79.6C370.8 79.3 369.9 79 369.2 79.8C369 80.1 369.2 80.5 369.5 80.7C370.6 81.7 371.2 81 371.9 79.6ZM374.9 90.2C374.9 90 374.8 89.7 374.7 89.6C374.3 89.4 374.1 89.7 373.9 90C373.7 90.4 373.9 90.6 374.2 90.7C374.5 90.8 374.8 90.6 374.9 90.2ZM421 83.5C420.8 82.9 420.4 83.1 420 83.1C419.6 83.1 419.2 83 418.9 83.5C419.2 84 419.7 83.8 420.1 83.8C420.4 83.9 420.7 83.7 421 83.5ZM453.4 70.4C454.9 71.1 456 71.5 457.1 70.6C457.2 70.5 457.2 70 457.1 69.9C456.2 68.7 455.2 69 454.1 69.6C454 69.6 453.9 69.7 453.4 70.4ZM444.2 71.2C444.1 72 445.1 72.6 445.9 72.5C446.8 72.4 447.9 72.1 448 71.1C448.1 69.9 447 70.1 446.3 70C445.5 70.2 444.3 69.8 444.2 71.2ZM426.9 74.5C428.2 74.6 429.3 73.9 430.4 73.4C431.3 73.1 432 72.2 431.5 71.1C431 70.1 430.1 69.8 429.2 70.4C428.3 71 427.3 70.9 426.3 71.3C425.5 71.6 424.5 71.7 424.8 73.2C425 74.6 426.1 74.3 426.9 74.5ZM459.1 81.3C456.9 80.1 454.7 80.9 453 79.5C452.6 79.2 452.2 79.5 451.8 79.8C450.3 81.2 448.3 81.2 446.5 81.4C441.6 82 436.7 82.8 431.7 82.9C431 82.9 430.3 82.9 429.7 83.1C429.1 83.2 428.6 83.5 428.6 84.3C428.6 85.1 429.3 85.3 429.8 85.3C433.1 85.1 436.5 85.2 439.7 84.6C444.7 83.7 449.7 83.3 454.8 82.8C456.3 82.7 457.5 82.1 459.1 81.3ZM469.1 70.2C469.8 70 470.7 69.5 470.4 68.4C470.1 67.4 469.3 66.9 468.3 67.3C467.3 67.6 466.4 67.9 465.5 68.4C464.9 68.7 464.2 69.2 464.3 70C464.4 71 465.3 70.7 466 70.9C467 70.7 468.1 70.5 469.1 70.2ZM470.6 80.1C470.6 79.7 470.4 79.4 470.2 79.4C469.8 79.4 469.5 79.5 469.5 79.9C469.5 80.3 469.7 80.6 470 80.7C470.3 80.8 470.5 80.6 470.6 80.1ZM476 69.3C478.4 69.4 480.8 68.3 483.3 68.8C485.8 69.4 488.1 68.4 490.5 67.7C491.3 67.5 491.9 66.8 491.8 65.8C491.7 64.9 490.9 64.7 490.2 64.7C488.9 64.6 487.6 64.4 486.2 64.8C483.4 65.5 480.6 66.4 477.7 66.4C476.6 66.4 475.5 66.4 474.4 66.4C473.7 66.4 473.1 66.7 473.1 67.7C473.1 68.5 473.6 69.1 474.3 69.3C474.8 69.4 475.4 69.2 476 69.3ZM557.5 78.2C557.7 77.5 557.4 77 556.9 76.7C556.4 76.5 555.9 76.3 555.3 76.7C555.5 77.1 555.7 77.5 555.9 78C556.1 78.6 556.4 79 557.1 78.8C557.3 78.8 557.4 78.5 557.5 78.2ZM608.3 75.6C607.7 74.9 609.6 74 608.2 73.5C607.2 73.1 607 74 606.5 74.7C606.2 75.1 605.5 75.2 605 75.5C604.5 75.9 603.8 76.4 604.1 77.3C604.4 78.3 605.2 77.8 606.2 77.7C606.4 77.7 607 77.8 607.5 77.7C608.5 77.4 609.4 77 608.3 75.6ZM626.1 75C625.9 74.8 625.7 74.5 625.4 74.4C625 74.3 624.8 74.7 624.8 75.1C624.8 75.5 625 75.8 625.4 75.8C625.8 75.8 626 75.5 626.1 75ZM634.7 72.1C634.8 71.6 634.4 71.2 633.9 71.1C633.2 71.1 632.8 71.6 632.9 72.3C633 72.6 633.4 73.1 633.5 73.1C633.9 72.8 634.7 72.8 634.7 72.1ZM651.2 72C651.1 71.5 650.9 71 650.4 71.2C649.8 71.4 648.8 71.3 648.6 72.4C648.4 73.2 649 73.3 649.6 73.3C650.4 73.3 651.2 73.1 651.2 72ZM660.9 68.1C659.9 68.2 659 68.5 658.9 69.9C658.8 70.6 659.1 71.5 659.9 71.4C660.8 71.2 661.8 70.7 662.1 69.5C662.3 68.5 661.6 68.2 660.9 68.1ZM674.6 66.8C674.6 66.4 674.4 66.2 674.2 66.3C673.9 66.4 673.6 66.5 673.4 66.8C673.3 67 673.6 67.3 673.8 67.2C674.1 67.1 674.4 66.9 674.6 66.8ZM686.14 71.9C686.6 71.86 687.05 71.81 687.51 71.76C687.31 72.17 687.07 72.43 686.6 72.3C686.37 72.25 686.23 72.1 686.14 71.9ZM698.3 67.6C698.1 66.9 697.5 66.9 697 66.8C696.6 66.8 696.4 66.9 696.3 67.4C696.6 68 697 68.3 697.6 68.2C697.9 68.1 698.3 67.9 698.3 67.6ZM708.6 66.4C708.5 65.4 707.7 65.2 706.8 65.3C706.1 65.4 705 65.8 704.9 65.3C704.4 62.9 702.4 63.9 701.3 63C700.2 62.3 699.7 62.8 699.2 63.9C698.7 65.1 699.1 65.9 700.2 66.1C700.8 66.2 701.4 66.2 701.6 66.9C702.2 69 703.7 68.8 705.4 68.7C705.8 68.7 706.5 68.8 707.1 68.6C707.9 68.3 708.8 67.7 708.6 66.4ZM792.3 59.9C792.4 59.1 791.9 58.8 791.4 58.5C789.9 57.7 788.5 57.7 787 58.6C786.5 59 785.6 59.1 785.7 60C785.9 61.1 786.8 61.1 787.7 61.1C788.7 61 789.9 60.5 791.1 60.9C791.7 61.1 792.2 60.7 792.3 59.9ZM794.3 56.2C794.5 55.3 793.7 55 793.1 54.8C792.3 54.5 791.6 54.8 790.9 55.7C791.5 56.8 792.3 55.8 792.8 56.3C793.3 56.8 794 57.3 794.3 56.2ZM817.6 57.8C817.7 56.7 816.9 56.3 816.1 56.5C815.3 56.7 814.1 56.6 814.1 57.9C814.1 59 815.2 58.8 815.9 58.9C816.7 58.9 817.6 59 817.6 57.8ZM820 56.9C819.9 56.8 819.7 56.6 819.6 56.5C819.5 56.6 819.4 56.8 819.4 57C819.4 57.2 819.7 57.4 819.8 57.4C820.1 57.4 820.2 57.2 820 56.9ZM814.26 60.72C814.28 60.75 814.29 60.77 814.3 60.8C813.61 61.08 812.95 61.07 812.3 60.94C812.96 60.86 813.61 60.79 814.26 60.72C814.26 60.72 814.26 60.72 814.26 60.72ZM827.41 59.43C828.04 59.34 828.66 59.25 829.29 59.16C829.17 59.82 828.58 60.1 828 60.1C827.8 60 827.4 59.7 827.4 59.6C827.4 59.54 827.4 59.48 827.41 59.43ZM835 54.3C832.3 53.3 829.8 54.6 827.2 54.7C826.4 54.7 825.4 55.3 825.3 56.4C825.2 57.8 826.4 57.8 827.2 57.9C829.1 58.1 831.1 58.1 833.1 58.3C833.8 58.4 834.1 58 834.3 57.4C834.7 56.5 835.3 55.7 835 54.3ZM841.3 53.7C841.3 53.3 841 53 840.8 52.6C839.5 53.5 839.5 54.5 840.5 55.6C840.9 56.1 841.5 56.6 841.9 56.1C842.9 55 841.4 54.5 841.3 53.7ZM857.7 50.4C857.9 50.5 858 50.7 858.2 50.7C858.6 50.7 858.8 50.4 858.7 50C858.7 49.9 858.4 49.7 858.2 49.7C857.9 49.8 857.7 50.1 857.7 50.4ZM848.4 52.7C848.4 52.6 848.2 52.7 848.1 52.7C847.8 53.8 847.5 54.9 848.7 55.6C849.1 55.9 849.6 55.7 849.8 55.2C850.4 53.6 848.9 53.5 848.4 52.7ZM851.9 53.6C851.7 53.6 851.6 53.7 851.4 53.8C851.5 54 851.5 54.2 851.7 54.3C851.8 54.3 852.1 54.3 852.2 54.1C852.6 53.7 852.2 53.6 851.9 53.6ZM855.7 53.5C855.8 52.8 855.9 52.5 855.9 52.3C855.8 51.7 855.5 51.4 855.1 51.2C854.8 51 854.3 51.1 854.3 51.5C854.4 52.7 853.5 53.8 854.2 55C854.4 55.2 854.9 55.3 855.1 55.2C855.4 55.1 855.6 54.7 855.7 54.4C855.8 53.9 855.8 53.4 855.7 53.5ZM857.22 56.71C857.52 56.68 857.83 56.65 858.14 56.63C857.89 56.8 857.6 56.88 857.22 56.71ZM875.1 52.1C874.9 51.1 874.3 51 873.4 51C871.4 50.9 869.7 51.4 867.9 52.4C866.4 53.3 864.2 52.3 863 50.4C862.6 49.8 862 50 862 50.4C862 51.9 861.5 53.5 862.5 54.7C863.2 55.6 864.1 54.6 864.9 54.2C865.2 54 865.7 53.8 866.1 53.9C868.1 54.5 870.2 55 872.1 54.3C872.4 54.5 872.6 54.8 872.8 54.8C873.6 55 875.2 53.1 875.1 52.1ZM878.2 47.9C878.2 47.5 877.8 47.4 877.5 47.5C877.2 47.6 876.9 47.8 876.8 48.1C876.6 48.5 877 48.7 877.3 48.7C877.8 48.7 878.2 48.4 878.2 47.9ZM881.7 51.9C881.7 50.8 881 49.8 880 50.1C879 50.4 877.7 50.9 877.9 52.6C878 53.5 878.4 53.9 879.3 53.7C880.2 53.3 881.8 53.9 881.7 51.9ZM884.4 48.8C884.2 49.1 884 49.4 883.9 49.7C883.8 49.9 886.4 52.9 886.6 52.9C886.8 52.9 887 52.7 887.1 52.5C887.4 51.6 885.4 48.7 884.4 48.8ZM907.5 46.6C907.4 46 907.1 45.8 906.6 45.8C906.2 45.9 905.7 46.1 905.8 46.7C905.9 47 906.3 47.2 906.6 47.2C907 47.2 907.4 47.2 907.5 46.6Z" />
			<path id="Layer" fill-rule="evenodd" class="shp0" d="M756.9 45.7C756.9 45.8 756.9 45.8 756.9 45.7C756.8 45.8 756.8 45.8 756.8 45.8L756.9 45.7Z" />
			<path id="Layer" fill-rule="evenodd" class="shp0" d="M933.5 53.1L933.5 53.1L933.6 53.2C933.6 53.2 933.6 53.2 933.7 53.1C933.6 53.2 933.6 53.1 933.5 53.1L933.5 53.1Z" />
			<path id="Layer" fill-rule="evenodd" class="shp0" d="M1020 48.4C1019 48.9 1018.3 48.1 1017.5 47.7C1015.1 46.4 1012.7 45.8 1010.4 48.1C1010.1 48.5 1009.7 48.5 1009.2 48.4C1006.1 47.3 1006 47.3 1003.6 48.4L1003.6 48.4C1004.8 47.9 1005.9 47.7 1007 48.9C1005.9 48.7 1004.7 48.5 1003.6 48.4L1003.5 48.4L1003.6 48.4L1003.6 48.4C1002 47 1000.2 47.6 998.5 47.6C997.5 50.2 995.9 48.9 994.3 48.9C992.3 48.9 990.4 48.1 988.4 48C986.8 47.9 986.1 50.6 984.6 49.7C983.3 48.9 982.1 48.3 980.6 48.3C977.9 48.2 975.2 48.8 972.5 49C968.8 49.2 964.9 49.1 961.1 49.2C960.3 49.2 959.5 49.3 958.8 49C957.5 48.4 958.3 51.1 957 50.4C954.8 49.1 952.5 49.8 950.2 49.5C946.6 49 943.2 49.2 939.6 50C937.2 50.5 935.2 51.2 933.5 53.1C934.5 53.3 935.6 53.8 936.6 53.6C942.4 52.6 948.1 51.8 953.9 52.3C957.1 52.5 960.2 51.8 963.4 51.6C967.9 51.4 972.4 51.4 976.9 51.6C978.9 51.7 980.9 50.5 982.6 51C986.9 52.2 991 50.7 995.1 50.6C1000.6 50.5 1006.1 49.9 1011.6 49.9C1011.9 49.9 1012.4 49.9 1012.5 49.7C1012.9 49 1013 47.9 1013.9 47.7C1015.2 47.5 1014.5 49.1 1015 49.6C1015.1 49.8 1015.4 49.9 1015.6 49.9C1018.2 49.7 1020.9 50.7 1023.4 49C1022 47.3 1022 47.3 1020 48.4Z" />
			<path id="Layer" fill-rule="evenodd" class="shp0" d="M1089.9 55.4C1089.2 54.9 1088.4 54.9 1087.6 55.1C1086.8 55.4 1086 55.6 1085 55.5C1082.4 55.3 1079.9 55.2 1077.2 55.8C1074.1 56.5 1070.9 55.1 1067.8 56.5C1067.7 56.5 1067.6 56.4 1067.5 56.4C1066 55.2 1064.5 56 1063 56.6C1062.4 56.9 1061.7 57.4 1061.1 57C1058.1 54.9 1054.9 55.4 1051.5 55.7C1049 55.9 1046.3 55.3 1044 56.4C1041.6 57.5 1039.2 57.9 1036.7 57.4C1036.7 57.8 1036.7 58.1 1036.7 58.5C1039.4 58.7 1042.1 59.1 1044.8 59C1052.6 58.6 1060.4 58.3 1068.3 58.5C1070.3 58.5 1072.2 58.4 1074.2 58.5C1079.4 58.7 1084.5 58.5 1089.6 57.9C1090.2 57.8 1090.7 57.8 1090.8 56.9C1090.9 56.1 1090.4 55.7 1089.9 55.4Z" />
			<path id="Layer" fill-rule="evenodd" class="shp0" d="M1039.2 3.6C1040.2 1.5 1041.5 2.3 1042.6 2.7C1043.7 3.1 1044.8 3.9 1045.8 3.1C1047 2.2 1048.1 2.6 1049.3 2.6C1051 2.7 1052.7 3.6 1054.3 1.9C1054.5 1.7 1055 1.6 1055.3 1.7C1058.9 2.3 1062.6 1.2 1066.2 2.4C1067.4 2.8 1068.7 3.4 1070.1 3C1073.5 2 1077 1.6 1080.6 1.7C1078.1 0.2 1075.4 0.5 1072.7 0.4C1068 0.2 1063.3 1.4 1058.7 0.8C1052.5 0 1046.4 1.8 1040.3 0.8C1036.7 0.2 1032.8 0.3 1029 0.5C1027.7 0.5 1026.2 0.3 1025.1 1.1C1023.7 2 1022.4 2.5 1020.5 1C1021.3 2.8 1022.6 2.6 1023.2 3.6C1023.5 4.2 1024.7 4.2 1025.4 3.7C1029 1 1032.7 2.5 1036.4 3.6C1037.3 4 1038.7 4.8 1039.2 3.6Z" />
			<path id="Layer" fill-rule="evenodd" class="shp0" d="M756.9 45.7L756.8 45.8C756.9 45.8 756.9 45.8 756.9 45.7C756.9 45.8 756.9 45.7 756.9 45.7Z" />
			<path id="Layer" fill-rule="evenodd" class="shp0" d="M760.6 49.9C761.1 50.2 761.8 50.1 761.5 49C761.3 48.5 759.9 48.1 761.6 47.8C763.5 47.5 765.4 47.4 766.9 49.3C765.6 46.3 765.6 46.3 768.3 46C769.5 45.8 770.7 45.7 771.7 46.9C772.2 47.5 772.9 47.6 773.1 47.1C773.7 45 775.7 46.6 776.6 45.2C777 44.5 777.8 45.1 778.3 45.7C778.6 46.2 778.9 46.7 779.3 47.2C779.5 47.5 779.9 47.5 780.2 47.2C780.5 46.9 780.3 46.5 780.2 46.2C780 45.3 778.4 45.5 778.9 43.9C780 43.5 781.2 43.1 782.4 42.7C780.8 41.7 778.9 41.7 777.7 42.4C775.5 43.8 773.5 42.7 771.4 42.8C770.7 42.8 770.1 42.3 769.5 42.4C765.3 43.4 760.8 43.1 756.9 45.8C757.6 47.7 759.1 48.9 760.6 49.9Z" />
			<path id="Layer" fill-rule="evenodd" class="shp0" d="M826.4 14.5C828.6 12.8 830.8 13.3 832.9 12.9C837.2 12.2 841.7 13.2 846.1 11.8C847.4 11.4 848.9 11.1 850.4 11.7C851.2 12.1 852 11.7 852.6 10.9C851.3 9.9 850 10 848.9 10C845.1 10 841.4 10.7 837.7 11.3C835.6 11.6 833.5 12.1 831.4 11.8C829.3 11.4 827.4 11.6 825.6 12.4C824.8 12.7 824.2 12.6 823.4 12.5C821.8 12.3 820.1 12.5 818.4 12.5C817.4 12.5 817.2 13.4 817.1 14.3C818.2 14.3 819.3 14.5 820.3 14.8C822.4 15.4 825 15.7 826.4 14.5Z" />
			<path id="Layer" class="shp0" d="M817 14.3L817 14.3L817 14.3L817 14.3Z" />
			<path id="Layer" fill-rule="evenodd" class="shp0" d="M916.5 61.5C915.2 60.6 913.8 60.4 912.4 60.9C909.9 61.7 907.5 61.8 904.9 61.7C902.7 61.6 900.3 61.6 898.4 63.8C899.5 65.4 901 65.4 902.4 65.4C905.6 65.4 908.7 64.8 911.9 64.6C913.2 64.5 914.4 64 915.8 64.3C916.5 64.4 917.5 64.3 917.7 63.2C917.8 62.2 917.1 61.9 916.5 61.5Z" />
			<path id="Layer" fill-rule="evenodd" class="shp0" d="M788.2 42.6C789.2 45 787.5 44.9 786.4 45.5C785.7 45.9 785.2 46.5 785.3 47.8C787.4 47.6 789.4 46.8 791.2 45.6C792.7 44.5 794.5 44.2 796.1 43.6C797.6 43 799.4 43.4 800.8 44.7C801.6 45.4 802.6 45.5 803 44.2C803.5 42.4 801.6 40.1 800.2 40.8C799.1 41.4 798.3 41.4 797.4 40.8C796.5 40.2 795.6 40.3 794.8 40.6C793.1 41.2 791.4 41.7 789.6 41.6C789 41.5 787.9 41.8 788.2 42.6Z" />
			<path id="Layer" fill-rule="evenodd" class="shp0" d="M1122.4 55.9C1120.2 56.7 1118 56.4 1115.8 56.4C1112.7 56.3 1109.6 55.5 1106.5 56.3C1103.9 57 1101.3 57.8 1098.6 57.1C1103 58.8 1107.5 58.1 1112 58.1C1116.5 58.1 1120.9 58.4 1125.6 57.5C1124.8 55.7 1123.6 55.5 1122.4 55.9Z" />
			<path id="Layer" fill-rule="evenodd" class="shp0" d="M935.3 5.6C935.9 5.6 936.6 5.1 937.1 5.9C938.2 7.6 939.8 7.3 941.4 7.3C943.3 7.3 945.2 7.1 947 7.8C949.7 8.7 949.8 8.7 950.4 4.5C943.4 4.8 936.4 3.4 929.7 6.6C931.7 7.6 933.4 5.6 935.3 5.6Z" />
			<path id="Layer" fill-rule="evenodd" class="shp0" d="M566.5 54.6C565 56.1 563.2 54.4 561.8 55C559 56.2 556 56.1 553.1 56.5C552.7 56.5 552.2 56.7 551.9 56.9C551.4 57.2 551.1 57.8 551.4 58.5C551.7 59.1 552.2 58.7 552.6 58.6C553.4 58.5 554 57.2 555 57.8C556.2 58.6 557.3 58 558.5 58.1C560.6 58.3 562.6 57.1 564.7 57.5C566.5 57.8 568 57.3 569.5 56.6C570.9 56 572.2 55.4 573.6 56.4C574.3 56.9 575.1 56.6 575.7 55.3C572.5 54.5 569.4 55.7 566.5 54.6Z" />
			<path id="Layer" fill-rule="evenodd" class="shp0" d="M964.8 41.5L964.8 41.6C964.8 41.6 964.9 41.6 964.8 41.5L964.8 41.5Z" />
			<path id="Layer" fill-rule="evenodd" class="shp0" d="M946.3 42.6C948.5 44.9 951.4 42.6 953.5 44.6C953.9 44.9 955.4 42.9 956.8 43.1C957.4 44.4 956.3 45.1 955.9 46.2C957.5 46.2 958.9 46.4 960.3 45.8C961 45.4 961.4 44.9 960.6 44.1C960.2 43.7 959.4 43.4 959.8 42.7C960.3 41.8 960.9 42.4 961.6 42.7C962.3 43 962.6 43.7 963.1 44.1C963.8 44.7 964.4 44.6 964.6 43.5C964.7 42.9 964.8 42.3 964.8 41.7C964.6 41.8 964.4 41.9 964.2 41.9C960.1 41.4 955.9 40.8 951.8 42.1C951.2 42.3 950.4 42.1 949.9 41.8C948.5 41 947.5 41.7 946.3 42.6Z" />
			<path id="Layer" fill-rule="evenodd" class="shp0" d="M1011.5 57.9C1008.9 59.1 1006.1 57.6 1003.4 58.5C1002.3 58.9 1001.1 58.5 999.8 58.3C996.5 57.8 993.1 56.1 990 59.2C989.8 59.5 989.1 59.2 989.1 60.2C996.9 59.8 1004.7 60.5 1012.7 59.4C1012.5 58.3 1011.9 57.8 1011.5 57.9Z" />
			<path id="Layer" fill-rule="evenodd" class="shp0" d="M982.9 44.5C983.9 44.3 984.7 43.5 985.2 42.5L985.1 42.6L985.2 42.6C985.2 42.6 985.2 42.5 985.1 42.5C985.8 41.4 986.5 40.9 987.2 42.6C988.9 42.6 990.4 43.7 992.1 44.2C992.9 44.4 993.4 44.5 993.6 43.5C993.8 42 992.5 40.1 991.1 40.2C988.1 40.4 985.2 40.7 982.2 40.6C981.2 40.6 980.5 41.2 980.5 42.4C980.6 43.6 982 44.8 982.9 44.5Z" />
			<path id="Layer" fill-rule="evenodd" class="shp0" d="M347.9 51.3C351.2 52 354.5 51.2 357.8 50.7C362.4 50 367 50.7 371.7 48.8C371.4 48.5 371.4 48.3 371.3 48.3C363.2 48.7 355.2 50.4 347 49.5C346.8 49.5 346.5 49.5 346.4 49.7C346 50.1 346 50.6 346.4 51C346.8 51.5 347.4 51.2 347.9 51.3Z" />
			<path id="Layer" fill-rule="evenodd" class="shp0" d="M901.4 9.3C901.4 8.6 902 8.3 902.6 8.5C903.2 8.8 904 8.7 904.5 8.9C906.4 9.7 907.2 9 907.2 6.8C905.5 6.1 896.8 6.7 893.8 7.7C895.8 8.4 897.7 8.6 899.2 10.2C900.4 11.4 901.6 12 901.4 9.3Z" />
			<path id="Layer" fill-rule="evenodd" class="shp0" d="M285.8 129.1C284.6 128.4 284.1 129.9 283.3 130.5C282.3 131.2 281.7 128 280.6 129.8C279.5 131.5 278.5 130.6 277.4 130.1C276.7 129.8 275.8 128.8 275.4 129.8C274.6 131.7 272.7 131.4 271.3 133.3C277.2 131.3 282.7 132.3 288.3 132C287.1 131.2 286.8 129.7 285.8 129.1Z" />
			<path id="Layer" fill-rule="evenodd" class="shp0" d="M563.5 43.2L563.4 43.2L563.4 43.2C563.4 43.2 563.4 43.2 563.3 43.3C563.4 43.3 563.4 43.3 563.5 43.2C563.5 43.3 563.5 43.3 563.5 43.2Z" />
			<path id="Layer" fill-rule="evenodd" class="shp0" d="M575.5 43.2C574.5 41.7 573.2 42.9 572.2 42.5C571.2 42.1 570.6 40.4 569.2 40.6C569 40.6 568.8 40.5 568.5 40.6C566.9 41 565.5 42.6 563.7 42C563.6 42.5 563.5 42.9 563.4 43.4C565.8 44.2 573.6 44.2 575.5 43.2Z" />
			<path id="Layer" fill-rule="evenodd" class="shp0" d="M807.1 45.3C807.1 45.7 808.2 45.8 808.4 45C809.1 42.4 811.3 41.4 812.7 39C809.6 39.5 806.6 40 803.7 40.5C804 43.1 807.1 42.6 807.1 45.3Z" />
			<path id="Layer" fill-rule="evenodd" class="shp0" d="M964 5.1C967.7 5.3 971.3 3.3 975 3.7C969.2 2.1 963.6 3.5 958.7 4.6C960.1 4.7 961.9 7.3 964 5.1Z" />
			<path id="Layer" fill-rule="evenodd" class="shp0" d="M733.4 31.9C733.5 31.9 733.5 32 733.5 32L733.5 31.9C733.5 31.9 733.5 31.9 733.4 31.9C733.5 31.9 733.5 31.9 733.4 31.9Z" />
			<path id="Layer" fill-rule="evenodd" class="shp0" d="M732.1 29.7C731.7 29.5 731.1 29.5 730.9 29.1C729.8 27.2 728.7 27.4 727.5 28.9C726.9 29.7 726.3 29.7 725.5 29.1C725 28.7 724.3 28.4 723.7 29C723.5 31.8 726.1 30.9 727.1 32.2C727.6 32.8 728.5 32.9 729 32.5C730.3 31.5 731.3 30.3 732.4 32.9C732.5 33.1 733.2 32.4 733.6 31.9C732.6 31.6 732.1 30.8 732.1 29.7Z" />
			<path id="Layer" fill-rule="evenodd" class="shp0" d="M943.4 26.7C944.2 26.6 945.1 26.2 944.8 25.1C944.6 24.2 943.7 24.5 943.1 24.5C941.6 24.5 940 24.5 938.4 24.5C936.7 24.5 935 24.4 933.5 25.5C934.9 25.4 935.6 27.1 937 27.2C939.3 27.5 941.3 26.9 943.4 26.7Z" />
			<path id="Layer" fill-rule="evenodd" class="shp0" d="M933.3 25.5C933.3 25.6 933.3 25.6 933.4 25.7L933.4 25.7L933.4 25.7C933.5 25.7 933.5 25.6 933.6 25.6C933.5 25.5 933.4 25.5 933.3 25.5Z" />
			<path id="Layer" fill-rule="evenodd" class="shp0" d="M242.8 143.8C242.1 143.9 242 144.5 241.9 145.1C241.8 146 242.2 146.6 243 146.7C245.8 146.8 248.6 147.3 250.5 143.9C247.9 142.6 245.3 143.3 242.8 143.8Z" />
			<path id="Layer" fill-rule="evenodd" class="shp0" d="M1170.2 58.8C1169.7 58.9 1169.1 58.7 1168.6 58.4C1166.9 57.3 1165.3 58.1 1163.1 58.4C1168.7 60.4 1173.8 60.4 1179.8 58.7C1176.7 58.7 1173.4 58.3 1170.2 58.8Z" />
			<path id="Layer" fill-rule="evenodd" class="shp0" d="M1062.8 48.1L1062.8 48.1C1062.8 48.1 1062.8 48.2 1062.8 48.1L1062.8 48.1Z" />
			<path id="Layer" fill-rule="evenodd" class="shp0" d="M1062.9 46.1C1062 45.9 1061.6 46.8 1061 47.3C1060.3 48 1059.7 48.5 1059.5 46.9C1059.4 46.5 1058.7 46.3 1058.3 46.6C1057 47.7 1055.5 46.9 1054.1 47.1C1053.7 47.1 1053.2 46.9 1053.1 47.5C1052.8 49.3 1051.4 48.6 1050.5 49.2C1054.7 49.1 1058.8 49.4 1062.9 48.2C1063.1 47.5 1063.4 46.8 1062.9 46.1Z" />
			<path id="Layer" fill-rule="evenodd" class="shp0" d="M973.5 42.3C974.6 43 973.8 44.7 974.7 45.4C975.8 45.7 975.7 44.1 976.6 44.2C977.2 44.2 977.8 44 977.8 43.2C977.8 42.4 977.4 41.7 976.7 41.5C974.9 41 973 40.9 971.2 41.8C970.7 42 970 42.4 970.3 43.5C970.6 44.6 971.4 45.2 972.3 45.1C973.4 45 972.8 44 972.8 43.4C972.8 42.9 972.9 42.4 973.5 42.3Z" />
			<path id="Layer" fill-rule="evenodd" class="shp0" d="M925.6 60.5C924.9 60.6 924.2 61 923.7 60.8C921.4 60 920.4 61.3 919.5 63.7C921.4 64.2 923 63.2 924.7 63.7C925.5 64 926.2 63.3 926.7 62.6C927.1 62.1 927.1 61.4 926.8 60.8C926.5 60.3 926 60.4 925.6 60.5Z" />
			<path id="Layer" fill-rule="evenodd" class="shp0" d="M1029.7 56.9C1026.5 58.1 1022.9 56.6 1019.9 59.1C1022.7 58.2 1025.3 59.2 1028 59.3C1029.3 59.4 1030.9 59.8 1032 58.3C1031.4 57.1 1030.2 56.7 1029.7 56.9Z" />
			<path id="Layer" fill-rule="evenodd" class="shp0" d="M830 33.7C827.5 32.8 827.5 32.8 824.8 33.3C824.3 33.4 823.7 33.1 823.2 33C822.1 33 821 33 819.9 33C819.4 33 819 33.2 819 33.8C819 34.4 819.6 34.6 820 34.7C821.3 34.8 822.6 34.6 823.9 34.7C825.7 34.8 827.6 34.8 830 33.7Z" />
			<path id="Layer" fill-rule="evenodd" class="shp0" d="M1005.6 43.8C1006.6 43.7 1008.1 45 1008.4 42.5C1008.5 41.6 1009.3 41.5 1009.9 41.4C1010.6 41.3 1011.2 41.2 1011.2 39.8C1009 39.8 1007 39.8 1004.9 39.8C1005.3 40.8 1005.5 41.5 1004.9 42.3C1004.6 43.1 1005 43.9 1005.6 43.8Z" />
			<path id="Layer" fill-rule="evenodd" class="shp0" d="M815.9 45.4C817.5 45.3 817.7 43.5 818.6 42.7C820 41.6 818.9 40.5 818.2 40C817.1 39.2 815.7 41.2 814.4 40C814.4 40 814.1 40.6 814.2 41C814.8 42.4 815.4 43.9 815.9 45.4Z" />
			<path id="Layer" fill-rule="evenodd" class="shp0" d="M826.7 41.4C828.2 42 829.2 41.1 830.2 40.3C828.8 38.5 827.6 37.9 826 38.2C824.3 38.6 823.9 40.1 824.9 42.3C825.1 40.9 826.2 41.2 826.7 41.4Z" />
			<path id="Layer" fill-rule="evenodd" class="shp0" d="M585.3 42.3C585.3 43.5 586.2 43 586.8 42.9C589.3 42.7 591.7 41.7 594 40.5C591.6 40.5 589.2 40.5 586.8 40.5C585.7 40.6 585.3 41.5 585.3 42.3Z" />
			<path id="Layer" fill-rule="evenodd" class="shp0" d="M275 45.7C271.9 46.4 268.7 45.1 265.1 47.2C271.3 47.9 273 47.6 275 45.7Z" />
			<path id="Layer" fill-rule="evenodd" class="shp0" d="M844.2 31C842.6 31.1 841 31.4 838.9 31.7C840.6 34.3 842.6 32.6 844.2 33.3C844.8 33.5 845.7 33.4 845.7 32.4C845.6 31.3 844.8 30.9 844.2 31Z" />
			<path id="Layer" fill-rule="evenodd" class="shp0" d="M802.2 35.9C802.4 35.8 802.8 35.4 802.8 35.1C802.9 34.5 802.5 34.2 802 34.2C799.7 34.3 797.5 34.7 795.2 36.5C798 37.4 800.1 36.4 802.2 35.9Z" />
			<path id="Layer" fill-rule="evenodd" class="shp0" d="M1032.6 39.2C1031.9 39.1 1031.1 39 1030.2 39.6C1030.4 40.4 1030.5 41.2 1030.7 42C1031.1 43.5 1032 42.9 1032.8 42.8C1034.3 42.7 1033.6 41.3 1033.8 40.5C1034.4 39 1033.2 39.2 1032.6 39.2Z" />
			<path id="Layer" fill-rule="evenodd" class="shp0" d="M855.4 11.8C857.5 11.3 859.7 11.4 862.2 9.5C859.3 9 857.3 10.2 855.2 10C854.7 10 854.4 10.3 854.5 11C854.6 11.5 855 11.9 855.4 11.8Z" />
			<path id="Layer" fill-rule="evenodd" class="shp0" d="M613.9 50.7C613.6 50.8 613.2 50.9 612.9 51C611.7 50.6 610.6 51.3 609.4 51.4C608.9 51.4 608.5 51.9 608.8 52.4C609 52.8 609.4 53.1 609.8 53.3C610 53.4 610.5 53.2 610.7 53C611.6 51.5 612.9 52.2 614.1 52.2C614.6 52.2 615.3 53.2 615.7 52C615.8 51.8 615.8 51.5 615.7 51.3C615.2 50.5 614.6 50.5 613.9 50.7Z" />
			<path id="Layer" fill-rule="evenodd" class="shp0" d="M968.7 58C968 57.9 967.1 57.7 966.9 58.5C966.4 60.6 964.7 60.1 963.1 60.7C965.1 61.8 966.6 61.6 968.2 61.1C969.2 60.8 969.1 59.8 969.3 59C969.4 58.5 969.2 58.1 968.7 58Z" />
			<path id="Layer" fill-rule="evenodd" class="shp0" d="M250.1 56.8C253.6 56.3 256.7 55.8 260.6 55.2C257.1 54.6 251.7 55.4 250.1 56.8Z" />
			<path id="Layer" fill-rule="evenodd" class="shp0" d="M851.9 31.8C853.8 32.5 855.6 33.1 857.6 31.5C855 30.4 855 30.4 851.9 31.8Z" />
			<path id="Layer" fill-rule="evenodd" class="shp0" d="M641.8 19.6C643.2 19.5 644.7 20.2 646.3 19C644.8 17.2 643.4 17.2 641.8 17.6C641.3 17.7 641 18.1 641 18.6C640.9 19.3 641.3 19.6 641.8 19.6Z" />
			<path id="Layer" fill-rule="evenodd" class="shp0" d="M738 31.3C737.1 30.3 735.7 30.4 734.8 29.2C734.1 28.3 733 28.6 732.3 29.6C733.4 29.9 733.6 30.8 733.6 31.9C735 32 736.5 32.5 738 31.3Z" />
			<path id="Layer" fill-rule="evenodd" class="shp0" d="M732.3 29.6C732.2 29.6 732.2 29.6 732.2 29.6C732.2 29.6 732.2 29.6 732.2 29.7C732.2 29.7 732.2 29.7 732.3 29.6C732.2 29.7 732.2 29.6 732.3 29.6Z" />
			<path id="Layer" fill-rule="evenodd" class="shp0" d="M1126.8 1.4C1126.8 1.7 1126.8 1.9 1126.8 2.2C1129.7 2.2 1132.6 2.2 1135.5 2.2C1132.7 0.9 1129.7 2 1126.8 1.4Z" />
			<path id="Layer" fill-rule="evenodd" class="shp0" d="M781.8 44.4C782.4 45 783.4 45.9 784.4 45.1C785 44.6 785.8 44 785.6 43.1C785.4 41.9 784.5 42.2 783.7 42.4C783.3 42.5 782.9 42.6 782.4 42.7C782.2 43.2 781.3 43.9 781.8 44.4Z" />
			<path id="Layer" fill-rule="evenodd" class="shp0" d="M782.5 42.6C782.5 42.6 782.6 42.6 782.5 42.6L782.5 42.6L782.5 42.6L782.5 42.6L782.5 42.6C782.5 42.5 782.4 42.6 782.4 42.6L782.5 42.6C782.5 42.7 782.5 42.7 782.5 42.6Z" />
			<path id="Layer" fill-rule="evenodd" class="shp0" d="M817.2 34.7C817.2 33.8 816.5 33.5 815.8 33.4C814.9 33.3 813.9 33.4 812.9 33.4C813.1 35.8 814.6 35.1 815.7 35.4C816.3 35.6 817.2 35.8 817.2 34.7Z" />
			<path id="Layer" fill-rule="evenodd" class="shp0" d="M699.3 34.6C700.2 35.7 701 35.4 702.2 34.4C700.9 33.6 699.8 32.6 699.5 30.2C698.1 32.4 698.4 33.5 699.3 34.6Z" />
			<path id="Layer" fill-rule="evenodd" class="shp0" d="M833.6 40.6C834.3 41 835 41.3 836 41.1C836.2 39.9 835.7 39.2 835.3 38.5C834.7 37.5 833.7 38 832.9 38.1C832.7 38.1 832.5 38.4 832.5 38.6C832.4 39.5 832.9 40.1 833.6 40.6Z" />
			<path id="Layer" fill-rule="evenodd" class="shp0" d="M1074.1 39.3C1076.7 41.5 1079.1 39.1 1081.5 39.6C1079.1 38.4 1076.7 38.8 1074.1 39.3Z" />
			<path id="Layer" fill-rule="evenodd" class="shp0" d="M811.5 34.7C809.2 35.1 806.9 33.9 804.2 34.8C806.9 35.3 809.2 36.2 811.5 34.7Z" />
			<path id="Layer" fill-rule="evenodd" class="shp0" d="M1147.3 58.7C1149.9 58.6 1151.8 59.6 1153.9 58.7C1151.8 59 1149.9 56.4 1147.3 58.7Z" />
			<path id="Layer" fill-rule="evenodd" class="shp0" d="M936.6 60.3C935.4 60.5 935.6 61.7 935.5 63.5C937.1 62.7 938.3 62.6 940.1 62.9C938.8 61.4 938.2 60 936.6 60.3Z" />
			<path id="Layer" fill-rule="evenodd" class="shp0" d="M1016.7 43.5C1018 43.4 1019.3 42.1 1019.2 41.1C1019.1 40.4 1018.7 40.4 1018.2 40.4C1016.8 40.5 1015.5 41.7 1015.7 42.7C1015.8 43.2 1016.2 43.5 1016.7 43.5Z" />
			<path id="Layer" fill-rule="evenodd" class="shp0" d="M945.2 62.2C947.5 62.6 949.8 62.7 951.9 61.5C949.7 60.9 947.4 61.5 945.2 62.2Z" />
			<path id="Layer" fill-rule="evenodd" class="shp0" d="M395.4 45.4C396.8 45.6 398.2 45.7 399.6 45.8C398.7 45.2 397.8 45 397.3 43.9C397 43.3 396.4 43.2 395.9 43.2C395.3 43.2 394.5 43.1 394.4 44.1C394.4 44.8 394.9 45.3 395.4 45.4Z" />
			<path id="Layer" fill-rule="evenodd" class="shp0" d="M1002.2 3.9C1002.8 3.7 1003.2 3 1004 3.4C1004.7 3.7 1005.4 3.7 1005.4 2.6C1005.4 1.7 1004.7 1.4 1003.3 1.7C1003.4 1.7 1002.7 1.8 1002 1.8C1001.4 1.8 1000.8 2 1001 2.8C1001.2 3.4 1001.7 4 1002.2 3.9Z" />
			<path id="Layer" fill-rule="evenodd" class="shp0" d="M995.8 1.6C994.3 1.8 992.7 1.9 990.5 2.2C992.9 4 994.4 3.3 995.8 1.6Z" />
			<path id="Layer" fill-rule="evenodd" class="shp0" d="M979.7 4.3C980.1 4.1 980.3 3.5 980.1 3C979.3 1.7 978.1 2.4 977.1 2.6C977 2.6 976.9 3 976.5 3.4C977.4 4.3 978.3 5.1 979.7 4.3Z" />
			<path id="Layer" fill-rule="evenodd" class="shp0" d="M256.9 143.8C258.6 145 260 145.7 261 143C259.5 142.7 258.3 143.6 256.9 143.8Z" />
			<path id="Layer" fill-rule="evenodd" class="shp0" d="M236.7 145.9C237.3 145.8 238.1 146.1 238.1 144.9C238.1 144.4 238 143.8 237.5 143.8C236.8 143.8 235.9 143.3 235.7 144.5C235.6 144.9 235.6 145.4 235.6 145.9C235.9 145.9 236.3 145.9 236.7 145.9Z" />
			<path id="Layer" fill-rule="evenodd" class="shp0" d="M235.5 145.9C235.5 145.9 235.4 145.9 235.5 145.9C235.4 145.9 235.4 146 235.4 146C235.4 145.9 235.4 145.9 235.5 145.9L235.5 145.9Z" />
			<path id="Layer" fill-rule="evenodd" class="shp0" d="M415.9 44.3C416.2 44.1 416.1 43.5 415.9 43.3C414.8 42 414.1 43.1 413.3 43.9C414.1 44.7 415 45 415.9 44.3Z" />
			<path id="Layer" fill-rule="evenodd" class="shp0" d="M336 52.7C336.2 52.4 336.2 52.2 335.9 52.1C334.9 52.1 333.8 51.6 332.5 52.7C333.8 53.4 334.8 53.5 336 52.7Z" />
			<path id="Layer" fill-rule="evenodd" class="shp0" d="M887.6 65.9C889.2 66.5 890.4 66.2 892 64.4C890.1 64.5 888.7 63.9 887.6 65.9Z" />
			<path id="Layer" fill-rule="evenodd" class="shp0" d="M967.5 24.3C968.5 24.9 969.5 25.1 970.6 24.3C968.9 23.1 968.9 23.1 967.5 24.3Z" />
			<path id="Layer" class="shp0" d="M817 14.3L817 14.3L817 14.3L817 14.3Z" />
			<path id="Layer" fill-rule="evenodd" class="shp0" d="M817 14.3C815.5 12.7 814 13.2 812.6 14C813.9 16.4 815.5 13.7 817 14.3Z" />
			<path id="Layer" fill-rule="evenodd" class="shp0" d="M1001.8 41.6C1002 41.6 1002 41.2 1002.2 40.9C1001.4 39.8 1000.6 40 999.8 40.9C999.6 41.1 999.6 41.6 999.8 41.9C1000.5 42.7 1001.1 41.8 1001.8 41.6Z" />
			<path id="Layer" fill-rule="evenodd" class="shp0" d="M926.8 26.6C925.8 25.9 925 25.1 923.9 25.8C923.8 25.9 923.7 26.3 923.8 26.4C924.6 27.7 925.5 27.4 926.8 26.6Z" />
			<path id="Layer" fill-rule="evenodd" class="shp0" d="M1105.4 39.4C1106.4 39.6 1106.8 41 1107.8 41.4C1108.3 38.1 1106.7 39.1 1105.4 39.4Z" />
			<path id="Layer" fill-rule="evenodd" class="shp0" d="M1028.2 48.1C1028.1 48.7 1028.3 49.1 1028.8 49.2C1029.5 49.3 1029.8 48.8 1030 48.2C1029.9 47.7 1030.1 47 1029.5 46.9C1028.7 46.6 1028.3 47.3 1028.2 48.1Z" />
			<path id="Layer" fill-rule="evenodd" class="shp0" d="M907.3 54.3C907.6 54.4 907.9 54 907.9 53.6C907.9 52.6 907.6 51.8 906.7 51.7C906.1 51.7 906.2 52.3 906.4 52.8L906.3 52.5C906.2 52.6 906.2 52.6 906.1 52.7C906.2 52.7 906.3 52.7 906.4 52.7C906.4 53.5 906.6 54.1 907.3 54.3Z" />
			<path id="Layer" fill-rule="evenodd" class="shp0" d="M675.9 33.3C676 33.9 676.4 33.9 676.8 34C677.3 34.1 678 34.5 678.1 33.7C678.3 32.5 677.4 32.8 676.8 32.7C676.5 32.6 676 32.7 675.9 33.3Z" />
			<path id="Layer" fill-rule="evenodd" class="shp0" d="M973.9 60.7C975.3 61.1 976.3 61.1 977.5 59.7C975.7 58.6 975.2 60.5 973.9 60.7Z" />
			<path id="Layer" fill-rule="evenodd" class="shp0" d="M290.8 44.8C289.6 43.4 288.7 44 287.8 45.3C289 45.7 289.9 45.5 290.8 44.8Z" />
			<path id="Layer" fill-rule="evenodd" class="shp0" d="M837.6 32.1C837.6 31.7 837.3 31.5 836.8 31.5C836.1 31.5 835.7 32.1 835.6 32.9C835.5 33.4 835.8 33.7 836.2 33.5C836.9 33.3 837.6 33 837.6 32.1Z" />
			<path id="Layer" fill-rule="evenodd" class="shp0" d="M682.7 32.6C682.6 32.6 682.6 32.6 682.5 32.5L682.7 32.6C682.7 32.7 682.7 32.7 682.7 32.6Z" />
			<path id="Layer" fill-rule="evenodd" class="shp0" d="M685.9 32.9C686 32.5 685.7 32.2 685.4 32.1C684.4 31.7 683.6 32.1 682.7 32.6C683.6 32.9 684.4 33.3 685.3 33.5C685.4 33.6 685.8 33.2 685.9 32.9Z" />
			<path id="Layer" fill-rule="evenodd" class="shp0" d="M931 26.7C931.7 27.3 932.5 27.4 933.1 27.2C934.1 27 933.5 26.2 933.3 25.7C932.8 26.3 931.7 25.5 931 26.7Z" />
			<path id="Layer" fill-rule="evenodd" class="shp0" d="M927.8 7.2C927.9 7.1 928 6.6 927.9 6.5C927.2 5.7 926.2 6.5 925.4 6.2C925.4 6.2 925.3 6.3 924.9 6.6C926 7.2 926.8 8.2 927.8 7.2Z" />
			<path id="Layer" fill-rule="evenodd" class="shp0" d="M994.5 40.6C994.6 41.9 994.3 42.8 995.1 43.4C995.2 43.5 995.6 43.4 995.7 43.3C996.3 42.2 995.9 41.4 994.5 40.6Z" />
			<path id="Layer" fill-rule="evenodd" class="shp0" d="M240.5 49C239.4 48.8 238.7 49.1 238.6 51C239.5 50.3 240.6 50.6 240.5 49Z" />
			<path id="Layer" fill-rule="evenodd" class="shp0" d="M319.6 53.6C318.4 53.1 317.5 53.7 316.5 53.8C317.5 54.4 318.6 55.2 319.6 53.6Z" />
			<path id="Layer" fill-rule="evenodd" class="shp0" d="M1044.6 49.6C1045.7 48.7 1046.9 49.2 1047.2 46.9C1046.3 47.8 1045.1 47.6 1044.6 49.6Z" />
			<path id="Layer" fill-rule="evenodd" class="shp0" d="M203.7 60.6C203.6 60.6 203.6 60.6 203.7 60.6L203.7 60.6C203.6 60.6 203.6 60.6 203.7 60.6C203.6 60.6 203.6 60.6 203.7 60.6C203.6 60.6 203.6 60.6 203.7 60.6Z" />
			<path id="Layer" fill-rule="evenodd" class="shp0" d="M208.8 59.9C207.1 60.1 205.4 60.3 203.7 60.6C205.4 61.6 207.1 60.9 208.8 59.9Z" />
			<path id="Layer" fill-rule="evenodd" class="shp0" d="M680.3 35.2C681.8 34.9 682.8 34.6 682.6 32.7C681.5 33 680.6 33.5 680.3 35.2Z" />
			<path id="Layer" fill-rule="evenodd" class="shp0" d="M682.7 32.7L682.6 32.6C682.6 32.7 682.6 32.7 682.6 32.7C682.6 32.7 682.6 32.7 682.7 32.7Z" />
			<path id="Layer" fill-rule="evenodd" class="shp0" d="M1139.3 57.8C1139.9 58.2 1140.4 58.5 1141.3 57.8C1140.4 57.6 1139.8 57.3 1139.3 57.8Z" />
			<path id="Layer" fill-rule="evenodd" class="shp0" d="M793 36.9C793.6 36.9 794 36.6 794.2 35.9C794.2 35.2 793.8 35.1 793.3 35.1C792.8 35.1 792.4 35.3 792.3 35.9C792.2 36.4 792.5 36.8 793 36.9Z" />
			<path id="Layer" fill-rule="evenodd" class="shp0" d="M673.1 34.7C673 35.3 673.3 35.6 673.8 35.7C674.2 35.7 674.7 35.6 674.7 34.9C674.7 34.4 674.5 34 674 33.9C673.4 33.7 673.1 34.1 673.1 34.7Z" />
			<path id="Layer" fill-rule="evenodd" class="shp0" d="M988.3 44C988.1 43.2 987.6 43 987.2 42.7C986.6 42.7 985.9 42.7 985.3 42.7C985.9 44.4 987.1 44.1 988.3 44Z" />
			<path id="Layer" fill-rule="evenodd" class="shp0" d="M987.2 42.7C987.3 42.7 987.3 42.7 987.2 42.7C987.3 42.7 987.3 42.7 987.2 42.7C987.2 42.7 987.2 42.6 987.2 42.7L987.2 42.7Z" />
			<path id="Layer" fill-rule="evenodd" class="shp0" d="M1084.7 48.4C1085.1 48.5 1085.5 48.4 1085.9 48.5C1086 47.7 1085.4 47.7 1085.2 47.4C1085 47.1 1084.9 46.3 1084.3 46.8C1084.1 46.9 1084 47.2 1084 47.4C1083.9 48 1084.2 48.4 1084.7 48.4Z" />
			<path id="Layer" fill-rule="evenodd" class="shp0" d="M1022.1 42.9C1022.2 42.4 1022.1 41.9 1021.6 41.7C1021 41.4 1020.5 41.6 1020.4 42.4C1020.3 42.9 1020.6 43.4 1021 43.5C1021.5 43.6 1021.9 43.4 1022.1 42.9Z" />
			<path id="Layer" fill-rule="evenodd" class="shp0" d="M1062.8 48.1L1062.8 48.1C1062.8 48.2 1062.8 48.2 1062.8 48.1L1062.8 48.1Z" />
			<path id="Layer" fill-rule="evenodd" class="shp0" d="M1065.5 48C1065.6 47.9 1065.6 47.4 1065.5 47.3C1064.6 46.3 1064 47.7 1063.3 47.8C1063.1 47.8 1063 48 1062.9 48.2C1063.8 49.4 1064.7 48.8 1065.5 48Z" />
			<path id="Layer" fill-rule="evenodd" class="shp0" d="M582.3 41.6C582 41.7 581.8 42 581.5 42.3C581.8 43 582.4 43.2 582.9 43.2C583.3 43.2 583.6 43 583.5 42.5C583.4 41.7 583 41.3 582.3 41.6Z" />
			<path id="Layer" fill-rule="evenodd" class="shp0" d="M1032.4 48.3C1033.4 49.3 1034.4 49.4 1035.5 49C1034.6 48.7 1033.7 47.9 1032.4 48.3Z" />
			<path id="Layer" fill-rule="evenodd" class="shp0" d="M1051.1 40.6L1051.1 40.5C1051 40.5 1051 40.5 1051.1 40.6L1051.1 40.6C1051 40.5 1051 40.6 1051 40.6C1051 40.6 1051 40.6 1051.1 40.6Z" />
			<path id="Layer" fill-rule="evenodd" class="shp0" d="M1049.1 41.5C1049.2 41.8 1049.7 41.9 1050 41.9C1050.6 41.8 1050.7 41.1 1051 40.6C1050.6 40.6 1050.2 40.6 1049.8 40.6C1049.3 40.7 1048.8 40.8 1049.1 41.5Z" />
			<path id="Layer" fill-rule="evenodd" class="shp0" d="M880.4 9.1C880.6 8.9 880.5 8.6 880.3 8.5C879.6 8.3 879 8.4 878.4 8.8C878.3 8.9 878.3 9 878.1 9.3C878.4 9.4 878.5 9.5 878.5 9.5C879.2 9.4 879.9 9.7 880.4 9.1Z" />
			<path id="Layer" fill-rule="evenodd" class="shp0" d="M1017 23.6C1017.4 23.6 1017.7 23.4 1017.5 22.9C1017.3 22.4 1016.8 22.3 1016.4 22.2C1016 22.2 1015.7 22.5 1015.8 22.9C1016 23.6 1016.5 23.6 1017 23.6Z" />
			<path id="Layer" fill-rule="evenodd" class="shp0" d="M870.3 30.8C870.8 30.8 871.2 30.4 871 29.9C870.9 29.6 870.5 29.5 870.4 29.4C869.9 29.4 869.6 29.7 869.7 30.1C869.7 30.6 870 30.9 870.3 30.8Z" />
			<path id="Layer" fill-rule="evenodd" class="shp0" d="M870.3 39.8C869.5 40.1 868.3 38.8 867.6 40.5C868.8 41.3 869.5 40.3 870.3 39.8Z" />
			<path id="Layer" fill-rule="evenodd" class="shp0" d="M834.1 32.2C833.9 32 833.7 31.6 833.4 31.6C832.9 31.5 832.2 31.6 832 32.2C831.8 32.8 832.2 33 832.7 33C833.3 32.9 833.8 32.9 834.1 32.2Z" />
			<path id="Layer" fill-rule="evenodd" class="shp0" d="M875.1 29.3C875.2 30.1 875.7 30.3 876.3 30.2C876.5 30.1 876.8 29.9 876.8 29.8C876.7 29 876.1 28.9 875.6 28.9C875.4 28.9 875.1 29.2 875.1 29.3Z" />
			<path id="Layer" fill-rule="evenodd" class="shp0" d="M1088.5 2C1088.6 1.9 1088.7 1.5 1088.7 1.4C1088.1 0.7 1087.5 1.1 1086.1 1.5C1087.3 2 1087.8 2.5 1088.5 2Z" />
			<path id="Layer" fill-rule="evenodd" class="shp0" d="M463.8 39.2C462.5 38.9 461.6 38.7 460.4 38.4C461.5 39.9 462.4 39.8 463.8 39.2Z" />
			<path id="Layer" fill-rule="evenodd" class="shp0" d="M885.7 29.2C885.8 29.2 885.9 28.8 885.9 28.6C885.6 28.1 885.2 28.2 884.8 28.3C884.5 28.3 884.1 28.6 884.3 29C884.6 29.6 885.2 29.3 885.7 29.2Z" />
			<path id="Layer" fill-rule="evenodd" class="shp0" d="M754.7 28.6C754.7 29.2 754.7 29.8 755.3 30.1C755.7 30 755.9 29.8 755.9 29.4C755.9 28.9 755.7 28.4 755.3 28.1C755 27.9 754.7 28.2 754.7 28.6Z" />
			<path id="Layer" fill-rule="evenodd" class="shp0" d="M1120.3 40.1C1120.5 39.9 1121.2 39.9 1121.1 39.4C1121.1 38.8 1120.5 39 1120.1 38.9C1119.8 38.9 1119.4 38.9 1119.4 39.3C1119.3 39.9 1119.7 40.1 1120.3 40.1Z" />
			<path id="Layer" fill-rule="evenodd" class="shp0" d="M964.8 41.5C964.8 41.5 964.9 41.6 964.8 41.5C964.9 41.6 964.9 41.5 964.9 41.5C964.9 41.6 964.9 41.5 964.8 41.5Z" />
			<path id="Layer" fill-rule="evenodd" class="shp0" d="M968.4 42.1C967.2 40.2 966 41.3 964.9 41.6C966 42 967 42.5 968.4 42.1Z" />
			<path id="Layer" fill-rule="evenodd" class="shp0" d="M744.8 28.5C744.7 28.9 745.1 29.2 745.4 29.2C745.9 29.3 746.3 29 746.4 28.6C746.4 28 746.1 27.8 745.8 27.7C745.3 27.7 744.9 28 744.8 28.5Z" />
			<path id="Layer" fill-rule="evenodd" class="shp0" d="M1189.4 59.3C1189.3 59 1188.9 58.9 1188.4 59C1188.1 59.1 1187.8 59.5 1188.1 59.7C1188.4 60 1188.9 60 1189.3 60C1189.5 60 1189.6 59.8 1189.4 59.3Z" />
			<path id="Layer" fill-rule="evenodd" class="shp0" d="M883.1 66C884 66.1 884.7 66.6 885.1 65.5C884.5 65.1 883.9 65 883.1 66Z" />
			<path id="Layer" fill-rule="evenodd" class="shp0" d="M1070.1 48.2C1070.8 48.7 1071.4 47.7 1071.8 46.6C1071.1 46.8 1070.8 46.9 1070.6 47C1070.2 47.3 1069.4 47.8 1070.1 48.2Z" />
			<path id="Layer" fill-rule="evenodd" class="shp0" d="M262.8 48C263.3 47.8 263.9 47.8 263.9 46.9C263.9 46.7 263.4 46.5 263.1 46.6C262.7 46.6 262.2 46.8 262.1 47.4C262.1 47.9 262.5 48 262.8 48Z" />
			<path id="Layer" fill-rule="evenodd" class="shp0" d="M1039 48.6C1039.7 49.1 1040.5 49.5 1041.8 49C1040.2 48.1 1040.2 48.1 1039 48.6Z" />
			<path id="Layer" fill-rule="evenodd" class="shp0" d="M1009.3 18.9C1009.7 19 1010.2 19 1010.6 18.6C1010.4 18.4 1010.2 18 1009.9 17.9C1009.5 17.7 1009 17.8 1008.8 18.3C1008.6 18.8 1009 18.8 1009.3 18.9Z" />
			<path id="Layer" fill-rule="evenodd" class="shp0" d="M913.1 7.2C912.7 6.8 912.3 6.1 911.6 6.3C911.5 6.3 911.3 6.7 911.3 6.8C911.7 7.5 912.3 7.6 913.1 7.2Z" />
			<path id="Layer" fill-rule="evenodd" class="shp0" d="M876.1 10C875.3 9.4 874.9 9.1 874.3 9.5C874.2 9.6 874.1 10 874.1 10.1C874.7 10.8 875.3 10.5 876.1 10Z" />
			<path id="Layer" fill-rule="evenodd" class="shp0" d="M946.8 26.7C947.2 26.6 947.7 26.5 948 26.2C948.2 25.9 947.7 25.7 947.4 25.6C947 25.6 946.5 25.6 946.3 26.1C946.1 26.5 946.4 26.8 946.8 26.7Z" />
			<path id="Layer" fill-rule="evenodd" class="shp0" d="M803.7 52.5C803.7 52.9 803.9 53.2 804.3 53.2C804.6 53.2 804.9 52.8 805 52.6C805.1 52.2 804.7 52.1 804.4 52C804 52.1 803.7 52.1 803.7 52.5Z" />
			<path id="Layer" fill-rule="evenodd" class="shp0" d="M1066.2 40.3C1066.5 40.2 1066.8 40 1066.9 39.6C1066.8 39.1 1066.5 39 1066.2 39.1C1065.9 39.1 1065.4 39.3 1065.4 39.5C1065.3 40.1 1065.7 40.4 1066.2 40.3Z" />
			<path id="Layer" fill-rule="evenodd" class="shp0" d="M1093.8 38.8C1093.4 38.8 1092.9 38.6 1092.6 39.2C1092.8 39.8 1093.3 39.7 1093.7 39.9C1094 40 1094.4 40 1094.6 39.6C1094.8 38.8 1094.2 38.8 1093.8 38.8Z" />
			<path id="Layer" fill-rule="evenodd" class="shp0" d="M232.5 51.6C232.9 51.7 233.2 51.5 233.2 51.1C233.3 50.5 232.9 50.2 232.6 50C232.1 49.9 231.8 50 231.8 50.5C231.8 50.9 232 51.4 232.5 51.6Z" />
			<path id="Layer" fill-rule="evenodd" class="shp0" d="M249.6 48.6C249.5 48.5 249.4 48.4 249.3 48.4C248.8 48.4 248.3 48.3 247.7 48.3C247.6 48.3 247.6 48.5 247.6 48.5C248.1 48.5 248.6 48.5 249.1 48.6C249.2 48.6 249.4 48.6 249.6 48.6Z" />
			<path id="Layer" fill-rule="evenodd" class="shp0" d="M391.8 47.1C392.1 47.1 392.5 46.9 392.3 46.5C392.2 46.3 391.8 46.2 391.7 46.1C391.2 46.2 390.9 46.3 391.1 46.7C391.2 46.9 391.6 47 391.8 47.1Z" />
			<path id="Layer" fill-rule="evenodd" class="shp0" d="M273.2 54.1C273.1 54.4 273.1 54.6 273.4 54.7C273.9 54.5 274.4 54.5 274.7 53.8C274.7 53.7 274.6 53.3 274.5 53.2C273.9 53.1 273.5 53.5 273.2 54.1Z" />
			<path id="Layer" fill-rule="evenodd" class="shp0" d="M900 50.8C899.9 51.2 900 51.5 900.4 51.6C900.8 51.7 901 51.5 901.1 51.1C901.1 50.7 900.9 50.4 900.5 50.4C900.3 50.4 900.1 50.6 900 50.8Z" />
			<path id="Layer" fill-rule="evenodd" class="shp0" d="M1090 48.2C1090.3 48.2 1090.6 48.1 1090.6 47.7C1090.6 47.2 1090.2 47.2 1089.9 47.2C1089.6 47.3 1089.2 47.3 1089.3 47.8C1089.3 48.2 1089.7 48.2 1090 48.2Z" />
			<path id="Layer" fill-rule="evenodd" class="shp0" d="M1087.7 39.3C1087.5 39.7 1087.8 40 1088.2 40C1088.5 40 1088.8 39.8 1089 39.5C1089.2 39.1 1088.9 38.9 1088.5 38.8C1088.2 38.9 1087.8 39 1087.7 39.3Z" />
			<path id="Layer" fill-rule="evenodd" class="shp0" d="M1026.7 39.6C1026.7 39.3 1026.4 39.3 1026.2 39.4C1025.8 39.7 1025.5 40 1025.6 40.5C1025.7 40.8 1025.9 40.9 1026.2 40.7C1026.5 40.5 1026.8 40.2 1026.7 39.6Z" />
			<path id="Layer" fill-rule="evenodd" class="shp0" d="M822.7 39.8C822.8 39.8 823 39.5 823.1 39.4C823 39.2 823 38.9 822.9 38.8C822.8 38.7 822.5 38.8 822.4 39C822.2 39.3 822.3 39.7 822.7 39.8Z" />
			<path id="Layer" fill-rule="evenodd" class="shp0" d="M269.3 142.3C268.9 142.5 268.5 142.7 268.2 143C268.3 143.1 268.5 143.3 268.6 143.4C269.1 143.4 269.5 143.2 269.6 142.7C269.8 142.4 269.5 142.2 269.3 142.3Z" />
			<path id="Layer" fill-rule="evenodd" class="shp0" d="M928.8 26.8C929.1 27 929.5 26.7 929.4 26.3C929.4 26 929.1 25.7 929.1 25.7C928.3 25.5 928.1 25.7 928.2 26.1C928.3 26.4 928.6 26.7 928.8 26.8Z" />
			<path id="Layer" fill-rule="evenodd" class="shp0" d="M955.8 25.8C956.1 25.6 956.3 25.4 956.3 25C956.1 24.9 955.9 24.7 955.8 24.7C955.4 24.8 955.3 25.1 955.3 25.5C955.3 25.8 955.5 25.9 955.8 25.8Z" />
			<path id="Layer" fill-rule="evenodd" class="shp0" d="M1029.3 22.6C1029.3 23.1 1029.6 23.2 1029.9 23C1030.1 22.9 1030.2 22.7 1030.4 22.5C1030.2 22.4 1030 22.3 1029.8 22.3C1029.7 22.3 1029.4 22.5 1029.3 22.6Z" />
			<path id="Layer" fill-rule="evenodd" class="shp0" d="M793.2 16.7C793.4 16.5 793.7 16.3 793.8 16C793.9 15.8 793.7 15.5 793.5 15.6C793.2 15.7 793 16 792.8 16.3C792.7 16.6 792.9 16.8 793.2 16.7Z" />
			<path id="Layer" fill-rule="evenodd" class="shp0" d="M848.9 38.1C849 38.4 849.2 38.8 849.4 38.9C849.7 39.1 849.9 38.8 850 38.2C849.8 38 849.6 37.4 849.3 37.3C848.9 37.2 848.8 37.8 848.9 38.1Z" />
			<path id="Layer" fill-rule="evenodd" class="shp0" d="M846.1 38.1C846.4 38 846.5 37.6 846.5 37.4C846.4 36.9 846.1 36.7 845.8 36.9C845.7 37 845.5 37.3 845.5 37.4C845.6 37.8 845.7 38.1 846.1 38.1Z" />
			<path id="Layer" fill-rule="evenodd" class="shp0" d="M670.9 33.6C670.9 33.8 671 34.1 671.2 34.2C671.4 34.4 671.6 34.2 671.6 33.8C671.5 33.6 671.5 33.3 671.3 33.2C671.1 33.1 670.9 33.3 670.9 33.6Z" />
			<path id="Layer" fill-rule="evenodd" class="shp0" d="M692.1 31.8C692 32.2 692.3 32.5 692.6 32.5C692.7 32.5 693 32.3 693 32.2C693.1 31.8 692.9 31.5 692.5 31.4C692.3 31.5 692.1 31.6 692.1 31.8Z" />
			<path id="Layer" fill-rule="evenodd" class="shp0" d="M864.5 30.1C864.4 29.9 864.4 29.5 864.3 29.4C863.7 29.2 863.3 29.6 862.9 30.1C862.8 30.2 863 30.6 863.1 30.7C863.8 31.1 864.2 30.7 864.5 30.1Z" />
			<path id="Layer" fill-rule="evenodd" class="shp0" d="M715.8 29C715.5 29.1 715.1 29.2 715.1 29.5C715 29.9 715.3 30.1 715.7 30C716 29.9 716.6 29.9 716.6 29.3C716.6 28.9 716.1 28.9 715.8 29Z" />
			<path id="Layer" fill-rule="evenodd" class="shp0" d="M824.8 43.8C824.9 43.9 825 43.9 825.1 43.8C825.8 43.3 824.8 42.9 825 42.4C824.7 42.8 824.3 43.2 824.8 43.8Z" />
			<path id="Layer" fill-rule="evenodd" class="shp0" d="M824.9 42.4C825 42.3 825 42.3 824.9 42.4L825 42.3C825 42.3 825 42.3 825 42.2C825 42.2 825 42.2 824.9 42.4C824.9 42.3 824.9 42.3 824.9 42.4Z" />
			<path id="Layer" fill-rule="evenodd" class="shp0" d="M991 46.3C991.1 46.5 991.6 46.7 991.9 46.7C992.3 46.7 992.6 46.4 992.4 46C992.3 45.8 991.9 45.7 991.6 45.6C991.2 45.9 990.7 45.8 991 46.3Z" />
			<path id="Layer" fill-rule="evenodd" class="shp0" d="M252.3 48.6C252.8 48.7 253.1 48.3 253.2 47.8C253.3 47.4 252.9 47.3 252.6 47.3C252.2 47.4 251.9 47.7 251.9 48.2C251.9 48.4 252.2 48.6 252.3 48.6Z" />
			<path id="Layer" fill-rule="evenodd" class="shp0" d="M768.7 48.7C768.6 49.2 769 49.3 769.3 49.2C769.4 49.2 769.5 48.9 769.6 48.7C769.4 48.6 769.3 48.3 769.1 48.3C769 48.3 768.7 48.6 768.7 48.7Z" />
			<path id="Layer" fill-rule="evenodd" class="shp0" d="M1119.5 49.1C1119.8 49 1120 48.8 1120.2 48.5C1120 48.3 1119.8 48.1 1119.7 48.1C1119.4 48.1 1119.1 48.3 1119.1 48.7C1119.1 48.8 1119.4 49.1 1119.5 49.1Z" />
			<path id="Layer" fill-rule="evenodd" class="shp0" d="M1141.2 1.6C1140.9 1.6 1140.7 1.8 1140.8 1.9C1141 2.2 1141.3 2.4 1141.5 2.5C1141.5 2.5 1141.8 2.2 1141.8 2.1C1141.9 1.7 1141.6 1.7 1141.2 1.6Z" />
			<path id="Layer" fill-rule="evenodd" class="shp0" d="M952.8 4.9C952.9 4.9 953 4.6 953.1 4.5C952.9 4.3 952.8 4.1 952.6 4.1C952.2 4.1 952 4.3 952.2 4.7C952.3 4.8 952.6 4.9 952.8 4.9Z" />
			<path id="Layer" fill-rule="evenodd" class="shp0" d="M808.9 14.9C809 14.7 809.2 14.5 809.2 14.3C809.2 14 809 13.8 808.7 13.9C808.4 14 808.3 14.2 808.5 14.5C808.5 14.7 808.7 14.8 808.9 14.9Z" />
			<path id="Layer" fill-rule="evenodd" class="shp0" d="M719.5 30.1C719.5 30.3 719.4 30.5 719.4 30.7C719.6 30.7 719.8 30.7 719.9 30.7C720 30.5 720 30.2 719.7 30.1C719.7 30.1 719.5 30.1 719.5 30.1Z" />
			<path id="Layer" fill-rule="evenodd" class="shp0" d="M909.3 32.8C909.3 32.7 909 32.6 908.8 32.5C908.5 32.6 908.2 32.7 908.2 33.2C908.2 33.3 908.5 33.4 908.7 33.4C908.9 33.4 909.3 33.3 909.3 32.8Z" />
			<path id="Layer" fill-rule="evenodd" class="shp0" d="M819.7 39.6C819.8 39.7 820 39.8 820.1 39.9C820.1 39.9 820.2 39.8 820.3 39.7C820.2 39.6 820 39.5 819.9 39.4C819.9 39.4 819.8 39.5 819.7 39.6Z" />
			<path id="Layer" fill-rule="evenodd" class="shp0" d="M1037.6 39.8C1037.7 39.8 1037.9 39.5 1038 39.4C1037.9 39.3 1037.7 39.1 1037.6 39.1C1037.5 39.1 1037.3 39.3 1037.2 39.5C1037.3 39.6 1037.5 39.9 1037.6 39.8Z" />
			<path id="Layer" fill-rule="evenodd" class="shp0" d="M1051.6 39.4C1051.6 39.3 1051.2 39.2 1051.1 39.3C1050.7 39.7 1050.9 40.1 1051.1 40.5C1051.3 40.2 1051.8 40 1051.6 39.4Z" />
			<path id="Layer" fill-rule="evenodd" class="shp0" d="M1060 39.8C1060.3 39.8 1060.6 39.7 1060.7 39.3C1060.7 39.2 1060.4 39.1 1060.2 39C1059.9 39 1059.5 39 1059.6 39.5C1059.6 39.6 1059.8 39.8 1060 39.8Z" />
		</g>
	</g>
</svg>