<svg xmlns="http://www.w3.org/2000/svg" viewBox="0 0 600 120" width="600" height="120">
	<style>
		tspan { white-space:pre }
		.shp0 { fill: #ffd57c } 
	</style>
	<path id="path2987" fill-rule="evenodd" class="shp0" d="M221.2 118.46C219.39 118.43 216.42 118.41 214.61 118.41C212.8 118.42 209.9 118.41 208.17 118.39C206.45 118.38 203.69 118.35 202.05 118.33C196.78 118.28 191.14 118.04 190.52 117.84C189.82 117.61 192.8 117.6 197.93 117.81C199.82 117.89 205.48 117.79 213.37 117.54C225.45 117.16 225.81 117.16 225.84 117.49C225.85 117.68 226.07 117.84 226.33 117.83C226.59 117.82 226.81 117.93 226.82 118.07C226.85 118.41 225.24 118.52 221.2 118.46L221.2 118.46ZM248.39 116.65C247.78 116.26 248.5 116.15 249.15 116.53C249.65 116.82 249.66 116.88 249.26 116.89C248.99 116.89 248.61 116.79 248.39 116.65ZM250.48 115.87C250.41 115.83 249.04 115.79 247.44 115.78C245.85 115.76 244.26 115.67 243.92 115.58C243.47 115.45 243.27 115.47 243.19 115.63C243.11 115.8 242.93 115.78 242.54 115.57C242.24 115.41 241.99 115.24 241.98 115.2C241.97 115.04 243.67 114.79 245.55 114.67C246.58 114.61 248.41 114.5 249.61 114.42C252.9 114.22 255.14 114.03 256.01 113.89C256.43 113.82 258.01 113.64 259.51 113.49C261.01 113.34 262.23 113.16 262.22 113.08C262.22 112.99 262.1 112.92 261.97 112.91C261.84 112.9 261.33 112.88 260.84 112.86C259.48 112.8 259.5 112.68 260.88 112.51C261.9 112.38 262.24 112.42 262.8 112.72C263.35 113.01 263.87 113.07 265.5 113.02C266.61 113 267.59 112.89 267.69 112.79C267.78 112.69 268.58 112.54 269.45 112.45C270.61 112.33 271.07 112.2 271.16 111.95C271.25 111.69 271.42 111.65 271.84 111.77C272.15 111.86 272.74 111.89 273.15 111.84C273.56 111.79 274.43 111.69 275.08 111.61C275.74 111.54 276.53 111.39 276.84 111.28C277.22 111.15 277.69 111.14 278.25 111.25C278.92 111.38 279.4 111.32 280.53 110.98C282.06 110.53 282.16 110.51 284.29 110.28C285.06 110.19 286.29 109.99 287.02 109.83C287.76 109.67 289.13 109.47 290.08 109.4C291.03 109.32 292.58 109.02 293.54 108.73C294.5 108.45 295.38 108.21 295.5 108.19C295.62 108.18 295.87 108.08 296.05 107.96C296.3 107.81 296.04 107.68 295.08 107.49C293.5 107.17 293.03 107.17 292.6 107.49C292.29 107.73 291.66 107.75 289.21 107.6C288.48 107.55 288.24 107.46 288.35 107.26C288.44 107.11 288.74 106.98 289.02 106.97C289.35 106.95 289.39 106.91 289.14 106.86C288.92 106.81 288.73 106.7 288.72 106.6C288.72 106.5 288.93 106.49 289.27 106.58C289.58 106.66 290.01 106.69 290.22 106.64C290.43 106.59 290.61 106.68 290.63 106.83C290.64 106.99 290.71 107.12 290.78 107.12C290.85 107.11 291.16 107.16 291.46 107.22C291.79 107.28 291.94 107.26 291.82 107.16C291.71 107.06 291.74 106.87 291.89 106.72C292.12 106.49 292.21 106.48 292.47 106.69C292.86 107.01 293.76 106.78 293.73 106.37C293.72 106.11 293.77 106.09 294.01 106.29C294.17 106.42 294.73 106.53 295.25 106.53C295.77 106.53 296.14 106.56 296.07 106.6C296.01 106.65 296.25 106.79 296.6 106.92C296.96 107.05 297.18 107.23 297.1 107.31C297.02 107.4 297.18 107.51 297.46 107.56C298.28 107.72 299.1 107.65 299.22 107.4C299.28 107.28 299.95 107.14 300.71 107.09C304.12 106.89 304.42 106.85 304.8 106.53C305.15 106.22 308.23 105.74 310.55 105.63C310.97 105.61 311.19 105.51 311.09 105.38C311 105.26 311.02 105.17 311.15 105.19C311.66 105.25 314.33 104.85 314.48 104.69C314.58 104.59 314.91 104.51 315.22 104.5C315.54 104.49 315.95 104.37 316.14 104.22C316.34 104.07 317.04 103.88 317.72 103.8C318.73 103.67 318.94 103.58 318.91 103.23C318.89 102.87 318.63 102.78 317.28 102.63C316.4 102.53 315.6 102.5 315.51 102.56C315.41 102.62 315.53 102.7 315.77 102.74C318.21 103.11 317.79 103.18 313.87 103.07C306.29 102.85 304.12 102.64 304.08 102.12C304.06 101.81 304.58 101.79 304.81 102.08C304.95 102.26 305.05 102.25 305.27 102.05C305.46 101.87 305.76 101.83 306.15 101.92C306.84 102.07 306.75 102.06 308.17 102.22C309.68 102.39 311.39 102.32 312.16 102.06C312.51 101.94 313.3 101.82 313.9 101.81C314.5 101.79 315.2 101.65 315.44 101.5C315.69 101.34 316.45 101.2 317.17 101.18C318.18 101.16 318.44 101.08 318.42 100.83C318.39 100.39 316.64 99.88 315.16 99.87C313.9 99.86 313.71 99.96 314.36 100.3C315.16 100.73 314.38 100.68 312.99 100.22C311.85 99.84 311.23 99.75 310.15 99.82C309.22 99.87 308.45 99.8 307.75 99.58C306.61 99.21 305.14 99.19 301.65 99.48C299.71 99.65 299 99.63 297.8 99.4C296.86 99.22 295.88 99.16 295.1 99.24C294.35 99.32 293.54 99.28 293.01 99.14C292.54 99.01 291.85 98.91 291.47 98.92C291.09 98.93 290.62 98.85 290.41 98.74C290.2 98.63 289.81 98.61 289.48 98.7C288.77 98.9 287.41 98.97 287.2 98.82C287.11 98.76 285.9 98.69 284.52 98.67C283.14 98.66 280.66 98.51 279.02 98.34C277.38 98.18 276 98.04 275.94 98.04C275.89 98.04 275.83 97.92 275.82 97.76C275.81 97.6 275.62 97.51 275.41 97.56C275.2 97.6 275.03 97.76 275.04 97.9C275.04 98.05 274.79 98.14 274.43 98.13C274.08 98.11 273.1 98.09 272.23 98.08C271.37 98.06 270.23 97.94 269.7 97.8C269.17 97.66 267.9 97.56 266.86 97.57C265.83 97.58 264.19 97.48 263.23 97.35C260.59 96.98 259.08 96.85 257.79 96.87C257.14 96.89 256.6 96.81 256.6 96.71C256.59 96.61 257.63 96.51 259.09 96.47C261.84 96.4 262.33 96.15 260.22 95.89C259.48 95.8 258.39 95.61 257.8 95.47C257.16 95.32 256.3 95.27 255.7 95.34C255.15 95.41 254.55 95.38 254.37 95.29C254.19 95.19 252.97 95.13 251.67 95.14C249.21 95.17 247.84 94.94 250.11 94.88C250.82 94.86 251.48 94.76 251.58 94.66C251.81 94.42 249.81 93.98 248.63 94.01C248.12 94.02 247.6 93.89 247.37 93.7C247.09 93.47 246.42 93.34 245.16 93.28C244.08 93.23 242.51 92.97 241.26 92.63C240.11 92.32 238.86 92.07 238.49 92.08C237.88 92.1 236.64 91.89 234.7 91.46C233.67 91.23 231.8 91.04 229.64 90.96C228.79 90.93 227.6 90.78 222.2 90.03C221.24 89.9 219.55 89.78 218.44 89.77C217.33 89.76 215.67 89.68 214.74 89.59C213.82 89.5 212.95 89.48 212.81 89.53C212.67 89.59 212.15 89.52 211.65 89.39C211.16 89.26 210.39 89.16 209.93 89.18C209.48 89.2 207.59 89.21 205.74 89.21C203.88 89.2 202.37 89.26 202.38 89.34C202.38 89.42 201.82 89.47 201.13 89.45C200.1 89.41 199.91 89.46 200.08 89.68C200.2 89.84 200.49 89.95 200.73 89.95C200.97 89.94 201.17 90.02 201.18 90.12C201.19 90.22 201.05 90.3 200.88 90.31C200.3 90.32 200.58 90.59 201.53 90.92C202.19 91.15 202.46 91.38 202.45 91.71C202.43 92.14 202.54 92.17 203.72 92.15C204.43 92.13 205.21 92.2 205.46 92.31C206.37 92.69 207.99 93.04 209.15 93.09C209.81 93.13 210.99 93.19 211.77 93.25C212.55 93.3 213.32 93.32 213.48 93.29C213.64 93.25 214.35 93.34 215.06 93.46C216.87 93.79 218.86 93.99 221.25 94.08C222.37 94.12 223.93 94.3 224.71 94.47C225.82 94.71 226.92 94.76 229.65 94.7C231.58 94.65 233.42 94.56 233.73 94.5C234.45 94.35 235.25 94.6 234.97 94.89C234.84 95.03 234.42 95.08 233.92 95.03L233.08 94.94L233.89 95.27C234.33 95.46 234.6 95.66 234.5 95.73C234.39 95.8 232.99 95.91 231.38 95.98C227.31 96.15 227.37 96.15 227.39 96.47C227.41 96.68 227.22 96.74 226.79 96.69C226.44 96.65 225.64 96.69 224.99 96.8C224.19 96.92 223.32 96.91 222.24 96.76C219.68 96.42 215.45 96.23 215.1 96.44C214.9 96.57 215.08 96.67 215.62 96.73C216.07 96.78 216.44 96.92 216.45 97.03C216.47 97.24 215.93 97.21 212.67 96.83C208.49 96.33 204.43 96 203.98 96.11C203.23 96.3 203.48 96.56 204.59 96.74C205.16 96.84 205.87 97.06 206.15 97.23C206.43 97.41 207.54 97.64 208.61 97.74C210.52 97.92 210.69 98 210.62 98.65C210.61 98.84 210.81 98.96 211.12 98.95C211.51 98.94 211.6 98.83 211.46 98.49C211.32 98.14 211.41 98.04 211.87 98.03C212.2 98.02 212.78 98.17 213.17 98.36C213.55 98.55 214.1 98.7 214.38 98.69C214.66 98.68 215.24 98.87 215.66 99.11C216.09 99.35 216.62 99.54 216.84 99.54C217.07 99.53 217.77 99.79 218.41 100.12C219.05 100.45 219.85 100.76 220.2 100.82C220.55 100.87 220.76 100.99 220.66 101.09C220.4 101.36 219.18 101.32 217.83 100.98C215.85 100.49 213.89 100.28 213.44 100.52C213.23 100.63 212.97 100.67 212.86 100.61C212.65 100.5 210.71 100.29 208.84 100.19C206.18 100.04 202.8 99.62 200.29 99.13C198.8 98.84 193.76 98.47 193.21 98.61C192.97 98.67 192.44 98.62 192.03 98.5C190.13 97.94 189.13 98.31 189.51 99.44C189.8 100.29 189.72 100.34 188.48 100.01C187.62 99.78 184.68 99.28 183.71 99.2C182.51 99.09 179.36 98.61 179.06 98.49C178.88 98.41 177.91 98.28 176.9 98.2C175.89 98.12 174.95 98.02 174.8 97.97C174.66 97.92 173.5 97.91 172.23 97.95C170.96 97.99 169.52 98.02 169.04 98.03C168.55 98.04 167.91 97.9 167.6 97.72C166.89 97.28 162.6 96.66 161.46 96.82C160.83 96.91 160.51 96.86 160.28 96.64C159.94 96.31 157.27 95.85 156.79 96.04C156.62 96.1 155.41 95.99 154.08 95.78C152.13 95.48 151.68 95.45 151.7 95.67C151.71 95.87 151.46 95.91 150.61 95.84C149.79 95.77 149.47 95.81 149.35 96.02C149.22 96.24 148.95 96.27 147.87 96.15C146.42 96 144.43 96.17 142.89 96.57C142.34 96.72 141.62 96.9 141.28 96.98C140.67 97.12 140.67 97.12 141.31 97.39C141.94 97.64 141.93 97.65 141.13 97.56C140.67 97.51 139.61 97.58 138.78 97.7C137.95 97.83 136.85 97.99 136.34 98.05C135.44 98.16 134.9 98.29 132.95 98.84C132.44 98.99 131.47 99.17 130.78 99.25C127.61 99.63 123.79 100.74 121.38 101.96C120.87 102.22 120.05 102.39 119.06 102.45C117.22 102.56 113.57 103.39 109.85 104.54C108.33 105.01 106.65 105.41 106.11 105.42C105.56 105.43 104.97 105.56 104.79 105.7C104.61 105.84 103.45 106.16 102.22 106.43C98.88 107.14 97.1 107.56 94.98 108.14C93.93 108.43 92.47 108.75 91.74 108.85C91.01 108.96 88.87 109.26 86.99 109.53C83.72 109.99 82.49 110.17 79.39 110.66C78.62 110.78 75.49 110.97 72.44 111.07C67.17 111.26 66.88 111.25 66.86 110.92C66.82 110.4 69.46 109.92 71.15 110.14C71.39 110.17 71.63 110.07 71.68 109.92C71.74 109.77 71.71 109.75 71.62 109.87C71.5 110.04 71.27 110.05 70.67 109.91C69.7 109.68 70.19 109.42 71.68 109.38C72.74 109.35 72.96 109.49 72.39 109.85C72.15 110 72.81 110.08 74.81 110.12C77.66 110.19 80.06 109.89 86.77 108.65C88.05 108.42 89.72 108.11 90.48 107.98C94.17 107.32 95.13 107.08 95.51 106.71C96.08 106.16 98.88 105.53 101.12 105.45C104.74 105.32 105.04 105.28 105.75 104.79C106.13 104.53 106.73 104.31 107.08 104.31C107.42 104.3 107.92 104.08 108.19 103.83C108.45 103.57 109.04 103.3 109.51 103.22C110.49 103.06 111.12 102.78 111.1 102.52C111.08 102.3 107.18 102.59 103.92 103.05C102.64 103.23 100.75 103.64 99.71 103.96C98.67 104.28 97.7 104.54 97.54 104.55C97.38 104.55 96.69 104.73 96.01 104.94C94.87 105.3 93.42 105.34 93.4 105.02C93.39 104.94 93.82 104.82 94.35 104.74C94.87 104.67 95.71 104.42 96.2 104.2C96.69 103.98 97.55 103.75 98.1 103.69C98.65 103.62 99.48 103.47 99.94 103.34C100.93 103.06 101.05 102.46 100.11 102.48C99.42 102.5 99.24 102.22 99.85 102.07C100.06 102.03 100.12 101.92 99.98 101.84C99.84 101.76 98.86 101.9 97.81 102.15C96.75 102.4 94.43 102.92 92.64 103.3C90.86 103.69 88.5 104.2 87.39 104.44C86.29 104.69 84.69 104.98 83.83 105.1C82.98 105.23 81.52 105.46 80.58 105.62C77.37 106.17 74.6 106.61 73.91 106.67C73.07 106.74 71.81 107.35 71.56 107.79C71.44 107.99 71.01 108.13 70.42 108.16C69.9 108.19 69.37 108.23 69.24 108.25C67.51 108.57 67.29 108.65 67.45 108.87C67.69 109.19 67.5 109.24 65.41 109.45C63.88 109.6 63.62 109.58 63.6 109.33C63.58 109.13 63.86 109.03 64.51 109.01C65.03 109 65.45 108.91 65.44 108.81C65.43 108.71 65.32 108.62 65.19 108.62C63.77 108.57 62.54 108.29 62.9 108.08C62.97 108.04 63.94 107.93 65.05 107.83C67.66 107.61 71.59 106.91 73.65 106.29C74.54 106.02 76.84 105.53 78.75 105.2C82.41 104.56 87.06 103.63 88.1 103.33C88.43 103.24 89.2 103.09 89.8 103.01C90.39 102.92 91.02 102.79 91.19 102.71C91.55 102.54 95.49 101.69 95.99 101.68C96.57 101.66 98.44 101.04 98.42 100.87C98.41 100.64 96.1 100.73 95.07 101C94.6 101.12 93.66 101.38 92.98 101.58C88.65 102.82 86.89 103.22 85.92 103.17L85.08 103.13L85.83 102.43C86.39 101.92 86.81 101.73 87.44 101.71C87.9 101.7 88.63 101.57 89.05 101.44C89.47 101.3 90.65 101.06 91.68 100.9C95.06 100.4 95.86 100.22 95.84 99.97C95.81 99.46 94.75 99.57 90.23 100.56C87.67 101.12 85.09 101.59 84.49 101.61C83.47 101.63 83.42 101.61 83.72 101.24C84.31 100.53 82.65 100.43 80.56 101.05C79.48 101.36 79.63 101.63 80.91 101.66C82.26 101.7 82.83 101.95 82.02 102.15C81.69 102.23 81.21 102.47 80.94 102.68C80.5 103.03 80.34 103.04 79.37 102.87C77.45 102.52 75.33 102.5 72.65 102.82C71.21 102.98 69.94 103.07 69.84 103.02C69.73 102.96 69.88 102.65 70.17 102.34C70.74 101.72 71.63 101.49 75.03 101.1C77.48 100.81 78.94 100.49 78.92 100.25C78.9 100.06 75.4 100.27 74.39 100.52C74.14 100.59 73.92 100.55 73.91 100.44C73.9 100.33 74.07 100.23 74.28 100.23C74.49 100.22 75.36 100.04 76.21 99.83C77.06 99.62 78.77 99.19 80 98.89C82.34 98.31 82.73 97.92 80.94 97.97C80.08 97.99 79.84 97.91 79.57 97.5C79.4 97.23 79.09 97.02 78.9 97.02C78.64 97.03 78.64 96.98 78.88 96.82C79.22 96.61 80.03 96.73 79.8 96.97C79.52 97.27 82.18 97.1 83.48 96.73C85.02 96.3 85.32 95.95 84.11 95.98C83.52 96 83.3 95.88 83.1 95.44C82.85 94.89 82.81 94.88 81.46 95.03C80.7 95.11 80.14 95.1 80.23 95.01C80.44 94.79 83.63 94.23 85.78 94.05C88.11 93.84 89.51 93.08 87.43 93.14C83.49 93.26 79.89 93.51 79.73 93.67C79.43 93.98 78.28 94.16 77.36 94.05C76.57 93.95 76.56 93.93 77.04 93.6C77.32 93.4 77.88 93.23 78.28 93.22C78.68 93.21 79.01 93.12 79 93.01C78.99 92.91 79.44 92.69 79.98 92.53C80.53 92.37 81.19 92.17 81.44 92.08C82.8 91.6 83.32 91.46 83.85 91.45C84.17 91.44 84.84 91.31 85.32 91.15C85.81 91 87.55 90.79 89.18 90.68C93.34 90.41 96.47 89.9 96.99 89.4C97.13 89.28 97.57 89.28 98.33 89.42C98.95 89.53 99.59 89.57 99.76 89.5C99.93 89.43 100.17 89.5 100.28 89.66C100.4 89.81 100.61 89.89 100.76 89.83C100.91 89.77 101.05 89.92 101.07 90.17C101.1 90.59 101.17 90.61 102.07 90.43C103.39 90.18 103.45 90.11 102.73 89.67C102.28 89.4 102.21 89.27 102.49 89.21C103.16 89.05 102.86 88.62 102.01 88.51C101.11 88.41 97.36 88.66 96.86 88.86C96.68 88.93 94.97 89.05 93.05 89.14C91.12 89.22 88.7 89.34 87.67 89.41C86.64 89.48 84.18 89.63 82.21 89.75C77.09 90.07 75.34 90.28 75.37 90.58C75.37 90.66 74.36 90.76 73.11 90.81C69.2 90.93 68.39 91.04 67.8 91.54C67.29 91.96 67.15 91.99 65.94 91.85C65.21 91.76 64.27 91.55 63.85 91.38C63.43 91.2 62.78 91.07 62.41 91.07C61.78 91.07 61.78 91.06 62.47 90.89C63.45 90.63 65.63 90.56 66.59 90.75C67.58 90.95 69.28 90.77 69.73 90.42C69.92 90.28 70.38 90.15 70.74 90.14C71.51 90.12 74.1 89.09 73.79 88.92C73.68 88.87 73.99 88.76 74.48 88.68C74.97 88.61 76.48 88.36 77.85 88.12C79.21 87.88 80.87 87.61 81.53 87.51C82.19 87.42 82.82 87.24 82.93 87.13C83.05 87.01 83.43 86.87 83.79 86.82C84.15 86.77 84.76 86.63 85.13 86.5L85.82 86.26L85.04 86.04C84.61 85.92 83.52 85.83 82.61 85.85C81.7 85.87 80.49 85.79 79.93 85.67C79.36 85.55 78.62 85.49 78.28 85.53C76.42 85.76 73.01 85.8 72.87 85.59C72.79 85.47 72.46 85.38 72.14 85.38C71.82 85.39 71.47 85.32 71.35 85.22C71.23 85.12 71.01 85.09 70.85 85.15C70.7 85.21 70.56 85.17 70.56 85.06C70.55 84.96 70.77 84.81 71.06 84.74C71.52 84.62 71.51 84.59 70.96 84.49C70.09 84.31 63.05 84.49 62.86 84.69C62.7 84.86 59.5 85.23 55.59 85.54C53.73 85.68 53.33 85.77 53.43 86.01C53.5 86.18 54.22 86.39 55.22 86.54C56.15 86.68 57.15 86.9 57.46 87.04C57.76 87.18 58.29 87.25 58.63 87.21C59.42 87.1 63.49 87.43 63.72 87.63C63.82 87.71 63.71 87.78 63.48 87.8C62.47 87.86 59.35 87.85 58.73 87.78C58.35 87.74 57.36 87.7 56.53 87.69C55.69 87.68 54.75 87.54 54.42 87.38C53.88 87.12 53.79 87.12 53.57 87.38C53.35 87.63 53.26 87.62 52.91 87.32C52.55 87.02 52.59 86.96 53.3 86.84C54.75 86.59 53.41 86.19 51.05 86.18C48.98 86.16 48.35 86.08 48.33 85.83C48.31 85.6 52.45 85.12 56.27 84.93C58.33 84.82 60.08 84.66 60.16 84.59C60.25 84.51 60.81 84.44 61.41 84.43C62.02 84.43 62.99 84.27 63.57 84.08C64.43 83.81 65.54 83.72 69.42 83.61C73.18 83.5 74.2 83.42 74.18 83.24C74.16 82.89 73.43 82.82 70.23 82.87C65.67 82.93 62.15 83.32 60.93 83.91C60.08 84.32 59.84 84.37 59.53 84.17C58.98 83.82 59.72 83.43 61.94 82.9C63.65 82.49 64.68 82.05 63.7 82.15C63.47 82.18 62.22 82.21 60.93 82.23L58.58 82.26L59.55 81.7C60.09 81.39 60.52 81.02 60.51 80.87C60.48 80.47 58.62 80.14 55.19 79.9C53.53 79.79 52.07 79.66 51.93 79.62C51.79 79.57 50.78 79.52 49.68 79.49C48.59 79.47 47.27 79.38 46.74 79.31C46.22 79.23 44.8 79.1 43.58 79.02C40.22 78.79 39.91 78.75 40.11 78.55C40.27 78.38 41.42 78.39 43.78 78.57C44.08 78.59 44.4 78.53 44.5 78.43C44.78 78.14 44.06 77.81 42.69 77.61C41.15 77.38 41.08 77.22 42.42 76.9C43.79 76.58 44.39 76.58 44.64 76.9C44.75 77.05 45.2 77.24 45.64 77.33C46.09 77.41 46.45 77.57 46.46 77.67C46.48 77.91 47.34 77.89 47.46 77.64C47.53 77.5 47.82 77.49 48.45 77.61C48.94 77.7 49.64 77.77 50.01 77.76C50.67 77.75 50.67 77.74 50.05 77.53C49.7 77.4 48.92 77.22 48.3 77.13C45.29 76.65 44.65 76.47 44.73 76.14C44.87 75.53 45.22 75.51 48.24 75.9C49.88 76.11 51.61 76.27 52.08 76.26C52.56 76.25 52.95 76.31 52.96 76.4C52.97 76.61 54.87 76.76 56.99 76.71C58.01 76.68 59.02 76.77 59.46 76.92C60.04 77.12 60.93 77.15 63.34 77.04C66.89 76.88 67.67 76.64 66.24 76.14C65.47 75.88 64.73 75.85 61.1 75.96C58.76 76.03 56.37 76.16 55.77 76.24C54.87 76.37 54.61 76.34 54.26 76.04C53.89 75.71 53.93 75.66 54.62 75.56C55.05 75.5 55.77 75.39 56.23 75.32C56.69 75.26 58.62 75.16 60.53 75.12C65.35 75.01 65.89 74.71 62.74 73.9C61.31 73.53 60.72 73.48 58.26 73.56C56.7 73.61 54.43 73.62 53.22 73.59C52.01 73.56 50.09 73.57 48.96 73.61C47.49 73.66 46.78 73.61 46.5 73.43C46.17 73.22 46.25 73.14 46.96 72.98L47.82 72.79L46.7 72.53C45.11 72.15 42.9 72.07 41.49 72.33C40.82 72.45 39.64 72.61 38.87 72.68C38.1 72.75 37.07 72.85 36.59 72.91C36.02 72.97 35.75 72.93 35.82 72.79C35.88 72.67 36.22 72.55 36.57 72.51C36.93 72.47 37.28 72.27 37.35 72.07C37.47 71.75 37.66 71.71 38.6 71.79C39.55 71.87 39.83 71.81 40.45 71.39C41.08 70.96 41.34 70.9 42.43 70.97C43.22 71.03 43.76 70.98 43.89 70.85C44.18 70.55 45.47 70.57 45.97 70.89C46.23 71.05 46.7 71.12 47.15 71.06C47.55 71 48.46 71.02 49.16 71.09C50.54 71.23 51.46 70.97 51.13 70.53C51.03 70.4 51.09 70.29 51.26 70.28C51.43 70.28 51.66 70.4 51.77 70.54C51.9 70.71 52.38 70.8 53.06 70.78C54.36 70.75 54.17 70.48 52.76 70.36C51.86 70.28 51.79 70.23 52.19 69.98C52.47 69.81 53.28 69.67 54.35 69.64C55.28 69.6 56.21 69.49 56.41 69.39C56.61 69.29 57.24 69.18 57.81 69.15L58.86 69.09L57.57 67.86C55.56 65.94 54.77 65.47 53.61 65.48C53.06 65.49 52.25 65.44 51.81 65.38C51.03 65.26 51.03 65.26 52 65.11C52.92 64.96 53.56 64.51 53.06 64.36C52.26 64.13 50.52 64.16 49.73 64.42C48.85 64.72 48.15 64.7 46.82 64.36C46.26 64.22 45.94 64.27 45.22 64.6C44.72 64.82 44.18 65.01 44.03 65.01C43.69 65.02 42.6 63.89 42.57 63.5C42.56 63.35 42.34 63.24 42.08 63.25C41.82 63.25 41.61 63.2 41.6 63.12C41.59 63.04 42.16 62.99 42.85 63.01C43.63 63.04 44.1 62.98 44.09 62.85C44.08 62.74 44.18 62.66 44.31 62.67C44.93 62.71 45.06 62.6 44.68 62.36C44.24 62.08 43.56 62.01 43.88 62.28C43.99 62.37 43.81 62.44 43.49 62.44C42.95 62.43 42.95 62.38 43.59 61.78C43.97 61.43 44.27 61.07 44.26 60.99C44.26 60.9 44.51 60.82 44.82 60.82C46.13 60.78 46.52 59.94 45.29 59.79C44.86 59.74 44.36 59.49 44.15 59.23C43.31 58.15 42.54 57.69 41.18 57.46C40.42 57.33 39.85 57.13 39.91 57.03C40.05 56.81 41.31 56.8 43.65 56.99C44.6 57.07 45.45 57.09 45.52 57.05C45.59 57 45.63 56.69 45.61 56.35C45.55 55.54 44.08 54.76 42.97 54.95C42.39 55.05 41.99 54.94 41.13 54.46C40.14 53.9 39.95 53.86 39.18 54.06C38.2 54.3 37.67 54.13 37.8 53.61C37.87 53.34 38.17 53.26 39.22 53.24C40.28 53.21 40.5 53.15 40.32 52.93C39.96 52.5 39.9 51.78 40.21 51.52C40.41 51.35 40.1 51.08 39.1 50.55L37.71 49.82L38.54 49.74C38.99 49.7 39.43 49.55 39.51 49.42C39.64 49.19 38.95 47.91 38.06 46.72C37.84 46.43 37.69 46.13 37.73 46.05C37.76 45.97 37.65 45.92 37.48 45.92C37.31 45.92 37.16 45.85 37.15 45.75C37.13 45.42 34.02 42.92 33.65 42.93C33.44 42.93 33.01 42.79 32.7 42.6C32.15 42.28 32.15 42.27 32.79 42.35C33.16 42.39 33.54 42.5 33.64 42.59C33.89 42.79 35.04 42.76 35.03 42.54C35.02 42.45 35.26 42.33 35.56 42.28C35.99 42.2 35.97 42.18 35.44 42.18C34.64 42.17 33.71 41.66 33.67 41.2C33.66 41.02 33.28 40.62 32.84 40.31L32.03 39.75L32.78 39.53C33.19 39.4 33.52 39.22 33.52 39.12C33.5 38.86 34.55 38.86 35.04 39.12C35.37 39.3 35.4 39.27 35.2 39.01C35.04 38.78 35.12 38.61 35.46 38.49C35.74 38.39 35.96 38.19 35.94 38.05C35.93 37.78 36.53 37.65 36.57 37.9C36.64 38.32 38.1 38.9 39.54 39.08C41.57 39.33 42.24 39.11 41.42 38.45C41.13 38.21 40.99 38.02 41.1 38.02C41.22 38.01 40.94 37.75 40.49 37.44C39.87 37.01 39.62 36.58 39.44 35.65C39.25 34.71 39.29 34.43 39.61 34.42C39.84 34.41 40.12 34.49 40.23 34.59C40.59 34.89 41.8 34.75 42.18 34.36C42.7 33.83 43.35 33.87 44.47 34.52C45.28 35 45.49 35.04 45.73 34.81C45.89 34.66 45.93 34.05 45.82 33.46C45.59 32.13 45.97 31.83 47.99 31.74C49.97 31.66 50.73 31.47 50.9 31.02C50.98 30.81 50.81 30.44 50.52 30.21C50.04 29.83 50.04 29.8 50.59 29.78C51.38 29.75 51.97 29.42 52.78 28.58C53.53 27.8 53.46 27.71 51.73 27.23C50.45 26.87 50.27 26.44 51.39 26.39C53.01 26.32 53.26 26.25 53.23 25.93C53.21 25.54 47.16 22.49 45.44 22.01C44.04 21.61 42.3 20.91 42.69 20.9C43.32 20.89 45.95 21.35 47.74 21.79C48.8 22.05 49.94 22.25 50.29 22.25C50.76 22.24 50.93 22.36 50.99 22.75C51.03 23.08 51.48 23.48 52.25 23.89C53.43 24.52 53.44 24.52 54.31 24.19C55.2 23.86 55.91 23.98 55.95 24.49C55.98 24.89 56.97 25.27 57.67 25.14C58.04 25.08 58.77 25 59.28 24.96C60.57 24.87 60.75 24.26 59.47 24.29C58.85 24.3 58.21 24.11 57.36 23.65C55.76 22.78 55.73 22.39 57.28 22.34C58.29 22.31 59.93 21.94 59.05 21.93C58.88 21.93 58.98 21.84 59.28 21.73C59.57 21.62 59.96 21.58 60.15 21.64C60.33 21.7 60.64 21.67 60.84 21.56C61.04 21.46 61.91 21.31 62.77 21.24C63.62 21.16 64.36 21.1 64.4 21.09C64.45 21.08 64.47 20.91 64.45 20.71C64.43 20.4 64.63 20.34 65.86 20.31C66.67 20.29 67.47 20.16 67.71 20.01C67.94 19.87 69 19.67 70.06 19.57C72.3 19.36 74.08 18.92 73.94 18.61C73.89 18.49 74.16 18.36 74.53 18.31C74.9 18.27 75.37 18.12 75.56 17.97C75.76 17.82 76.18 17.69 76.5 17.68C77.07 17.67 77.07 17.66 76.49 17.35C75.51 16.83 74.79 16.76 74.64 17.18C74.56 17.4 74.35 17.5 74.13 17.42C73.45 17.2 70.79 17.32 70.81 17.58C70.82 17.75 70.19 17.83 68.33 17.87C66.96 17.9 65.69 17.98 65.52 18.05C65.14 18.2 65.1 17.97 65.44 17.62C65.6 17.47 66.22 17.36 67.01 17.34C68.12 17.32 68.26 17.28 67.93 17.07C67.71 16.93 67.15 16.83 66.69 16.84C65.59 16.87 65.35 16.73 65.73 16.27C65.94 16.02 65.93 15.87 65.71 15.8C65.38 15.69 65.32 15.6 65.29 15.15C65.26 14.8 64.13 14.69 62.77 14.9C61.99 15.02 61.66 15.19 61.55 15.51C61.44 15.85 61.16 15.97 60.33 16.05C59.73 16.1 59.13 16.21 59 16.3C58.86 16.38 58.26 16.38 57.66 16.29C56.89 16.17 56.25 16.19 55.42 16.36C54.78 16.49 53.43 16.67 52.42 16.75C50.96 16.86 50.46 16.83 49.97 16.6C49.38 16.31 49.38 16.3 49.96 15.96C50.29 15.76 51.01 15.6 51.62 15.58C52.21 15.57 53.2 15.42 53.82 15.25C54.44 15.08 55.09 14.99 55.27 15.05C55.7 15.19 57.45 14.71 57.23 14.52C56.84 14.2 60.13 13.62 62.2 13.65C63.43 13.67 65.61 13.15 65.59 12.84C65.58 12.69 66.12 12.54 67.01 12.45C67.8 12.36 68.73 12.19 69.08 12.07C69.43 11.95 69.96 11.85 70.28 11.84C70.82 11.83 72.51 11.05 72.5 10.81C72.49 10.75 72 10.6 71.4 10.47C70.49 10.28 69.57 9.61 69.93 9.41C69.98 9.37 70.81 9.44 71.77 9.56C72.75 9.68 74.53 9.73 75.85 9.66L78.21 9.55L78.16 8.97C78.13 8.53 77.93 8.35 77.32 8.21C76.88 8.11 76.16 7.9 75.72 7.75C75.27 7.59 74.57 7.45 74.15 7.43C73.73 7.4 73.08 7.3 72.72 7.19C72.07 7.01 72.07 7 72.9 6.8C73.93 6.55 73.97 6.34 73.01 6.24C72.03 6.15 69.14 6.04 67.36 6.04C66.34 6.03 65.64 5.91 65.11 5.65C64.69 5.44 64.17 5.27 63.94 5.28C63.35 5.29 60.41 4.58 60.4 4.42C60.38 4.15 61.67 4.25 61.87 4.52C61.99 4.68 62.28 4.75 62.52 4.69C62.79 4.62 62.88 4.66 62.76 4.79C62.63 4.92 62.72 4.96 62.98 4.9C63.22 4.84 63.82 4.9 64.31 5.03C64.8 5.16 65.44 5.22 65.73 5.16C66.02 5.1 67.73 5 69.54 4.94C73.37 4.8 73.78 4.73 73.23 4.38C73.02 4.25 72.93 4.08 73.04 4.02C73.14 3.95 74.67 3.83 76.44 3.76C78.2 3.69 79.74 3.63 79.87 3.62C79.99 3.61 80.01 3.49 79.91 3.36C79.58 2.92 80.75 2.82 81.71 3.19C82.52 3.51 83.01 3.53 86.6 3.41C88.8 3.34 91.51 3.27 92.61 3.27C93.98 3.26 94.7 3.18 94.85 3.01C95.04 2.82 95.17 2.81 95.49 2.99C95.72 3.1 96.12 3.19 96.38 3.18C96.7 3.17 96.55 3.04 95.95 2.8C95.45 2.61 94.9 2.26 94.73 2.04C94.5 1.72 94.14 1.62 93.24 1.6C91.81 1.57 91.72 1.28 93.07 1.02C94.07 0.82 96.55 1.06 96.58 1.35C96.58 1.43 97.25 1.86 98.06 2.3C99.47 3.07 100.26 3.27 100.58 2.93C100.78 2.73 113.26 2.3 118.93 2.29C121.26 2.29 126.92 1.81 127.46 1.58C128.71 1.03 136.61 1.44 139.32 2.2C139.78 2.33 140.18 2.61 140.25 2.87C140.33 3.12 140.56 3.39 140.77 3.48C141.59 3.8 143.74 3.98 144.66 3.81C145.31 3.68 145.83 3.69 146.37 3.85C146.8 3.97 147.87 4.06 148.76 4.04C149.64 4.02 150.89 4.12 151.52 4.25C152.16 4.39 153.56 4.52 154.64 4.55C155.72 4.58 157.04 4.7 157.56 4.82C158.09 4.93 159.16 5.12 159.95 5.24C161.15 5.42 161.4 5.54 161.57 5.99C161.75 6.47 161.92 6.54 162.93 6.56C163.56 6.58 164.26 6.7 164.48 6.84C164.7 6.98 165.06 7.09 165.29 7.08C165.52 7.08 165.88 7.23 166.08 7.42C166.29 7.63 166.76 7.77 167.19 7.76C167.61 7.75 168.05 7.83 168.18 7.94C168.44 8.16 172.86 9.25 173.43 9.24C173.62 9.23 174.56 9.42 175.5 9.65C176.85 9.98 177.27 10.18 177.46 10.59C177.77 11.28 178.88 12.01 179.59 11.99C179.9 11.98 180.24 12.13 180.34 12.33C180.45 12.52 181.03 12.8 181.64 12.95C182.24 13.1 183 13.45 183.31 13.73C183.63 14.02 184.31 14.36 184.83 14.5C185.35 14.64 185.78 14.86 185.79 15C185.8 15.13 186.17 15.37 186.61 15.52C187.11 15.69 187.43 15.97 187.45 16.24C187.47 16.48 187.71 16.78 187.99 16.9C189.41 17.54 190.77 18.37 190.72 18.57C190.63 18.88 191.33 19.46 192.52 20.03C193.88 20.69 193.91 20.89 192.81 21.86C192.24 22.35 192.25 22.37 193.03 23.76C193.47 24.53 193.96 25.3 194.12 25.46C194.28 25.62 194.44 26.16 194.47 26.66C194.53 27.73 194.74 27.96 195.57 27.94C196.36 27.92 196.36 28.13 195.59 28.44C194.91 28.71 194.84 29.45 195.42 30.22C195.68 30.58 195.67 30.84 195.35 31.24C194.83 31.92 195.08 32.29 196.16 32.39C196.62 32.43 197.66 32.57 198.48 32.69C199.3 32.81 200.1 32.91 200.25 32.91C200.62 32.9 201.2 32.06 201.16 31.58C201.14 31.27 201.21 31.24 201.63 31.42C202.34 31.74 202.43 31.57 201.89 30.91C201.4 30.32 200.56 30.17 199.92 30.57C199.16 31.06 198.85 30.55 198.89 28.92C198.93 27.26 199.04 26.94 199.59 26.93C199.77 26.92 199.83 27 199.73 27.11C199.63 27.21 199.76 27.29 200.01 27.28C200.26 27.27 200.75 26.99 201.08 26.64C201.42 26.29 201.98 25.96 202.33 25.89C202.87 25.8 202.92 25.69 202.7 25.14C202.35 24.27 203.09 24.25 204.35 25.08C205.42 25.79 206.04 25.82 208.04 25.25C209.64 24.79 209.96 24.48 209.45 23.89C209.21 23.62 209.17 23.19 209.34 22.56C209.55 21.75 209.49 21.54 208.79 20.77C207 18.82 207.01 18.84 207.56 19.08C208.07 19.3 208.7 19.18 208.68 18.87C208.67 18.77 208 18.32 207.18 17.87C205.8 17.11 205.75 17.05 206.4 16.97C207.06 16.9 207.83 17.24 208.58 17.95C208.83 18.18 208.95 18.17 209.58 17.89C210.57 17.45 211.4 17.46 211.43 17.92C211.47 18.42 211.93 18.84 213.11 19.47C213.69 19.78 214.11 20.18 214.13 20.45C214.17 21 214.68 21.21 215.26 20.9C215.93 20.55 217.6 20.92 217.65 21.43C217.66 21.5 217.22 21.69 216.67 21.84C216.12 21.99 215.41 22.3 215.09 22.52C214.52 22.93 214.52 22.93 215.19 23.02C215.57 23.07 215.92 23.27 215.99 23.49C216.07 23.72 216.38 23.89 216.76 23.91C217.28 23.94 217.43 24.09 217.49 24.62C217.65 25.83 219.62 26.24 221.58 25.46C222.34 25.16 222.76 25.11 223.35 25.22C223.77 25.3 224.94 25.33 225.95 25.28C227.69 25.19 227.85 25.14 228.87 24.39C229.47 23.95 230.31 23.45 230.74 23.27C233.25 22.22 234.87 21.46 235.5 21.03C236.48 20.38 236.88 20.42 236.94 21.16C236.98 21.65 236.82 21.85 236.22 22.04C233.19 23.03 229.57 25.36 229.64 26.28C229.65 26.52 229.52 26.72 229.33 26.72C229.15 26.73 228.8 26.86 228.56 27.01C228.32 27.16 227.91 27.24 227.65 27.19C227.04 27.07 225.56 28 225.81 28.33C225.92 28.48 226.63 28.61 227.52 28.65C228.35 28.68 230.03 28.77 231.24 28.84C236.18 29.12 238.26 29.23 239.91 29.28C242.34 29.37 243.11 29.45 242.94 29.63C242.86 29.71 241.97 29.74 240.97 29.69C237.81 29.53 233.21 29.57 232.45 29.76C231.85 29.91 231.8 29.98 232.13 30.2C232.62 30.51 233.46 30.51 233.94 30.21C234.21 30.04 234.32 30.05 234.43 30.24C235.11 31.44 235.26 31.57 236.01 31.61C236.44 31.63 236.91 31.71 237.06 31.79C237.21 31.87 238.12 31.78 239.09 31.61C241.06 31.24 242.14 31.21 242.78 31.49C243.02 31.59 244.07 31.65 245.13 31.62C246.3 31.58 247.41 31.65 248.01 31.81C248.78 32.02 249.5 32.03 251.43 31.89C252.77 31.78 254.6 31.74 255.49 31.79C256.87 31.86 257.08 31.92 256.97 32.22C256.86 32.51 257.02 32.56 257.97 32.54C258.58 32.53 259.36 32.64 259.69 32.8C260.21 33.05 260.47 33.05 261.75 32.83C264.92 32.27 265.98 32.18 266.97 32.42C267.82 32.61 271.25 33.03 272.99 33.14C273.34 33.16 274.18 33.05 274.86 32.89C276.36 32.54 278.84 32.39 288.76 32.04C292.97 31.89 296.78 31.73 297.2 31.68C297.63 31.64 298.36 31.69 298.82 31.81C299.28 31.92 299.75 31.96 299.86 31.89C299.97 31.82 301.22 31.73 302.63 31.68C308.61 31.48 308.54 31.48 308.4 31.05C308.28 30.71 308.43 30.65 309.67 30.57C311.17 30.48 312.51 30.72 312.54 31.08C312.55 31.32 313.77 31.54 314.18 31.37C314.65 31.19 314.41 30.96 313.7 30.91C313.01 30.87 313.01 30.87 313.6 30.66C313.94 30.54 316.39 30.33 319.06 30.19C321.73 30.05 324.26 29.91 324.68 29.87C325.11 29.83 325.91 29.78 326.46 29.75C327 29.72 327.65 29.57 327.89 29.42C328.25 29.19 328.68 29.17 330.33 29.28C332.17 29.41 339.96 29.14 342.34 28.87C344.35 28.63 349.82 28.36 349.61 28.5C349.49 28.59 348.75 28.66 347.98 28.66C347.2 28.66 346.57 28.75 346.58 28.85C346.58 28.95 346.12 29.04 345.54 29.06C344.96 29.07 343.73 29.19 342.81 29.32C341.89 29.45 340.72 29.61 340.21 29.68C339.69 29.75 339.06 29.83 338.81 29.87C338.55 29.91 337.88 29.96 337.31 29.98C336.73 30 336.36 30.09 336.47 30.19C336.7 30.38 340.92 30.16 342.57 29.86C343.46 29.7 349.51 29.19 351.3 29.12C357.7 28.87 363.92 28.52 364.83 28.36C365.48 28.25 367.79 28.09 369.98 27.99C372.17 27.9 374.66 27.76 375.52 27.68C376.37 27.59 377.67 27.47 378.4 27.39C379.29 27.31 379.72 27.18 379.7 26.99C379.69 26.84 379.92 26.74 380.24 26.77C380.61 26.79 380.78 26.69 380.76 26.44C380.74 26.19 380.56 26.1 380.16 26.15C379.81 26.2 379.62 26.13 379.69 26C379.88 25.61 382.43 25.23 386.24 25.02C390.58 24.79 390.56 24.79 392.47 24.26C393.29 24.03 394.61 23.82 395.42 23.79C396.22 23.77 397.65 23.62 398.6 23.47C400.21 23.2 402.98 23.2 403.48 23.47C403.58 23.52 402.99 23.64 402.16 23.73C401.33 23.82 400.19 24.02 399.62 24.17C399.06 24.32 398.08 24.45 397.45 24.46C396.82 24.47 395.61 24.58 394.75 24.72C393.9 24.85 392.01 25.07 390.56 25.19C389.1 25.32 387.88 25.49 387.84 25.57C387.8 25.65 386.96 25.72 385.96 25.72C383.69 25.71 383.1 25.92 383.7 26.5C384.05 26.84 384.37 26.91 385.35 26.87C386.02 26.85 386.67 26.77 386.78 26.69C386.9 26.62 387.46 26.55 388.04 26.53C388.61 26.52 389.08 26.43 389.07 26.33C389.06 26.23 389.38 26.22 389.93 26.31C390.41 26.4 391.23 26.43 391.74 26.38C393.08 26.27 395.3 25.77 395.29 25.59C395.28 25.51 395.6 25.43 395.98 25.43C396.57 25.41 396.61 25.45 396.23 25.62C395.91 25.76 396.86 25.77 399.64 25.63C401.88 25.51 403.67 25.34 403.92 25.21C404.16 25.08 405.65 24.91 407.24 24.82C409.13 24.71 410.54 24.53 411.33 24.28C412.06 24.06 413.23 23.9 414.28 23.87C415.29 23.84 416.42 23.69 416.94 23.51C417.45 23.33 418.71 23.15 419.75 23.11C420.78 23.07 421.78 22.97 421.96 22.9C422.31 22.76 422.7 22.72 428.14 22.16C430.02 21.97 432.64 21.7 433.96 21.56C435.27 21.42 439.04 20.84 442.33 20.26C445.62 19.69 448.74 19.16 449.25 19.09C449.76 19.03 451.02 18.86 452.05 18.73C453.07 18.6 454.26 18.44 454.69 18.38C455.12 18.33 456.48 18.18 457.71 18.05C459.77 17.84 463.69 17.12 470.01 15.8C471.36 15.52 473.44 14.99 474.64 14.62C478.24 13.52 478.48 13.47 478.52 13.92C478.54 14.26 478.67 14.28 479.91 14.14C480.66 14.06 482.34 13.72 483.64 13.39C484.94 13.06 486.19 12.79 486.41 12.78C486.63 12.78 487.12 12.6 487.5 12.39C487.89 12.18 488.49 12 488.86 11.99C489.75 11.97 490.87 11.47 492.44 10.4C493.38 9.77 494.01 9.5 494.6 9.49C495.55 9.46 495.59 9.51 495.14 10.06C494.63 10.67 494.56 11.45 495.03 11.43C496.29 11.37 496.53 11.45 496.57 11.96C496.61 12.41 496.71 12.47 497.26 12.38C497.61 12.31 498.04 12.12 498.21 11.94C498.45 11.7 498.77 11.65 499.68 11.72C501.01 11.83 501.91 11.65 502.82 11.11C503.17 10.91 503.62 10.78 503.83 10.82C504.04 10.86 504.81 10.55 505.54 10.14C506.56 9.56 506.99 9.42 507.42 9.54C508.41 9.82 509.65 9.29 512.37 7.42C512.69 7.2 513.06 7.02 513.2 7.02C513.58 7.01 513.57 7.69 513.18 7.85C512.51 8.11 510.82 10.02 511.02 10.29C511.2 10.53 511.3 10.53 511.97 10.25C513.07 9.79 513.67 9.83 513.71 10.38C513.73 10.64 513.61 11.02 513.43 11.22C512.98 11.77 513.58 12.04 514.59 11.74C515.02 11.62 515.37 11.58 515.38 11.66C515.4 11.89 519.24 11.57 519.89 11.28C520.22 11.13 520.74 11.01 521.05 11C521.7 10.98 522.69 10.66 523.63 10.15C524.04 9.93 524.53 9.83 524.91 9.89C525.7 10.01 527.15 9.6 527.12 9.26C527.11 9.12 527.26 9.06 527.46 9.12C527.65 9.19 527.77 9.48 527.72 9.77C527.66 10.06 527.75 10.34 527.9 10.39C528.38 10.55 530.04 10.21 529.8 10.01C529.67 9.9 529.73 9.87 529.96 9.94C530.17 10.01 530.72 9.82 531.24 9.49C532.07 8.97 533.35 8.82 532.88 9.3C532.77 9.41 532.87 9.45 533.12 9.39C533.36 9.33 534.31 9.11 535.23 8.9C536.59 8.58 537.04 8.36 537.65 7.72C538.34 6.99 539.17 6.66 539.2 7.09C539.21 7.2 540.29 6.92 541.61 6.49C544.34 5.59 544.6 5.55 544.85 6.02C545.03 6.36 544.64 6.77 544.12 6.78C543.68 6.79 539.53 8.64 538.75 9.17C538.36 9.44 537.91 9.67 537.75 9.67C537.6 9.67 537.05 9.93 536.52 10.24C535.99 10.56 535.39 10.82 535.19 10.82C534.99 10.83 534.79 10.9 534.73 10.98C534.68 11.06 533.88 11.33 532.95 11.59C531.25 12.05 529.59 12.87 529.62 13.22C529.63 13.33 529.02 13.67 528.26 13.97C527.51 14.27 526.9 14.59 526.91 14.68C526.91 14.77 526.68 14.85 526.39 14.86C526.1 14.87 525.58 15.04 525.24 15.24C524.9 15.44 523.79 15.71 522.78 15.85C521.77 15.98 520.73 16.2 520.47 16.34C519.64 16.77 516.09 17.81 513.84 18.28C511.3 18.81 510.91 18.97 511.11 19.44C511.18 19.63 511.12 19.79 510.95 19.79C510.79 19.8 510.67 19.93 510.68 20.09C510.71 20.42 510.9 20.4 513.48 19.72C515.6 19.17 517.19 18.97 517.21 19.27C517.23 19.54 519.48 19.29 520.76 18.87C521.6 18.59 526.6 17.4 526.95 17.39C527.04 17.39 526.6 17.67 525.98 18.02C524.96 18.59 523.41 19.21 520.94 20.04C520.24 20.27 520.11 20.43 520.22 20.87C520.31 21.26 520.18 21.48 519.75 21.64C518.59 22.06 518.37 22.38 518.63 23.23C518.77 23.68 518.95 24.11 519.04 24.18C519.28 24.39 520.38 23.94 520.36 23.64C520.35 23.49 520.45 23.37 520.58 23.37C520.71 23.36 521.21 23.15 521.69 22.88C522.49 22.45 522.9 22.33 523.21 22.44C523.28 22.46 523.83 22.1 524.44 21.63C525.06 21.17 525.68 20.74 525.84 20.67C526 20.61 526.34 20.3 526.61 19.99C527.32 19.18 528.7 17.89 529.31 17.48C529.61 17.27 529.77 16.92 529.69 16.63C529.57 16.19 529.71 16.1 530.93 15.81C531.97 15.56 532.31 15.54 532.32 15.71C532.33 15.84 532.13 16.05 531.88 16.18C531.63 16.31 531.44 16.55 531.45 16.71C531.46 16.88 531.27 17.2 531.02 17.43C530.77 17.66 530.65 17.84 530.76 17.84C530.88 17.84 530.63 18.21 530.21 18.66C529.72 19.2 529.58 19.52 529.81 19.6C530 19.66 530.32 19.57 530.52 19.39C531.05 18.93 532.08 19.07 532.22 19.62C532.3 19.96 532.08 20.17 531.36 20.46C530.51 20.8 529.66 21.76 530.03 21.96C530.11 22 530.6 21.94 531.14 21.84C532.53 21.57 533.21 22.13 532.84 23.23C532.78 23.4 533.02 23.52 533.43 23.55C534.12 23.59 535.67 22.74 535.64 22.33C535.62 22.08 536.48 21.83 536.88 21.96C537.03 22.01 536.89 22.54 536.57 23.15C536.2 23.84 536.09 24.31 536.28 24.41C536.45 24.49 537.44 24.58 538.48 24.6C540.04 24.63 540.52 24.56 541.28 24.23C542.11 23.86 542.91 23.75 545.62 23.64C546.16 23.61 546.72 23.72 546.97 23.91C547.2 24.07 547.39 24.12 547.38 24.01C547.36 23.79 547.86 23.66 549.48 23.46C550.31 23.35 550.56 23.39 550.69 23.65C551 24.22 552.95 24.38 554.96 24.01C556.7 23.68 557.93 23.71 557.59 24.07C557.49 24.17 557.08 24.26 556.67 24.27C556.17 24.29 555.97 24.39 556.01 24.61C556.06 24.85 555.79 24.94 554.83 25.01C554.14 25.06 553.45 25.18 553.3 25.28C553.14 25.38 552.7 25.46 552.33 25.47C551.95 25.48 551.44 25.69 551.18 25.94C550.92 26.19 550.46 26.45 550.14 26.52C549.77 26.59 549.6 26.78 549.67 27.04C549.73 27.26 549.8 27.51 549.82 27.58C549.92 27.97 553.6 27.44 553.57 27.05C553.56 26.96 553.75 26.89 553.97 26.88C554.66 26.87 556.87 25.56 557.36 24.88C557.62 24.53 558.02 24.24 558.26 24.23C558.5 24.23 558.69 24.16 558.69 24.09C558.67 23.87 560.53 23.25 560.85 23.36C561.28 23.5 561.24 23.73 560.64 24.53L560.1 25.26L561.04 25.35C561.55 25.4 563.09 25.36 564.46 25.25C566.44 25.1 567.37 24.92 569 24.37C570.13 23.99 571.12 23.62 571.2 23.54C571.39 23.37 572.72 22.92 572.73 23.03C572.75 23.31 572.33 23.7 571.99 23.7C571.77 23.71 571.52 23.84 571.43 23.99C571.34 24.14 570.98 24.27 570.63 24.28C570.28 24.29 570.01 24.42 570.02 24.57C570.03 24.72 569.83 24.85 569.58 24.86C569.33 24.86 568.66 25.12 568.09 25.44C567.53 25.75 566.9 26.01 566.71 26.02C566.51 26.02 565.84 26.23 565.21 26.48C564.59 26.73 563.76 27.01 563.38 27.09C563 27.17 562.52 27.34 562.31 27.46C562.11 27.59 561.14 27.95 560.17 28.26C559.04 28.63 558.54 28.88 558.79 28.96C559 29.03 559.67 28.93 560.27 28.73C561.98 28.18 563.37 28.01 563.4 28.36C563.41 28.52 563.29 28.65 563.13 28.65C562.97 28.66 562.77 28.81 562.68 28.99C562.54 29.3 561.84 29.54 557.12 30.89C555.35 31.39 554.94 31.65 554.46 32.6C553.99 33.51 553.84 33.96 554.04 33.94C555.1 33.83 553.96 34.58 552.11 35.22C551.13 35.56 549.91 36.85 549.52 37.94C549.43 38.21 549.02 38.57 548.61 38.74C548.01 38.99 547.9 39.16 548.04 39.68C548.18 40.21 548.1 40.35 547.53 40.49C546.33 40.79 543.48 42.73 542.73 43.76C541.99 44.78 540.93 45.33 540.05 45.16C539.38 45.03 539.39 44.54 540.07 43.82C540.41 43.47 540.52 43.18 540.33 43.12C539.95 43 537.46 43.24 535.91 43.55C534.62 43.81 534.36 44.28 535.53 44.25C535.94 44.24 536.62 44.37 537.04 44.55C537.68 44.83 537.73 44.92 537.4 45.18C537.18 45.34 536.89 45.44 536.76 45.4C536.31 45.25 533.1 45.98 532.4 46.4C532 46.63 531.06 46.98 530.31 47.17C529.55 47.37 528.76 47.69 528.54 47.89C528.32 48.09 527.95 48.25 527.71 48.26C527.47 48.27 527.18 48.37 527.07 48.49C526.93 48.63 527 48.65 527.29 48.54C527.53 48.45 527.41 48.6 527.03 48.86C526.52 49.22 526.45 49.36 526.77 49.42C527 49.47 527.24 49.72 527.29 49.98C527.37 50.34 527.2 50.52 526.63 50.68C526.21 50.81 525.87 50.97 525.88 51.05C525.89 51.13 525.55 51.43 525.14 51.72C524.73 52.01 524.15 52.42 523.86 52.63C523.56 52.83 522.97 53.31 522.53 53.67L521.74 54.34L522.62 54.72L523.49 55.09L525.45 53.82C526.52 53.13 527.54 52.39 527.7 52.18C527.86 51.97 528.37 51.68 528.83 51.54C529.29 51.4 529.66 51.22 529.65 51.14C529.64 50.95 531.06 50.54 531.81 50.52C532.21 50.51 532.36 50.59 532.25 50.78C532.16 50.93 532.23 51.05 532.41 51.05C533.07 51.03 533.71 50.79 533.69 50.56C533.68 50.42 533.95 50.26 534.29 50.18C534.63 50.11 534.9 49.94 534.89 49.79C534.87 49.65 535 49.53 535.16 49.53C535.57 49.52 536.68 48.48 536.8 47.99C536.86 47.76 537.27 47.38 537.73 47.15C538.18 46.92 538.47 46.69 538.36 46.63C538.08 46.48 539.64 45.42 540.17 45.4C540.53 45.39 540.52 45.46 540.12 45.74C539.85 45.93 539.73 46.14 539.86 46.21C539.99 46.28 539.87 46.29 539.59 46.23C539.23 46.16 539.03 46.27 538.91 46.61C538.82 46.88 538.82 47.15 538.91 47.23C539 47.31 538.48 47.77 537.74 48.25C537.01 48.74 536.21 49.4 535.97 49.73C535.34 50.6 534.97 50.96 533.57 52.08C532.87 52.63 532.32 53.19 532.33 53.33C532.34 53.47 532.17 53.65 531.96 53.73C531.75 53.82 531.41 54.1 531.21 54.36C531 54.62 530.36 55 529.78 55.2C529.2 55.4 528.74 55.68 528.75 55.83C528.77 56.04 528.68 56.05 528.27 55.87C527.67 55.61 525.61 55.96 524.75 56.48C524.01 56.92 523.2 57.25 522.21 57.5C521.53 57.68 521.43 57.78 521.69 58.03C521.91 58.25 521.85 58.53 521.48 58.97C521.19 59.32 520.88 59.57 520.78 59.52C520.49 59.37 519.34 60.14 519.37 60.47C519.38 60.64 519.08 60.85 518.7 60.92C518.31 60.99 517.6 61.38 517.11 61.78C515.87 62.8 513.86 63.56 514.52 62.76C514.7 62.56 514.74 62.31 514.63 62.21C514.51 62.11 514.54 62.05 514.68 62.06C515.14 62.11 516.61 61.57 516.43 61.42C516.33 61.34 516.47 61.26 516.74 61.26C517.01 61.25 517.22 61.12 517.21 60.98C517.17 60.49 518.09 59.48 518.75 59.29C519.11 59.18 519.64 58.83 519.94 58.5L520.49 57.89L519.57 57.91C518.41 57.94 516.7 58.33 516.71 58.56C516.72 58.65 516.55 58.71 516.33 58.69C515.92 58.64 513.27 59.17 513.01 59.34C512.54 59.67 507.8 60.8 506.53 60.89C505.57 60.96 504.67 61.23 504.86 61.39C504.97 61.48 504.9 61.56 504.72 61.56C504.09 61.58 503.92 61.62 503.75 61.79C503.65 61.89 503.28 61.91 502.83 61.82C502.37 61.74 501.75 61.77 501.22 61.9C500.25 62.14 500.13 62.31 500.85 62.45C501.11 62.5 501.33 62.66 501.34 62.8C501.35 62.94 501.58 63.1 501.84 63.15C502.1 63.2 502.32 63.33 502.33 63.44C502.36 63.74 499.41 64.54 496.8 64.95C495.52 65.15 493.8 65.52 492.99 65.78C492.18 66.04 491.26 66.26 490.95 66.27C490.64 66.28 490.22 66.41 490.01 66.57C489.74 66.77 489.13 66.86 487.87 66.86C485.99 66.86 485.34 67 485.37 67.41C485.4 67.78 483.96 68.33 481.67 68.82C479.35 69.32 476.74 70.26 476.93 70.53C476.99 70.63 477.6 70.67 478.27 70.64C478.94 70.6 479.28 70.61 479.03 70.67C477.19 71.11 476.21 71.48 475.81 71.86C475.56 72.11 475.18 72.29 474.97 72.28C474.77 72.27 474.2 72.36 473.73 72.49C473.25 72.62 472.73 72.72 472.58 72.73C471.73 72.75 469.47 73.66 469.17 74.11C468.99 74.39 468.72 74.58 468.58 74.53C468.44 74.49 468.33 74.53 468.34 74.64C468.35 74.74 468.16 74.78 467.92 74.74C467.64 74.68 467.42 74.81 467.33 75.08C467.24 75.31 466.86 75.59 466.47 75.7C466.07 75.81 465.78 76.06 465.79 76.26C465.83 76.75 464.64 77.08 463.02 77.01C461.53 76.95 461 77.23 461.8 77.65C462.49 78.01 462.17 78.29 461.21 78.17C460.66 78.11 460.45 78.16 460.46 78.35C460.49 78.79 459.04 79.64 458.28 79.62C457.13 79.6 456.9 79.65 456.87 79.94C456.85 80.09 456.82 80.33 456.8 80.48C456.78 80.62 456.65 80.7 456.5 80.66C456.35 80.61 456.24 80.7 456.25 80.85C456.27 81.01 456.06 81.14 455.79 81.15C455.52 81.15 455.38 81.23 455.48 81.31C455.57 81.39 455.31 81.57 454.9 81.72C454.48 81.86 454.15 82.04 454.15 82.12C454.16 82.19 453.68 82.22 453.08 82.18C452.3 82.13 451.76 82.21 451.14 82.49C450.11 82.95 446.72 83.47 446.7 83.17C446.69 83.08 446.2 83.02 445.59 83.04C444.7 83.06 444.5 83.14 444.52 83.43C444.54 83.63 444.41 83.8 444.24 83.8C444.07 83.8 443.94 83.97 443.95 84.17C443.97 84.37 444.1 84.53 444.26 84.53C444.41 84.52 444.64 84.65 444.76 84.81C445.05 85.19 443.89 85.99 443.02 86.01C442.64 86.02 442.12 86.27 441.78 86.59C441.46 86.89 440.96 87.15 440.67 87.16C440.39 87.17 440.11 87.24 440.06 87.31C440 87.39 439.48 87.59 438.89 87.76C438.3 87.94 436.92 88.35 435.82 88.69C434.72 89.03 433.15 89.37 432.33 89.44C430.8 89.59 427.69 90.41 427.35 90.76C427.25 90.87 426.89 90.96 426.55 90.97C426.21 90.98 425.86 91.11 425.77 91.26C425.68 91.41 425.06 91.63 424.4 91.76C423.73 91.88 423.25 92.04 423.35 92.12C423.61 92.35 428.54 92.04 430.55 91.67C434.12 91.01 437.24 90.31 438.2 89.95C438.74 89.75 440.31 89.47 441.69 89.34C443.06 89.2 444.57 89 445.03 88.88C445.5 88.76 446.19 88.63 446.57 88.57C447.76 88.4 451.48 87.49 451.68 87.31C452.11 86.94 454.51 86.27 455.49 86.24C456.07 86.23 456.8 86.09 457.13 85.93C457.45 85.78 457.94 85.64 458.22 85.63C458.5 85.62 458.89 85.5 459.08 85.35C459.27 85.21 460.13 84.94 460.99 84.75C461.85 84.56 463.4 84.08 464.43 83.69C466.58 82.86 472.01 81.09 472.63 81.02C473.87 80.86 475.61 80.37 476.28 79.99C476.69 79.75 477.85 79.29 478.87 78.96C479.88 78.64 481.87 77.88 483.29 77.29C484.71 76.69 486.03 76.2 486.23 76.2C486.42 76.19 486.76 76.05 486.98 75.88C487.21 75.71 488.23 75.32 489.26 75C490.3 74.68 491.74 74.07 492.46 73.65C493.8 72.88 500.34 70.03 500.81 70.02C500.95 70.01 501.55 69.68 502.15 69.27C502.82 68.82 503.82 68.41 504.76 68.2C505.59 68.01 506.68 67.61 507.18 67.32C507.67 67.02 508.36 66.74 508.7 66.7C509.04 66.65 509.31 66.52 509.3 66.41C509.27 65.95 509.8 65.92 510.53 66.35L511.31 66.79L510.26 67.34C509.69 67.65 508.76 68.17 508.19 68.51C507.63 68.85 507.08 69.13 506.98 69.13C506.57 69.14 505.67 70 505.69 70.36C505.71 70.84 504.82 71.37 503.98 71.39C503.63 71.4 503.11 71.57 502.83 71.77C502.55 71.96 501.91 72.23 501.41 72.37C500.92 72.5 500.52 72.72 500.53 72.85C500.55 73.16 498.79 74.21 497.98 74.38C497.64 74.45 497.12 74.64 496.83 74.8C496.54 74.96 496.3 75.03 496.3 74.95C496.29 74.87 495.82 75.04 495.25 75.31C494.67 75.59 494.12 75.82 494.01 75.82C493.91 75.82 492.98 76.17 491.95 76.6C490.92 77.03 489.91 77.38 489.72 77.38C489.17 77.4 487.42 77.99 487.44 78.16C487.44 78.24 487.06 78.37 486.59 78.46C486.13 78.54 484.22 79.08 482.36 79.67C480.5 80.26 478.73 80.75 478.43 80.76C478.12 80.76 477.58 80.97 477.22 81.22C476.85 81.46 476.01 81.85 475.33 82.08C473.45 82.73 472.96 82.95 472.36 83.41C472.06 83.64 471.7 83.8 471.56 83.75C471.42 83.71 470.86 83.89 470.3 84.15C469.74 84.41 469.11 84.63 468.9 84.63C468.69 84.64 467.8 85.01 466.91 85.46C466.02 85.91 464.95 86.39 464.53 86.53C464.11 86.66 463.14 87 462.39 87.28C460.01 88.15 457.58 88.91 457.19 88.92C456.98 88.93 456.41 89.11 455.93 89.33C455.45 89.54 454.33 89.87 453.43 90.04C452.53 90.22 451.59 90.48 451.34 90.61C450.52 91.05 446.6 91.77 444.23 91.91C442.77 92 441.7 92.16 441.39 92.34C441.11 92.5 440.56 92.66 440.16 92.7C439.75 92.74 439.21 92.82 438.96 92.88C436.51 93.44 431.65 94.11 429.74 94.16C429.02 94.18 428.09 94.28 427.68 94.38C427.27 94.48 425.42 94.66 423.56 94.77C421.71 94.89 419.97 95.05 419.7 95.14C418.33 95.6 416.42 95.95 415.06 95.98C414.22 96 413.03 96.16 412.41 96.33C411.14 96.68 407.5 97.25 405.41 97.44L404 97.56L405.11 97.17C405.76 96.94 406.54 96.81 406.97 96.85C407.71 96.92 407.71 96.92 407.07 96.64C406.37 96.34 404.72 96.43 402.66 96.91C401.69 97.13 401.62 97.19 402.08 97.39C402.92 97.76 402.71 97.89 400.99 98.13C397.09 98.67 396.17 98.7 394.94 98.3C393.78 97.93 393.25 97.93 390.25 98.33C389.74 98.39 388.99 98.48 388.6 98.53C388.2 98.57 387.78 98.69 387.67 98.8C387.57 98.91 386.92 99.06 386.24 99.14C384.82 99.31 384.8 99.32 381.38 99.36C380 99.38 378.79 99.44 378.69 99.5C378.6 99.56 378 99.51 377.36 99.4C375.84 99.13 373.9 99.35 374.35 99.73C375.04 100.32 379.27 100.68 378.84 100.11C378.74 99.98 378.92 99.87 379.28 99.84C379.61 99.82 379.97 99.92 380.08 100.06C380.18 100.2 380.49 100.31 380.76 100.3C381.17 100.29 381.16 100.34 380.71 100.66C380.2 101.02 380.22 101.02 382.39 100.97C383.61 100.93 384.89 100.99 385.24 101.08C385.59 101.18 386.93 101.24 388.22 101.2C390.07 101.16 390.59 101.08 390.73 100.85C390.87 100.6 391.41 100.56 394.74 100.57C401.78 100.58 402.85 100.65 403.68 101.16L404.42 101.61L402.19 101.86C400.96 101.99 399.55 102.05 399.05 101.99C397.81 101.83 388.28 102.26 387.05 102.52C385.99 102.75 384.94 102.83 377.29 103.27C374.62 103.42 371.73 103.69 370.86 103.86C369.9 104.06 369.09 104.12 368.83 104.04C368.12 103.8 366.15 103.92 365.75 104.22C365.51 104.4 365.11 104.47 364.6 104.41C363.82 104.32 362.33 104.69 362.35 104.98C362.37 105.18 363.7 105.43 365.05 105.5C366.28 105.55 369.35 106.24 369.37 106.46C369.38 106.54 368.14 106.61 366.63 106.6C355.84 106.55 352.75 106.67 352.78 107.11C352.81 107.46 350.07 107.57 346.68 107.37C345.12 107.28 343.35 107.21 342.75 107.22C342.15 107.23 339.18 107.23 336.17 107.21C330.58 107.18 327.24 107.36 327.6 107.68C327.72 107.78 327.37 107.84 326.75 107.84C324.67 107.83 324.29 107.89 324.52 108.2C324.66 108.38 324.6 108.46 324.37 108.43C324.17 108.39 323.99 108.29 323.97 108.19C323.92 108 321.18 107.64 320.03 107.66C319.44 107.68 319.44 107.69 319.98 107.91C320.34 108.05 320.48 108.25 320.36 108.45C320.21 108.72 319.94 108.76 318.88 108.69C316.32 108.51 314.19 108.54 313.56 108.76C313.2 108.88 312.28 109.02 311.51 109.07C309.72 109.18 306.67 109.42 306.67 109.45C306.67 109.46 306.32 109.51 305.89 109.57C305.47 109.63 305.08 109.75 305.03 109.85C304.98 109.95 304.28 110.05 303.47 110.07C301.86 110.11 301.16 110.31 301.33 110.66C301.39 110.79 301.25 110.94 301.02 110.99C300.76 111.05 300.67 111.01 300.78 110.89C301.01 110.66 299.8 110.27 299.36 110.44C299.09 110.55 298.88 110.05 298.96 109.5C299 109.22 298.93 109.22 296.61 109.52C294.55 109.79 292.14 110.33 292.16 110.53C292.18 110.82 290.45 111.13 287.89 111.29C286.39 111.38 284.61 111.59 283.93 111.75C283.26 111.91 282.42 112.08 282.08 112.11C281.74 112.15 280.97 112.33 280.38 112.52C279.59 112.76 277.74 112.94 273.37 113.19C270.11 113.37 266.88 113.63 266.2 113.75C265.51 113.87 264.05 114.11 262.94 114.27C259.73 114.75 259.22 114.85 259.05 115.02C258.96 115.11 258.36 115.2 257.72 115.22C257.08 115.23 256.4 115.34 256.22 115.45C256.03 115.58 255.09 115.66 253.97 115.65C252.92 115.64 252.06 115.69 252.07 115.77C252.08 115.91 250.72 116 250.48 115.87L250.48 115.87ZM273.61 115.61C273.49 115.54 273.38 115.41 273.37 115.3C273.37 115.19 273.51 115.2 273.75 115.32C273.96 115.43 274.06 115.57 273.98 115.62C273.89 115.68 273.73 115.67 273.61 115.61ZM282.34 115.51C281.72 115.4 281.72 115.4 282.33 115.19C282.67 115.07 283.57 114.91 284.33 114.83C285.89 114.66 288.78 114.13 289.78 113.83C290.24 113.69 290.62 113.69 291.04 113.82C291.39 113.94 291.44 114 291.16 113.96C290.9 113.93 290.55 114 290.39 114.12C290.13 114.31 288.03 114.74 284.05 115.43C283.46 115.53 282.69 115.57 282.34 115.51L282.34 115.51ZM303.34 108.98C303.75 108.81 303.74 108.77 303.31 108.62C302.78 108.44 301.31 108.42 301.03 108.6C300.93 108.66 300.94 108.83 301.04 108.96C301.26 109.25 302.66 109.26 303.34 108.98L303.34 108.98ZM360.23 106.01C361.18 105.97 362.21 106 362.51 106.07C362.87 106.16 363.07 106.14 363.06 106.02C363.05 105.91 362.8 105.78 362.5 105.72C362.2 105.66 361.66 105.44 361.29 105.22C360.74 104.89 360.08 104.8 357.63 104.7C355.98 104.63 353.97 104.53 353.15 104.47C352.33 104.42 351.74 104.43 351.84 104.51C351.93 104.6 351.44 104.68 350.74 104.69C350.04 104.71 349.47 104.8 349.48 104.89C349.51 105.27 350.51 105.57 351.69 105.55C352.37 105.53 353.38 105.64 353.93 105.79C354.47 105.94 355.06 106 355.23 105.94C355.4 105.87 355.72 105.89 355.93 105.98C356.47 106.21 357.5 106.32 358.05 106.19C358.31 106.13 359.29 106.05 360.23 106.01L360.23 106.01ZM379.63 101.06C379.99 100.91 379.89 100.87 379.21 100.89C378.7 100.9 378.42 100.98 378.54 101.09C378.79 101.3 379.05 101.3 379.63 101.06L379.63 101.06ZM327.33 101.71C327.1 101.66 326.83 101.68 326.73 101.74C326.63 101.8 326.82 101.84 327.15 101.82C327.51 101.81 327.58 101.76 327.33 101.71L327.33 101.71ZM332.54 100.78C331.31 100.83 330.31 100.73 328.97 100.42C327.71 100.13 326.99 100.05 326.75 100.18C326.55 100.28 326.11 100.4 325.78 100.45C325.24 100.52 325.27 100.56 326.07 100.84C326.68 101.05 327.79 101.15 329.53 101.17C330.94 101.18 332.14 101.22 332.21 101.26C332.45 101.39 334.8 101.15 335.09 100.97C335.45 100.74 334.87 100.7 332.54 100.78ZM321.81 100.59C321.39 100.47 320.7 100.38 320.27 100.39C319.53 100.41 319.52 100.42 320.08 100.65C320.41 100.78 321.1 100.87 321.62 100.85L322.57 100.81L321.81 100.59L321.81 100.59ZM399.21 97.43C399 97.48 398.83 97.58 398.84 97.67C398.85 97.8 399.16 97.86 400.51 97.96C400.64 97.97 400.73 97.87 400.72 97.73C400.7 97.46 399.84 97.29 399.21 97.43ZM268.22 96.88C268.4 96.93 268.54 96.9 268.53 96.8C268.51 96.61 267.78 96.53 264.73 96.42C263.12 96.36 263.04 96.37 263.54 96.64C264.39 97.1 267.94 97.34 267.91 96.94C267.9 96.85 268.04 96.82 268.22 96.88ZM205.09 98.21C204.97 98.1 204.73 98.07 204.55 98.14C204.35 98.22 204.39 98.31 204.66 98.4C205.18 98.57 205.4 98.47 205.09 98.21ZM262.18 96.39C262.01 96.4 261.96 96.48 262.08 96.58C262.19 96.67 262.43 96.75 262.6 96.74C262.77 96.74 262.82 96.66 262.7 96.56C262.59 96.46 262.36 96.39 262.18 96.39ZM105.54 99.53C106.05 99.45 106.46 99.3 106.46 99.2C106.45 99.08 106.11 99.07 105.59 99.16C105.12 99.24 104.28 99.36 103.73 99.43C102.54 99.57 102.37 100.06 103.52 100.03C103.94 100.02 104.36 99.94 104.45 99.84C104.54 99.75 105.03 99.61 105.54 99.53ZM86.12 100C86.12 99.96 85.9 99.93 85.64 99.94C85.38 99.95 85.18 100.03 85.19 100.13C85.19 100.23 85.41 100.25 85.66 100.19C85.92 100.12 86.12 100.04 86.12 100ZM98.78 99.51C99.32 99.25 99.32 99.2 98.85 98.95C98.44 98.73 98.2 98.72 97.68 98.9C97.04 99.12 96.87 99.48 97.29 99.71C97.63 99.89 98.13 99.82 98.78 99.51ZM121.79 98.12C122.55 98.1 124.83 97.28 124.62 97.1C124.49 96.99 124.32 97.01 124.18 97.17C124 97.35 123.84 97.36 123.49 97.21C122.63 96.83 116.56 98.28 116.24 98.94C116.16 99.11 116.6 99.16 117.77 99.13C119.04 99.1 119.64 98.98 120.41 98.61C120.95 98.35 121.57 98.13 121.79 98.12ZM101.14 98.7C100.91 98.65 100.64 98.67 100.54 98.73C100.44 98.79 100.63 98.83 100.96 98.81C101.33 98.8 101.4 98.75 101.14 98.7L101.14 98.7ZM216.16 94.47C214.63 94.4 212.03 94.17 210.39 93.97C206.97 93.54 207.09 93.55 207.1 93.76C207.12 93.94 210.43 94.67 211.13 94.65C211.37 94.65 211.57 94.7 211.57 94.77C211.59 95.06 213.39 95.23 216.56 95.24C218.03 95.24 219.02 95.33 219.33 95.5C219.6 95.64 220.39 95.75 221.08 95.74C222.28 95.72 222.32 95.71 221.9 95.37C221.32 94.91 219.59 94.64 216.16 94.47ZM200.97 95.68C200.53 95.56 199.55 95.43 198.8 95.4C197.58 95.34 197.5 95.36 198.04 95.56C198.58 95.76 199.55 95.86 201.3 95.89C201.56 95.9 201.41 95.81 200.97 95.68ZM203.9 95.17C204.68 95.41 206.19 95.59 207.24 95.57C207.9 95.55 207.83 95.5 206.74 95.24C205.3 94.89 202.77 94.83 203.9 95.17ZM126.97 96.35C126.64 96.36 126.29 96.45 126.19 96.56C126.08 96.66 126.35 96.73 126.81 96.72C127.25 96.71 127.6 96.62 127.6 96.52C127.59 96.42 127.31 96.35 126.97 96.35ZM118.44 95.74C118.43 95.7 118.21 95.67 117.94 95.67C117.67 95.68 117.55 95.77 117.66 95.87C117.86 96.03 118.45 95.93 118.44 95.74ZM202.81 93.19C202.33 92.96 200.75 92.83 200.77 93.02C200.78 93.2 201.47 93.33 202.5 93.34C202.87 93.34 202.99 93.28 202.81 93.19ZM129.76 93.47C130.39 93.39 131.08 93.21 131.3 93.07C132.01 92.62 130.84 92.59 129.52 93.02C128.87 93.24 128.14 93.42 127.91 93.42C127.67 93.43 127.22 93.56 126.9 93.72C126.34 93.98 126.36 94 127.31 93.98C127.86 93.97 128.38 93.88 128.47 93.79C128.55 93.7 129.14 93.56 129.76 93.47ZM92.99 93.32C90.42 93.51 90.03 93.58 90.05 93.83C90.06 94.06 92.15 93.85 93.94 93.45C95.16 93.17 95.15 93.17 92.99 93.32ZM89.67 93.02C89.67 92.97 89.52 92.94 89.35 92.94C89.18 92.95 89.05 93.04 89.05 93.14C89.06 93.25 89.21 93.28 89.37 93.22C89.54 93.15 89.67 93.06 89.67 93.02ZM97.49 92.72C97.47 92.45 96.02 92.57 95.62 92.88C95.21 93.19 95.56 93.23 96.81 93C97.19 92.93 97.5 92.8 97.49 92.72ZM91.73 92.3C92.19 92.16 92.61 91.9 92.65 91.72C92.72 91.46 92.5 91.41 91.35 91.44C90.58 91.46 89.32 91.54 88.54 91.62C87.37 91.75 87.11 91.85 87.02 92.21C86.92 92.57 87.04 92.64 87.73 92.65C89.2 92.66 89.3 92.67 89.71 92.89C90.26 93.18 90.94 93.14 90.91 92.82C90.9 92.68 91.27 92.44 91.73 92.3ZM83.06 92.74C83.05 92.64 82.76 92.56 82.42 92.57C82.08 92.58 81.8 92.67 81.81 92.77C81.81 92.87 82.1 92.94 82.45 92.94C82.79 92.93 83.07 92.84 83.06 92.74ZM85.08 92.44C84.29 92.64 84.59 92.88 85.58 92.86C86.1 92.84 86.51 92.76 86.51 92.67C86.49 92.44 85.63 92.3 85.08 92.44ZM105.77 91.58C106.02 91.32 101.89 91.71 100.75 92.05C99.84 92.33 99.85 92.33 101.38 92.19C102.24 92.11 103.54 91.98 104.27 91.9C105 91.82 105.67 91.68 105.77 91.58ZM95.35 91.34C95.24 91.24 94.94 91.17 94.69 91.17C94.44 91.18 94.25 91.27 94.25 91.37C94.26 91.47 94.56 91.54 94.91 91.53C95.27 91.52 95.47 91.44 95.35 91.34ZM97.07 90.97C96.87 90.93 96.48 90.97 96.19 91.04C95.75 91.15 95.74 91.19 96.13 91.32C96.42 91.41 96.75 91.38 97.02 91.25C97.31 91.09 97.32 91.01 97.07 90.97ZM107.22 90.33C107.11 90.24 107.2 90.13 107.42 90.08C107.63 90.03 107.44 89.96 106.99 89.92C106.55 89.89 105.91 89.92 105.59 90C105.03 90.14 105.05 90.16 105.79 90.32C106.8 90.53 107.46 90.54 107.22 90.33L107.22 90.33ZM112.01 89.61C112 89.51 111.78 89.48 111.51 89.55C111.24 89.62 110.89 89.67 110.72 89.68C110.55 89.68 110.5 89.76 110.6 89.85C110.84 90.05 112.03 89.85 112.01 89.61ZM93.52 87.85C94.24 87.59 95.14 87.35 95.54 87.31C96.5 87.2 96.64 86.8 95.73 86.71C93.54 86.49 92.92 86.52 93.12 86.83C93.4 87.28 91.79 87.6 88.82 87.67C86.45 87.73 82.73 88.38 82.76 88.74C82.79 89.14 82.99 89.14 89.45 88.56C91.35 88.39 92.63 88.17 93.52 87.85ZM99.46 87.51C99.45 87.41 98.91 87.32 98.26 87.3C97.35 87.28 97.09 87.34 97.11 87.57C97.12 87.8 97.39 87.84 98.3 87.78C98.94 87.73 99.46 87.61 99.46 87.51ZM99.59 86.33C98.61 86.35 98.3 86.28 98.15 86C98.01 85.74 97.7 85.65 96.99 85.66C96.01 85.69 95.88 85.8 96.26 86.3C96.4 86.49 96.87 86.58 97.61 86.56C98.24 86.55 98.97 86.61 99.24 86.7C99.85 86.91 100.57 86.82 100.72 86.52C100.79 86.37 100.44 86.3 99.59 86.33ZM457.12 76.7C456.97 76.46 457.89 76.19 458.97 76.16C459.59 76.15 460.18 75.99 460.5 75.76C460.78 75.55 461.19 75.38 461.41 75.37C461.64 75.37 461.9 75.23 461.99 75.07C462.09 74.91 462.5 74.7 462.91 74.59C463.33 74.49 463.6 74.31 463.52 74.18C463.32 73.88 461.65 74.05 461.2 74.41C460.98 74.6 460.54 74.68 460.04 74.64C459.53 74.59 459 74.7 458.59 74.92C458.24 75.11 457.66 75.33 457.3 75.41C456.51 75.57 454.88 76.6 454.81 76.98C454.7 77.61 456.01 77.73 456.77 77.17C457.01 76.99 457.17 76.78 457.12 76.7ZM88.18 85.76C87.76 85.84 87.23 85.91 87.02 85.91C86.8 85.92 86.63 86.01 86.64 86.11C86.66 86.37 88.2 86.21 88.61 85.89C88.9 85.67 88.83 85.64 88.18 85.76ZM66.82 81.77C66.42 81.51 64.95 81.47 64.97 81.72C64.99 81.99 65.35 82.08 66.28 82.04C67 82.01 67.11 81.95 66.82 81.77ZM53.14 78.78C52.5 78.56 51.78 78.58 52.04 78.8C52.15 78.9 52.56 78.97 52.93 78.96C53.49 78.94 53.53 78.91 53.14 78.78L53.14 78.78ZM46.2 78.39C46.22 78.58 47.78 78.7 48.25 78.55C48.42 78.5 48.2 78.41 47.76 78.35C46.61 78.19 46.19 78.2 46.2 78.39ZM54.84 77.95C55.23 77.71 54.52 77.59 53.14 77.67C52.68 77.69 52.51 77.79 52.63 77.95C52.82 78.21 54.44 78.2 54.84 77.95L54.84 77.95ZM56.1 77.81L55.11 77.86L56.06 77.98C57.43 78.14 57.54 78.14 57.31 77.94C57.2 77.85 56.65 77.79 56.1 77.81ZM71.36 74.86C71.18 74.87 71.05 74.95 71.06 75.05C71.07 75.15 71.21 75.23 71.38 75.23C71.56 75.22 71.69 75.14 71.68 75.04C71.68 74.94 71.53 74.86 71.36 74.86ZM52.63 72.07C52.99 72.05 52.96 71.99 52.47 71.79C51.78 71.52 49.24 71.52 48.55 71.8C48.21 71.93 48.32 72 49.04 72.07C49.55 72.12 50.11 72.19 50.29 72.21C50.46 72.23 50.95 72.22 51.38 72.18C51.81 72.14 52.37 72.09 52.63 72.07L52.63 72.07ZM56.7 71.96C56.95 71.86 57.09 71.77 57 71.76C56.91 71.75 56.17 71.73 55.35 71.7C54.14 71.66 53.86 71.7 53.88 71.93C53.9 72.26 55.93 72.28 56.7 71.96L56.7 71.96ZM483.46 54.56C483.92 54.38 483.81 54.09 483.27 54.11C482.98 54.11 482.81 54.29 482.84 54.57C482.85 54.82 483.02 55.02 483.2 55.02C483.38 55.01 483.45 54.94 483.34 54.85C483.23 54.75 483.29 54.63 483.46 54.56ZM517.39 53.52C517.59 53.18 517.33 53.18 516.34 53.55L515.57 53.82L516.4 53.81C516.86 53.8 517.3 53.67 517.39 53.52L517.39 53.52ZM517.27 51.56C518.59 51.95 521.63 50.97 522.73 49.81L523.28 49.23L521.7 49.38C520.75 49.47 519.86 49.68 519.46 49.91C519.1 50.13 518.55 50.31 518.25 50.32C517.95 50.32 517.62 50.42 517.52 50.52C517.42 50.62 517.22 50.67 517.08 50.63C516.94 50.58 516.3 50.84 515.66 51.2C514.47 51.86 514.61 52.03 515.99 51.63C516.47 51.48 516.93 51.46 517.27 51.56ZM50.19 61.7C49.9 61.49 49.16 61.37 47.89 61.34C46.09 61.28 46.04 61.29 46.5 61.61C47.44 62.27 47.89 62.37 49.2 62.22C49.89 62.14 50.5 62.06 50.54 62.04C50.58 62.02 50.42 61.87 50.19 61.7ZM44.84 51.91C44.85 52.13 45.93 52.21 46.05 52.01C46.11 51.92 46.01 51.77 45.82 51.67C45.47 51.48 44.82 51.64 44.84 51.91ZM45.39 50.96C45.37 50.72 44.66 50.03 44.29 49.91C43.23 49.54 42.34 50.44 43.28 50.94C44.08 51.36 45.42 51.38 45.39 50.96L45.39 50.96ZM43.17 49.01C42.64 48.48 42.07 48.51 42.11 49.07C42.14 49.4 42.53 49.55 43.3 49.53C43.57 49.52 43.53 49.38 43.17 49.01ZM496.85 36.41C496.83 36.26 496.68 36.14 496.51 36.15C496.34 36.15 496.21 36.28 496.22 36.43C496.23 36.58 496.38 36.7 496.55 36.69C496.72 36.69 496.86 36.56 496.85 36.41ZM282.7 34.97C283.3 34.87 284.49 34.72 285.34 34.65C286.2 34.57 287.05 34.39 287.23 34.24C287.62 33.93 288.38 33.88 289.23 34.12C289.79 34.27 294.12 33.94 294.48 33.71C294.55 33.66 294.42 33.5 294.17 33.34C293.78 33.09 292.92 33.09 286.36 33.36C282.31 33.52 278.22 33.72 277.28 33.8C275.63 33.93 273.26 34.48 273.27 34.73C273.27 34.79 274.1 34.95 275.1 35.08C277.06 35.33 280.95 35.27 282.7 34.97L282.7 34.97ZM301.25 33.1C300.8 32.72 295.43 33.19 295.47 33.61C295.48 33.81 297.04 33.89 298.3 33.75C298.9 33.68 299.6 33.6 299.86 33.57C300.66 33.48 301.4 33.23 301.25 33.1ZM44.58 36.48C44.41 36.48 44.36 36.56 44.47 36.66C44.58 36.76 44.47 36.84 44.22 36.85C43.72 36.86 43.31 37.36 43.73 37.44C43.88 37.47 44.09 37.77 44.2 38.12C44.78 39.94 45.43 40.26 45.34 38.68C45.26 37.3 44.97 36.47 44.58 36.48ZM361.13 31.16C361.99 31.34 362.61 31.33 364.42 31.11C365.65 30.97 368.33 30.77 370.37 30.68C372.42 30.58 374.31 30.43 374.58 30.34C374.85 30.24 376.91 30.12 379.15 30.06C381.39 30 383.85 29.84 384.61 29.7C385.38 29.57 386.85 29.38 387.89 29.27C388.92 29.17 390.04 29 390.37 28.88C390.7 28.77 392.06 28.54 393.38 28.38C394.86 28.2 395.78 28 395.77 27.86C395.75 27.59 389.46 27.88 389.18 28.16C389.09 28.25 387.2 28.41 384.97 28.51C380.82 28.69 373.94 29.22 373.52 29.38C373.39 29.43 371.31 29.56 368.9 29.67C366.5 29.78 364.22 29.94 363.84 30.03C363.46 30.12 362.32 30.23 361.29 30.28C360.27 30.33 359.05 30.5 358.59 30.65C358.13 30.81 357.53 30.94 357.26 30.94C356.68 30.96 356.64 31.25 357.2 31.37C357.83 31.5 358.16 31.47 359.15 31.19C359.91 30.98 360.26 30.97 361.13 31.16ZM312.23 31.17C312.22 31.07 312.07 30.99 311.9 31C311.73 31 311.6 31.09 311.6 31.19C311.61 31.29 311.76 31.37 311.93 31.36C312.1 31.36 312.24 31.27 312.23 31.17ZM320.83 30.69C319.45 30.77 317.72 30.86 316.98 30.9C316.21 30.94 315.81 31.02 316.04 31.09C316.51 31.25 320.55 31.17 322.69 30.97C325.11 30.74 323.69 30.53 320.83 30.69ZM325.54 30.84C325.64 30.73 325.4 30.66 325 30.67C324.42 30.69 324.37 30.72 324.76 30.86C325.36 31.06 325.33 31.06 325.54 30.84L325.54 30.84ZM230.55 31.57C232.18 31.04 232.28 30.65 230.78 30.69C229.74 30.71 227.83 31.48 227.86 31.87C227.88 32.15 229.17 32.01 230.55 31.57ZM399.78 27.34C400.11 27.21 400.05 27.15 399.52 27.07C398.81 26.96 398.23 27.1 398.25 27.38C398.26 27.59 399.22 27.57 399.78 27.34ZM515.39 23.3C515.68 23.1 515.91 22.9 515.91 22.85C515.89 22.65 514.2 22.82 513.75 23.07C513.36 23.29 511.79 23.55 510.5 23.62C510.34 23.62 510.31 23.68 510.42 23.74C510.53 23.8 510.5 24 510.34 24.2C510.03 24.57 510.38 24.65 510.9 24.32C511.13 24.18 511.35 24.2 511.67 24.39C512.39 24.82 513.74 24.7 514.34 24.14C514.63 23.88 515.11 23.5 515.39 23.3ZM224.5 31.4C225.1 31.09 225.1 30.65 224.49 30.66C223.91 30.68 222.47 31.1 222.48 31.25C222.49 31.47 223.2 31.75 223.61 31.7C223.83 31.68 224.23 31.54 224.5 31.4L224.5 31.4ZM45.19 35.32C44.92 35.18 44.83 35.2 44.85 35.4C44.87 35.76 45.31 36 45.45 35.72C45.51 35.61 45.39 35.42 45.19 35.32ZM383.46 26.92C383.45 26.77 383.23 26.65 382.97 26.66C382.48 26.67 382.37 26.89 382.74 27.09C383.12 27.29 383.48 27.2 383.46 26.92ZM511.56 21.05C512.3 21.03 511.88 20.6 511.08 20.55C510.53 20.52 510.4 20.6 510.43 20.98C510.45 21.23 510.61 21.44 510.78 21.43C510.95 21.43 511.09 21.35 511.08 21.25C511.07 21.15 511.29 21.06 511.56 21.05ZM64.01 31.44C64 31.34 63.84 31.27 63.66 31.27C63.48 31.28 63.42 31.36 63.54 31.46C63.65 31.55 63.81 31.63 63.88 31.63C63.96 31.63 64.01 31.54 64.01 31.44ZM189.84 27.83C189.88 27.53 189.72 27.24 189.48 27.16C188.82 26.94 188.58 27 188.6 27.35C188.62 27.53 188.48 27.77 188.3 27.89C187.82 28.19 188.31 28.52 189.11 28.43C189.59 28.38 189.8 28.21 189.84 27.83ZM203.71 27.74C203.51 27.56 203.21 27.35 203.04 27.3C202.58 27.15 202.67 27.64 203.14 27.89C203.75 28.22 204.1 28.13 203.71 27.74ZM61.12 30.87C61.34 31.01 61.72 31.07 61.97 31.01C62.33 30.92 62.29 30.84 61.74 30.64C60.95 30.35 60.54 30.49 61.12 30.87ZM69.73 27.62C70.43 27.99 71.48 27.83 74.37 26.91C75.9 26.42 77.32 26.02 77.52 26.01C78.04 25.99 78.89 25.17 78.63 24.94C78.5 24.83 78.01 24.71 77.54 24.68C77.07 24.64 76.54 24.56 76.36 24.5C76.18 24.44 76.03 24.47 76.04 24.57C76.06 24.81 74.32 25.05 72.31 25.08C71.05 25.1 70.49 25.18 70.23 25.41C69.74 25.83 65.45 26.37 64.33 26.15C63.74 26.04 63.4 26.06 63.17 26.21C62.93 26.36 63.14 26.54 63.94 26.87C65.19 27.39 68.79 27.89 69.12 27.59C69.25 27.47 69.47 27.48 69.73 27.62L69.73 27.62ZM182.87 24.31C183.73 23.73 183.75 23.64 183.24 23.14C182.76 22.67 182.96 22.57 184.68 22.41C186.54 22.23 186.88 21.9 186.23 20.88C184.97 18.88 183.34 17.47 180.53 15.97C177.64 14.43 176.47 13.89 176.02 13.9C175.88 13.9 175.5 13.75 175.17 13.56C174.84 13.36 174.44 13.21 174.28 13.22C174.11 13.22 173.45 13 172.8 12.73C171.75 12.3 170.17 11.8 167.61 11.09C167.17 10.96 166.64 10.87 166.44 10.87C166.24 10.88 165.18 10.66 164.08 10.39C162.98 10.12 161.96 9.95 161.81 10.01C161.66 10.07 161.37 10.04 161.15 9.95C160.94 9.86 159.87 9.66 158.78 9.51C157.69 9.37 156.79 9.17 156.79 9.08C156.78 8.99 156.56 8.99 156.24 9.1C155.94 9.2 155.49 9.26 155.23 9.23C153.69 9.09 150.34 8.7 148.41 8.44C144.73 7.93 142.09 7.82 135.54 7.91C131.3 7.97 128.83 7.93 127.84 7.78C125.7 7.45 124.02 7.39 122.66 7.61C121.13 7.85 120.82 8.05 121.37 8.45C121.77 8.73 122.53 8.75 129.31 8.64C133.44 8.58 137.45 8.55 138.23 8.58C145.44 8.85 149.43 9.15 150.89 9.55C151.73 9.77 151.84 9.86 151.46 9.99C151.2 10.09 150.53 10.09 149.92 10.01C148.09 9.75 145.32 9.71 145.1 9.94C144.83 10.22 146.02 10.42 149.46 10.67C151.06 10.79 152.95 11.02 153.65 11.2C154.35 11.37 156.37 11.85 158.12 12.27C159.88 12.68 161.68 13.19 162.13 13.41C162.58 13.63 163.81 14.06 164.87 14.36C165.93 14.66 167.33 15.19 167.97 15.54C168.62 15.88 170.14 16.66 171.35 17.27C172.56 17.88 173.78 18.57 174.06 18.79C174.65 19.27 175.2 19.3 175.73 18.9C176.4 18.39 176.65 18.59 176.73 19.7C176.8 20.68 176.89 20.81 177.58 20.97C178.01 21.07 178.44 21.31 178.54 21.5C178.64 21.69 179.02 21.89 179.39 21.93C180.06 22.02 180.18 22.16 180.11 22.77C180.06 23.17 181.49 24.84 181.87 24.83C182 24.83 182.45 24.6 182.87 24.31L182.87 24.31ZM64.79 25.43C65.31 25.26 65.36 25.15 65.07 24.87C64.57 24.38 63.22 24.45 62.92 24.98C62.79 25.21 62.81 25.41 62.97 25.44C63.12 25.47 63.18 25.57 63.09 25.66C62.9 25.86 63.95 25.72 64.79 25.43L64.79 25.43ZM67.35 24.57C67.45 24.39 67.25 24.32 66.68 24.34C65.91 24.36 65.9 24.37 66.47 24.59C66.81 24.72 67.11 24.82 67.14 24.82C67.18 24.82 67.27 24.71 67.35 24.57ZM161.03 21.34C161.15 21.22 161 21.03 160.71 20.91C160.41 20.8 160.17 20.61 160.16 20.48C160.14 20.3 160.27 20.3 160.71 20.49C161.2 20.69 161.22 20.69 160.88 20.45C160.66 20.3 159.9 20.01 159.18 19.8L157.89 19.42L157.13 19.9C156.72 20.16 156.39 20.45 156.39 20.53C156.4 20.62 156.95 20.83 157.61 20.99C158.26 21.16 159.02 21.35 159.29 21.42C160 21.62 160.8 21.58 161.03 21.33L161.03 21.34ZM510.94 11.81C511.29 11.5 511.58 11.17 511.57 11.07C511.54 10.7 510.55 10.91 509.64 11.49C508.9 11.96 508.81 12.1 509.17 12.22C509.92 12.47 510.26 12.39 510.94 11.81ZM164.16 20.41C164.32 20.08 163.68 20.16 163.49 20.5C163.38 20.68 163.46 20.76 163.68 20.71C163.89 20.66 164.1 20.53 164.16 20.41ZM162.92 19.88C163.16 19.59 163.03 19.46 162.16 19.12C160.71 18.54 156.86 17.47 156.31 17.48C155.58 17.5 155.8 17.83 156.76 18.14C157.25 18.3 157.87 18.56 158.14 18.73C159.02 19.27 160.93 19.72 161.3 19.49C161.55 19.33 161.64 19.41 161.67 19.77C161.71 20.34 162.48 20.41 162.92 19.88ZM153.47 19.11C153.14 18.79 152.69 18.69 151.39 18.63C149.73 18.56 147.79 18.86 147.82 19.17C147.82 19.27 148.15 19.41 148.55 19.49C149.13 19.61 152.35 20.01 153.31 20.08C153.45 20.09 153.63 19.97 153.72 19.81C153.81 19.65 153.7 19.34 153.47 19.11ZM69.55 20.63C68.99 20.66 68.54 20.75 68.54 20.83C68.56 21.01 69.16 20.98 69.95 20.75C70.45 20.61 70.38 20.59 69.55 20.63ZM143.65 17.96C143.65 18.07 143.41 18.12 143.11 18.07C142.75 18.01 142.69 18.03 142.93 18.12C143.14 18.2 144.27 18.26 145.45 18.26C147.01 18.25 147.44 18.21 147.05 18.08C146.21 17.81 143.63 17.72 143.65 17.96ZM81.09 8.56C80.4 8.16 78.24 7.46 77.75 7.48C77.35 7.49 77.67 7.91 78.52 8.47C79.27 8.97 79.63 9.06 80.65 9.04L81.88 9.01L81.09 8.56L81.09 8.56ZM283.37 113.18C283.91 113.12 284.86 112.95 285.49 112.79C286.2 112.61 286.71 112.56 286.83 112.67C286.94 112.77 286.85 112.86 286.63 112.88C286.4 112.9 286.06 112.93 285.87 112.95C285.68 112.97 285.34 113.07 285.11 113.19C284.88 113.31 283.92 113.48 282.97 113.57C281.62 113.7 281.38 113.68 281.82 113.51C282.13 113.39 282.82 113.24 283.37 113.18ZM293.3 113.23C293.3 113.13 293.49 113.04 293.74 113.04C293.99 113.03 294.29 113.11 294.4 113.2C294.51 113.3 294.32 113.39 293.96 113.4C293.61 113.4 293.31 113.33 293.3 113.23ZM296.54 111.54C296.21 111.33 296.26 111.31 296.86 111.4C297.36 111.48 297.62 111.43 297.74 111.22C297.93 110.89 298.41 110.85 299.11 111.09C299.52 111.24 299.5 111.29 298.98 111.49C298.12 111.81 297 111.83 296.54 111.54L296.54 111.54ZM243.84 112.7C243.94 112.75 243.78 112.86 243.47 112.93C243.03 113.04 243 113.02 243.29 112.84C243.49 112.71 243.74 112.64 243.84 112.7ZM357.52 107.41C356.82 107.27 356.78 107.22 357.23 107.06C357.93 106.81 359.73 107.14 359.07 107.4C358.54 107.61 358.53 107.61 357.52 107.41L357.52 107.41ZM241.94 110.18C241.63 110.08 241.64 110.02 241.98 109.94C242.22 109.87 242.6 109.88 242.82 109.95C243.13 110.05 243.12 110.11 242.78 110.19C242.54 110.25 242.16 110.25 241.94 110.17L241.94 110.18ZM245.6 110.14C245.81 110.08 246.17 110.07 246.39 110.12C246.61 110.16 246.43 110.21 246 110.22C245.57 110.23 245.39 110.19 245.6 110.14L245.6 110.14ZM239.71 110.04C239.3 109.9 239.3 109.88 239.76 109.86C240.05 109.85 240.38 109.92 240.49 110.02C240.76 110.24 240.34 110.26 239.71 110.04L239.71 110.04ZM261.27 109.49C260.61 109.29 260.67 108.71 261.38 108.62C261.92 108.54 263.24 109.25 263 109.5C262.82 109.69 261.92 109.69 261.27 109.49L261.27 109.49ZM254.03 109.56C253.73 109.52 253.47 109.37 253.46 109.24C253.44 108.92 254.48 108.7 255.37 108.84C255.75 108.9 256.49 108.95 257 108.95C258.26 108.96 258.54 109.38 257.3 109.42C256.8 109.43 255.98 109.48 255.48 109.54C254.99 109.59 254.34 109.6 254.03 109.56L254.03 109.56ZM230.59 109.74L229.48 109.64L230.63 109.47C231.48 109.34 231.96 109.37 232.51 109.57L233.25 109.84L232.47 109.84C232.04 109.83 231.2 109.79 230.59 109.74L230.59 109.74ZM375.05 105.79C375.13 105.74 375.29 105.82 375.4 105.97C375.64 106.29 375.46 106.35 375.13 106.07C375.01 105.96 374.98 105.84 375.05 105.79ZM377.02 105.95L375.44 105.77L376.77 105.66C378.08 105.54 379.59 105.77 379.18 106.03C378.94 106.18 379.05 106.19 377.02 105.95ZM382.66 105.89C382.55 105.79 382.68 105.7 382.95 105.7C383.21 105.69 383.44 105.77 383.45 105.87C383.46 105.97 383.33 106.05 383.17 106.06C383 106.06 382.78 105.98 382.66 105.89ZM280.03 107.78C281.18 107.41 285.94 107.13 285.96 107.44C285.97 107.58 284.01 107.75 282.92 107.69C282.71 107.68 282.54 107.76 282.54 107.86C282.55 107.97 281.81 108.07 280.76 108.09L278.95 108.13L280.03 107.78L280.03 107.78ZM211.95 109.27C212.16 109.14 212.4 109.07 212.5 109.13C212.61 109.18 212.44 109.29 212.14 109.36C211.7 109.47 211.66 109.45 211.95 109.27ZM295.22 105.73C294.55 105.75 293.99 105.68 293.98 105.58C293.98 105.48 294.14 105.39 294.36 105.37C294.57 105.35 295.06 105.31 295.45 105.27C295.83 105.24 296.52 105.32 296.99 105.44C297.45 105.57 298.02 105.66 298.26 105.66C299 105.64 298.76 105.96 297.95 106.07C297.53 106.13 297.25 106.11 297.32 106.04C297.52 105.83 296.61 105.7 295.22 105.73ZM58.44 111.21C60.77 110.85 63.43 110.67 63.23 110.88C63.14 110.97 62.71 111.06 62.28 111.07C61.84 111.08 61.23 111.18 60.91 111.29C60.16 111.55 58.14 111.71 57.37 111.57C56.94 111.49 57.23 111.39 58.44 111.21ZM302.1 103.81C302.17 103.76 302.33 103.85 302.45 104C302.68 104.31 302.51 104.37 302.17 104.09C302.05 103.99 302.02 103.86 302.1 103.81ZM57.45 109.5C58.05 109.25 58.35 109.23 59.3 109.39C60.32 109.57 60.38 109.61 59.88 109.81C59.27 110.06 56.75 110.16 56.74 109.94C56.73 109.86 57.05 109.66 57.45 109.5ZM228.41 104.96C229.72 104.79 230.69 104.84 230.71 105.09C230.73 105.33 228.35 105.47 227.76 105.27C227.42 105.15 227.58 105.08 228.41 104.96ZM290.73 102.02C290.04 101.96 288.84 101.84 288.07 101.74C286.98 101.61 286.62 101.62 286.45 101.81C286.27 101.99 286.09 101.98 285.63 101.77C284.73 101.36 283.88 101.23 282.59 101.31C281.8 101.35 281.36 101.29 281.22 101.12C280.95 100.75 279.61 100.63 278.91 100.91C278.44 101.09 278.08 101.09 277.1 100.89C275.11 100.47 272.41 100.13 271.32 100.16C270.77 100.17 270.02 100.1 269.67 100.01C268.98 99.81 266.27 99.45 264.57 99.32C262.69 99.18 262.92 98.95 264.89 99C266.09 99.03 266.96 98.97 267.21 98.84C267.66 98.6 268.84 98.72 270.43 99.16C270.96 99.31 271.89 99.42 272.49 99.41C273.09 99.39 274.16 99.45 274.85 99.54C276.87 99.78 276.96 99.78 278.22 99.61C278.87 99.53 279.48 99.52 279.57 99.59C279.84 99.82 282.52 99.9 283.12 99.7C283.44 99.59 283.83 99.56 283.99 99.64C284.16 99.71 285 99.9 285.88 100.06C286.75 100.21 287.76 100.43 288.12 100.55C288.47 100.67 289.26 100.81 289.87 100.87C290.47 100.93 291.33 101.11 291.78 101.28C292.22 101.44 293.08 101.62 293.69 101.68C294.3 101.74 295.01 101.85 295.28 101.93C295.88 102.11 292.5 102.18 290.73 102.02L290.73 102.02ZM86.63 106.83C86.62 106.62 86.85 106.53 87.93 106.36C89.11 106.16 89.03 106.5 87.84 106.77C86.66 107.04 86.65 107.04 86.63 106.83ZM233.32 102.28L234.28 102.06C235.12 101.86 235.36 101.88 236.18 102.24C236.99 102.59 237.03 102.65 236.49 102.65C236.14 102.66 235.29 102.58 234.59 102.47L233.32 102.28ZM245.25 101.94C245.14 101.84 244.77 101.81 244.43 101.88C244.06 101.94 243.81 101.9 243.8 101.76C243.78 101.62 244.11 101.56 244.72 101.6C245.24 101.63 245.67 101.59 245.66 101.52C245.64 101.3 248.49 100.95 249.73 101.01C250.5 101.05 251.01 100.98 251.34 100.77C252.15 100.25 253.42 100.38 253.89 101.02C254.06 101.27 253.95 101.39 253.43 101.48L252.73 101.61L253.5 101.69C254.4 101.8 254.77 102.16 253.95 102.15C253.64 102.14 253.24 102.09 253.07 102.04C252.65 101.9 250.82 102.01 250.54 102.18C250.24 102.37 246.99 102.42 246.14 102.25C245.76 102.17 245.36 102.03 245.25 101.94ZM246 101.87C246.01 102.02 246.58 102.15 247.4 102.2C247.55 102.2 247.49 102.09 247.26 101.95C246.81 101.66 245.98 101.61 246 101.87ZM240.93 102.2C239.77 102.17 239.21 102.08 239.35 101.96C239.46 101.85 239.9 101.74 240.31 101.71C240.73 101.69 241.17 101.56 241.31 101.43C241.49 101.24 241.55 101.24 241.57 101.41C241.58 101.53 241.86 101.63 242.18 101.62C242.76 101.61 243.39 102.07 242.95 102.19C242.83 102.22 241.92 102.23 240.93 102.2L240.93 102.2ZM257.61 101.78C257.98 101.9 257.9 101.95 257.23 101.97C256.75 101.98 256.36 101.91 256.35 101.81C256.34 101.58 256.98 101.56 257.61 101.78ZM233.42 101.56L232.31 101.36L233.65 101.33C234.38 101.32 235.05 101.36 235.14 101.44C235.45 101.7 234.54 101.76 233.42 101.56L233.42 101.56ZM239.66 101.06C239.65 100.87 240.24 100.77 240.44 100.94C240.55 101.03 240.43 101.12 240.16 101.13C239.89 101.13 239.67 101.1 239.66 101.06ZM55.96 104.31C54.44 104.07 54.36 104.04 55.25 104C55.8 103.97 56.61 104.02 57.05 104.11C58.04 104.3 59.74 103.95 59.71 103.57C59.7 103.36 59.95 103.33 60.87 103.4C61.53 103.45 62.27 103.55 62.54 103.62C63.1 103.78 63.03 103.8 60.7 104.22C58.63 104.6 57.84 104.61 55.96 104.31ZM223.71 99.14C224.02 99.24 224.1 99.64 223.95 100.31C223.89 100.59 222.81 100.46 222.4 100.12C221.66 99.5 222.64 98.77 223.71 99.14ZM97.2 103.03C98.04 102.82 98.32 102.88 97.86 103.18C97.36 103.49 96.74 103.57 96.72 103.31C96.72 103.23 96.93 103.1 97.2 103.03ZM449.76 94.04C449.09 93.81 449.59 93.48 450.61 93.45C451.41 93.43 452.15 93.68 451.85 93.87C451.56 94.06 450.14 94.17 449.76 94.04ZM218.82 99.3C218.81 99.2 218.94 99.12 219.1 99.12C219.26 99.11 219.49 99.19 219.6 99.28C219.71 99.38 219.59 99.47 219.32 99.47C219.05 99.48 218.83 99.4 218.82 99.3ZM460.77 92.83C461.43 92.62 462.26 92.43 462.61 92.43C463.22 92.42 463.21 92.43 462.53 92.79C462.12 93.01 461.36 93.18 460.69 93.2L459.57 93.23L460.77 92.83L460.77 92.83ZM242.26 97.81C240.56 97.83 242.18 97.47 244.36 97.34C246.61 97.21 246.68 97.21 247.85 97.78C248.99 98.34 249.01 98.36 248.25 98.36C247.82 98.37 246.46 98.24 245.24 98.09C244.02 97.93 242.68 97.81 242.26 97.81ZM62.76 102.85C62.5 102.45 62.49 101.41 62.75 101.31C62.93 101.24 63 101.27 62.89 101.38C62.79 101.49 63.08 101.62 63.57 101.67C64.37 101.77 64.39 101.8 63.91 102.02C63.62 102.16 63.39 102.36 63.39 102.47C63.41 102.64 62.85 102.98 62.76 102.85L62.76 102.85ZM453.39 92.82C453 92.67 453.05 92.65 453.62 92.71C454.01 92.75 454.32 92.7 454.32 92.6C454.31 92.51 454.45 92.48 454.63 92.53C454.8 92.59 454.94 92.56 454.93 92.47C454.93 92.39 455.1 92.3 455.31 92.29C455.78 92.26 456.93 92.08 457.72 91.91C458.03 91.84 458.39 91.88 458.52 91.99C458.85 92.27 458.04 92.56 457.54 92.34C457.13 92.16 456.38 92.32 456.63 92.54C456.71 92.61 456.4 92.67 455.94 92.69C455.48 92.7 454.83 92.78 454.49 92.86C454.15 92.93 453.66 92.92 453.39 92.82ZM451.81 92.69C451.81 92.59 452.01 92.51 452.27 92.5C452.53 92.49 452.75 92.57 452.75 92.67C452.76 92.77 452.55 92.86 452.3 92.86C452.04 92.87 451.82 92.79 451.81 92.69ZM56.34 102.33C56.24 102.24 55.58 102.13 54.89 102.08C53.95 102.01 53.62 101.9 53.6 101.65C53.56 101.05 54.51 100.9 55.6 101.34C56.83 101.83 58.34 102.04 58.32 101.71C58.31 101.58 58.38 101.53 58.49 101.58C58.6 101.64 58.6 101.86 58.51 102.07C58.38 102.34 58.06 102.45 57.43 102.47C56.93 102.48 56.44 102.42 56.34 102.33L56.34 102.33ZM238.69 97.78C238.58 97.72 238.55 97.6 238.63 97.51C238.81 97.33 239.71 97.48 239.72 97.71C239.74 97.89 239 97.94 238.69 97.78ZM250.3 97.33C249.51 97.18 248.81 97.17 248.2 97.28C247.45 97.43 247.26 97.4 247.12 97.13C246.91 96.74 247.56 96.52 248.09 96.8C248.3 96.91 249.03 96.96 249.73 96.91C250.92 96.83 251.91 97.05 251.94 97.4C251.96 97.6 251.74 97.59 250.3 97.33ZM66.64 101.87C66.08 101.76 66.07 101.73 66.52 101.61C66.81 101.53 67.34 101.49 67.71 101.52C68.33 101.56 68.33 101.57 67.83 101.77C67.53 101.89 66.99 101.93 66.64 101.87ZM464.3 91.87C464.3 91.77 464.58 91.64 464.93 91.58C465.33 91.51 465.53 91.55 465.46 91.68C465.33 91.95 464.32 92.11 464.3 91.87ZM235.11 97.4C234.8 97.13 235.11 97.08 236.09 97.22C237.1 97.37 237.1 97.4 236.01 97.49C235.61 97.53 235.21 97.49 235.11 97.4ZM253.92 96.77C253.8 96.67 253.77 96.54 253.85 96.49C254.09 96.34 256.27 96.57 256.28 96.74C256.3 96.97 254.19 97 253.92 96.77L253.92 96.77ZM465.83 91.3C465.81 90.71 469.78 89.62 469.83 90.2C469.85 90.45 469.15 90.8 468.63 90.82C468.37 90.82 467.75 90.96 467.27 91.12C466.3 91.45 465.84 91.5 465.83 91.3ZM238.54 95.52C238.93 95.43 239.56 95.4 239.95 95.47C240.34 95.54 241.01 95.57 241.44 95.54C242.4 95.47 244.07 95.89 243.83 96.14C243.61 96.37 242.65 96.36 240.54 96.1C237.86 95.76 237.74 95.73 238.54 95.52ZM65.14 99.35C66.33 99.36 65.57 99.95 64.01 100.24C63.16 100.39 62.15 100.58 61.77 100.65C61.26 100.75 61.06 100.71 61.05 100.5C61 99.9 63.02 99.33 65.14 99.35ZM145.78 98.42C145.67 98.33 145.79 98.24 146.05 98.23C146.31 98.23 146.61 98.3 146.72 98.4C146.84 98.5 146.72 98.58 146.46 98.59C146.2 98.59 145.9 98.52 145.78 98.42ZM47.73 100.25C47.61 100.09 47.5 99.78 47.48 99.56C47.47 99.34 47.29 99.07 47.09 98.97C46.3 98.55 47.13 98.4 50.3 98.39C55.78 98.39 57.46 98.28 61.31 97.71C66.61 96.92 66.74 96.9 66.76 97.11C66.76 97.22 66.25 97.41 65.61 97.55C64.98 97.68 63.93 98.1 63.28 98.48C62.64 98.86 62.2 99.08 62.3 98.96C62.69 98.51 59.22 98.54 58.27 99C57.9 99.17 56.4 99.36 52.69 99.69C51.15 99.83 49.59 100.07 49.21 100.23C48.33 100.59 47.99 100.6 47.73 100.25L47.73 100.25ZM461.82 89.47C460.26 89.62 461.42 89.04 463.08 88.84C464.82 88.63 464.53 88.68 466.23 88.33C467 88.18 467.73 88.06 467.86 88.08C467.99 88.09 468.09 88.03 468.09 87.94C468.07 87.67 469.06 87.49 471.1 87.4C472.17 87.35 473.22 87.21 473.43 87.1C473.64 87 474.41 86.8 475.13 86.67C475.85 86.53 476.77 86.22 477.18 85.96C477.59 85.7 478.12 85.49 478.36 85.48C478.61 85.48 478.98 85.34 479.2 85.17C479.43 85 479.89 84.9 480.34 84.94C480.85 84.98 481.15 84.91 481.26 84.71C481.64 83.99 486.69 81.46 487.8 81.43C488.06 81.42 488.38 81.31 488.51 81.17C488.8 80.87 491.03 80.19 491.29 80.33C491.51 80.44 489.86 81.38 489.41 81.39C489.23 81.4 488.6 81.7 487.99 82.06C487.38 82.43 486.74 82.73 486.56 82.73C486.38 82.74 485.81 83 485.3 83.32C484.79 83.63 483.97 83.95 483.48 84.02C482.99 84.09 482.53 84.25 482.46 84.38C482.3 84.65 479.32 85.99 476.5 87.06C475.4 87.48 474.22 87.98 473.86 88.19C473.38 88.46 472.77 88.56 471.54 88.59C470.46 88.61 469.19 88.8 467.97 89.11C466.06 89.61 464.52 89.74 463.35 89.51C463 89.44 462.31 89.43 461.82 89.47ZM241.29 94.34C240.84 94.18 239.89 94.04 239.17 94.02C237.42 93.97 236.73 93.62 238.3 93.58C238.94 93.56 239.53 93.5 239.63 93.44C239.73 93.38 240.3 93.49 240.9 93.68C241.74 93.96 242.28 94 243.22 93.89C243.9 93.81 244.46 93.81 244.48 93.88C244.5 93.96 244.57 94.15 244.64 94.31C244.85 94.83 244.45 94.97 243.25 94.79C242.63 94.7 241.75 94.5 241.29 94.34ZM69.71 98.29C69.34 98.13 69.43 98.06 70.15 97.94C70.64 97.86 71.34 97.73 71.71 97.66C72.22 97.55 72.43 97.61 72.61 97.89C72.74 98.1 73.04 98.26 73.28 98.25C73.52 98.25 73.8 98.32 73.92 98.42C74.13 98.6 72.95 98.65 71.1 98.54C70.58 98.51 69.95 98.39 69.71 98.29ZM76.99 97.91C77.5 98.01 77.71 98.32 77.28 98.34C77.15 98.34 76.75 98.4 76.39 98.47C76.02 98.53 75.63 98.51 75.51 98.4C75.23 98.16 76.36 97.78 76.99 97.91ZM42.48 95.67C42.47 95.53 42.84 95.35 43.32 95.29C43.79 95.22 44.84 95.02 45.66 94.85C46.48 94.67 48.09 94.46 49.24 94.37C50.38 94.29 51.85 94.09 52.51 93.94C53.17 93.79 54.57 93.64 55.63 93.61C56.68 93.58 58.17 93.45 58.94 93.33C59.97 93.16 60.65 93.16 61.52 93.3C63 93.54 62.79 93.79 61.08 93.84C57.82 93.93 45.74 95.22 44.19 95.64C42.87 96 42.51 96.01 42.48 95.67ZM37.28 94.67C37.1 94.51 37.66 94.18 38.29 94.08C38.6 94.03 38.57 94.12 38.17 94.4C37.55 94.84 37.5 94.85 37.28 94.67ZM35.89 94.55C35.99 94.48 36.26 94.47 36.49 94.52C36.75 94.57 36.67 94.61 36.31 94.63C35.98 94.65 35.79 94.61 35.89 94.55L35.89 94.55ZM68.4 93.44C67.32 93.24 67.66 93.13 68.98 93.25C69.67 93.32 69.91 93.4 69.62 93.47C69.37 93.53 68.82 93.52 68.4 93.44L68.4 93.44ZM63.89 89.69C63.65 89.37 64.21 89.11 64.64 89.34C64.84 89.44 64.8 89.59 64.52 89.73C64.19 89.91 64.05 89.9 63.89 89.69ZM67.88 89.35C67.98 89.28 68.47 89.2 68.97 89.17C69.46 89.14 70.58 89.04 71.45 88.95C72.78 88.81 73.04 88.83 73.05 89.06C73.07 89.3 72.63 89.36 70.39 89.41C68.91 89.44 67.78 89.41 67.88 89.35ZM495.57 77.87C495.74 77.81 495.89 77.88 495.9 78.03C495.91 78.19 495.78 78.32 495.61 78.32C495.44 78.33 495.29 78.26 495.28 78.16C495.28 78.07 495.41 77.94 495.57 77.87ZM497.41 77.09C498.19 76.57 498.61 76.49 498.64 76.87C498.66 77.18 498.32 77.34 497.38 77.47C496.72 77.56 496.72 77.56 497.41 77.09L497.41 77.09ZM69.98 87.8C70.08 87.7 70.36 87.61 70.61 87.6C70.86 87.6 71.07 87.67 71.07 87.77C71.08 87.87 70.8 87.96 70.44 87.97C70.09 87.98 69.88 87.9 69.98 87.8ZM66.99 87.71C67 87.8 66.49 87.89 65.85 87.91C65.22 87.92 64.8 87.88 64.91 87.8C65.23 87.6 66.98 87.53 66.99 87.71ZM501.14 75.59C502.68 75.14 502.7 75.15 501.68 75.85C501.2 76.19 500.81 76.52 500.81 76.59C500.82 76.66 500.4 76.72 499.88 76.73C499.36 76.73 498.94 76.68 498.93 76.61C498.92 76.41 499.89 75.96 501.14 75.59ZM70.95 86.15C70.94 86.05 71.15 86.01 71.42 86.06C71.68 86.11 71.9 86.19 71.9 86.23C71.9 86.27 71.69 86.3 71.43 86.31C71.18 86.32 70.96 86.24 70.95 86.15ZM502.74 75.06C502.63 74.96 502.75 74.87 503.02 74.87C503.57 74.85 503.66 74.96 503.24 75.13C503.08 75.19 502.86 75.16 502.74 75.06ZM505.02 73.85C505.49 73.77 505.64 73.82 505.58 74.03C505.5 74.35 504.97 74.53 504.63 74.35C504.23 74.14 504.36 73.97 505.02 73.85ZM69.39 85.16C69.49 85.1 69.76 85.08 69.99 85.13C70.25 85.18 70.18 85.23 69.81 85.25C69.48 85.26 69.29 85.22 69.39 85.16L69.39 85.16ZM35.72 78.85C35.48 78.65 36.3 78.63 37.45 78.81C38.16 78.92 38.12 78.94 37.09 78.98C36.45 79.01 35.84 78.95 35.72 78.85ZM27.5 77.3C27.03 77.06 27.3 76.89 28.2 76.86C28.82 76.85 29.15 76.93 29.16 77.11C29.18 77.39 27.93 77.53 27.5 77.3ZM30.85 76.62C31.37 76.61 31.4 76.64 31.02 76.79C30.77 76.89 30.28 76.99 29.93 77C29.42 77.01 29.39 76.98 29.76 76.82C30.02 76.72 30.5 76.63 30.85 76.62ZM513.69 63.33C513.85 63.33 513.89 63.41 513.79 63.51C513.69 63.61 513.76 63.69 513.95 63.69C514.13 63.69 514.28 63.76 514.29 63.86C514.31 64.12 513.82 64.1 513.39 63.82C513.02 63.59 513.17 63.35 513.69 63.33ZM47.08 66.72C46.31 66.3 46.21 66.17 46.56 66.02C46.79 65.93 47.23 65.87 47.54 65.91C47.84 65.94 48.16 65.89 48.25 65.8C48.47 65.57 49.54 65.56 49.8 65.78C50.13 66.06 49.72 66.7 49.24 66.66C49 66.64 48.63 66.76 48.42 66.94C48.06 67.22 47.95 67.2 47.08 66.72L47.08 66.72ZM36.64 49.4C36.53 49.3 36.58 49.22 36.77 49.21C36.95 49.21 37.11 49.28 37.11 49.38C37.12 49.48 37.06 49.57 36.99 49.57C36.91 49.57 36.76 49.49 36.64 49.4ZM36.3 37.1C36.36 36.88 36.24 36.67 36.04 36.62C35.78 36.57 35.78 36.54 36.05 36.52C36.59 36.49 36.75 36.72 36.46 37.14C36.22 37.48 36.21 37.48 36.3 37.1L36.3 37.1ZM199.77 31.32C200.07 31.48 200.23 31.74 200.14 31.9C199.85 32.4 199.33 32.23 199.28 31.62C199.24 31.08 199.28 31.06 199.77 31.32ZM352.33 28.16C352.43 28.06 353.1 27.96 353.82 27.94C354.79 27.92 355.01 27.96 354.68 28.1C354.07 28.35 352.1 28.4 352.33 28.16ZM356.61 27.73C356.83 27.72 357.34 27.64 357.74 27.56C358.3 27.44 358.45 27.47 358.35 27.66C358.21 27.95 356.26 28.19 356.24 27.92C356.23 27.83 356.4 27.75 356.61 27.73ZM280.41 29.61C280.41 29.51 280.61 29.43 280.87 29.42C281.13 29.41 281.35 29.49 281.35 29.59C281.36 29.69 281.16 29.78 280.9 29.78C280.64 29.79 280.42 29.71 280.41 29.61ZM283.81 29.3C285.57 29.12 286.41 29.21 285.7 29.5C285.23 29.69 284.46 29.71 283.08 29.56C282.23 29.47 282.31 29.45 283.81 29.3ZM360.61 27.69C360.61 27.65 360.74 27.56 360.91 27.49C361.08 27.42 361.22 27.46 361.23 27.56C361.24 27.67 361.1 27.76 360.93 27.76C360.76 27.77 360.61 27.73 360.61 27.69ZM287.12 28.83C287.39 28.76 287.52 28.79 287.42 28.89C287.25 29.07 286.66 29.17 286.65 29.02C286.64 28.98 286.86 28.9 287.12 28.83ZM290.87 28.64C290.63 28.43 290.9 28.34 292.08 28.24C294.04 28.06 295.21 28.07 295.22 28.24C295.23 28.34 294.92 28.43 294.54 28.45C294.16 28.46 293.75 28.53 293.64 28.61C293.32 28.8 291.09 28.83 290.87 28.64L290.87 28.64ZM33.94 34.2C34.45 34.19 34.58 34.47 34.15 34.64C34 34.7 33.79 34.63 33.68 34.48C33.56 34.32 33.66 34.21 33.94 34.2ZM304.4 27.19C304.57 27.19 304.72 27.26 304.72 27.36C304.73 27.46 304.6 27.55 304.42 27.55C304.25 27.56 304.11 27.48 304.1 27.38C304.09 27.28 304.23 27.2 304.4 27.19ZM322.98 26.26C322.62 26.12 321.94 26 321.47 25.99C321.01 25.98 320.62 25.92 320.62 25.85C320.6 25.6 322.7 25.32 326.33 25.08C327.69 24.99 328.88 24.91 328.99 24.9C330.17 24.8 330.15 25.11 328.96 25.25C328.59 25.29 328.15 25.41 327.99 25.51C327.83 25.61 327.3 25.7 326.82 25.72C326.34 25.73 325.95 25.83 325.96 25.94C325.97 26.06 325.67 26.1 325.17 26.05C324.61 25.98 324.33 26.04 324.21 26.23C324.02 26.57 323.84 26.58 322.98 26.26L322.98 26.26ZM333.63 24.55C334.69 24.49 335.66 24.4 335.79 24.35C336.17 24.21 347.55 23.93 347.34 24.06C347.06 24.24 346.82 24.26 340.71 24.53C337.64 24.67 334.22 24.86 333.1 24.95C331.59 25.06 331.16 25.05 331.4 24.89C331.57 24.77 332.58 24.62 333.63 24.55ZM37.78 32.16C36.89 32.08 36.84 31.84 37.67 31.69C38.08 31.62 38.41 31.7 38.64 31.92C38.83 32.1 38.87 32.25 38.74 32.24C38.6 32.23 38.17 32.19 37.78 32.16ZM367.83 23.67C367.51 23.47 367.52 23.42 367.86 23.41C368.1 23.41 368.48 23.47 368.72 23.55C369.07 23.66 369.06 23.71 368.68 23.81C368.43 23.87 368.04 23.81 367.83 23.67L367.83 23.67ZM196.7 27.52C196.99 27.34 197.16 27.33 197.47 27.49C197.72 27.63 197.75 27.77 197.57 27.88C197.39 27.99 197.1 28 196.81 27.91C196.43 27.79 196.4 27.71 196.7 27.52ZM347.79 24.09C347.78 24.02 348.34 23.94 349.04 23.92C349.73 23.89 350.22 23.95 350.13 24.04C349.94 24.24 347.8 24.28 347.79 24.09ZM352.48 23.95C352.48 23.87 352.99 23.78 353.62 23.77C354.98 23.73 354.89 23.89 353.48 24.02C352.94 24.07 352.49 24.04 352.48 23.95ZM350.83 23.9C351.04 23.84 351.4 23.84 351.62 23.88C351.83 23.92 351.66 23.97 351.23 23.98C350.8 23.99 350.62 23.96 350.83 23.9L350.83 23.9ZM378.11 22.87C378.93 23.13 378.36 23.33 376.76 23.33C375.81 23.33 375.03 23.27 375.02 23.2C375.01 23.02 377.69 22.73 378.11 22.87ZM30.75 29.33C30.08 28.78 30.47 28.66 31.32 29.16C31.63 29.34 32.27 29.52 32.75 29.57C33.28 29.61 33.78 29.83 34.03 30.11C34.74 30.92 34.56 31.09 33.35 30.73C32.51 30.48 31.48 29.93 30.75 29.33ZM57.85 19.41C57.79 19.14 57.91 19.06 58.26 19.13C58.52 19.18 58.94 19.22 59.19 19.21C59.43 19.2 59.64 19.32 59.65 19.47C59.67 19.65 59.37 19.75 58.8 19.77C58.14 19.78 57.91 19.7 57.85 19.41ZM62.87 18.39C62.75 18.29 63 18.21 63.44 18.19C63.87 18.18 64.32 18.25 64.43 18.35C64.55 18.45 64.3 18.54 63.86 18.55C63.43 18.56 62.98 18.49 62.87 18.39ZM539.13 6.18C539.13 6.08 539.18 6 539.26 6C539.33 6 539.49 6.07 539.6 6.17C539.72 6.27 539.66 6.35 539.48 6.36C539.3 6.36 539.14 6.28 539.13 6.18ZM203.11 13.41C202.47 13.05 202.24 12.79 202.38 12.56C202.54 12.28 202.7 12.34 203.39 12.93C204.64 14.02 204.53 14.2 203.11 13.41ZM64.57 17.14C64.35 17.09 64.24 16.98 64.33 16.89C64.52 16.7 65.42 16.84 65.43 17.07C65.45 17.25 65.21 17.27 64.57 17.14ZM192.11 7.23C192.47 7.34 192.27 7.67 191.83 7.68C191.68 7.69 191.47 7.62 191.36 7.53C191.11 7.32 191.69 7.09 192.11 7.23ZM168.18 6.47C168.36 6.46 168.52 6.54 168.53 6.64C168.54 6.74 168.48 6.82 168.4 6.82C168.33 6.83 168.17 6.75 168.06 6.65C167.94 6.55 168 6.47 168.18 6.47ZM166.64 6.51C166.63 6.41 166.76 6.32 166.93 6.31C167.11 6.31 167.25 6.34 167.25 6.39C167.26 6.43 167.12 6.52 166.95 6.59C166.79 6.65 166.64 6.62 166.64 6.51ZM165.89 6.4C165.77 6.34 165.67 6.2 165.66 6.1C165.65 5.99 165.8 5.99 166.04 6.12C166.25 6.23 166.35 6.37 166.27 6.42C166.18 6.47 166.01 6.47 165.89 6.4ZM72.92 8.14C72.93 8.24 72.81 8.33 72.66 8.33C72.51 8.34 71.91 8.4 71.34 8.47C70.62 8.56 70.43 8.54 70.75 8.42C71.5 8.12 72.91 7.94 72.92 8.14ZM59.72 7.93C56 7.88 56.86 7.55 61.06 7.42C63.19 7.35 64.85 7.22 64.96 7.11C65.27 6.79 66.35 6.76 67.11 7.04L67.83 7.3L67.11 7.55C66.31 7.83 63.32 7.98 59.72 7.93ZM56.86 5.66C56.56 5.5 56.73 5.28 57.17 5.27C57.43 5.26 57.64 5.16 57.65 5.03C57.65 4.85 57.69 4.85 57.83 5.03C57.93 5.15 58.13 5.2 58.29 5.14C58.44 5.08 58.58 5.19 58.59 5.39C58.61 5.65 58.42 5.74 57.81 5.74C57.36 5.73 56.94 5.7 56.86 5.66L56.86 5.66ZM57.02 4.26C57.12 4.19 57.39 4.18 57.62 4.23C57.88 4.28 57.8 4.32 57.44 4.34C57.11 4.36 56.92 4.32 57.02 4.26L57.02 4.26Z" />
</svg>