<svg xmlns="http://www.w3.org/2000/svg" viewBox="0 0 1350 123" width="1350" height="123">
	<style>
		tspan { white-space:pre }
		.shp0 { fill: #ffe6b2 } 
	</style>
	<path id="Layer" fill-rule="evenodd" class="shp0" d="M1247.6 113.1C1255.1 114.8 1269.9 116.5 1280.9 118C1280.1 120.8 1275 119 1273.6 118C1272.8 118.7 1272 119.4 1271.2 120.1C1251.8 118 1235.1 114.3 1218.5 112.4C1227.1 110.8 1235 113.7 1246.9 113.1C1237 109 1222.3 109.7 1211.2 107.5C1212.9 103.9 1218.6 106.4 1220.9 108.2C1230 106 1245 111 1254.2 111.7C1254.4 115.4 1249 110.2 1247.6 113.1ZM1232.3 97C1263.1 101.5 1302.9 109.1 1336.2 116C1314.1 115 1293 109.1 1270.4 105.4C1257 103.2 1242.9 102.8 1229 101.2C1181.2 95.6 1132.7 91.5 1083.7 89.2C1064.5 88.3 1045.1 86.9 1026.1 85.7C1005.1 84.4 984.1 83.9 963.6 82.9C914 80.4 875.7 77.4 825.6 76.6C819.1 76.5 818 78.6 812.6 75.9C814.8 72.9 821.7 74.8 826.4 75.9C830.2 74.6 836.9 75.3 842.6 75.9C844.6 75.7 844.1 73.5 846.7 73.8C846.5 76.9 849.5 73.9 850.7 73.8C853.2 73.9 853.9 75.7 855.6 76.6C857.9 76 859.6 74.9 862.1 74.5C862.2 78 873.8 75.6 882.4 76.6C882 73.6 883.1 76.1 887.3 76.6C888.6 76.2 887.4 75.9 886.5 75.9C898.1 72.9 913.5 77.5 925.5 78.7C927.3 78.9 926.4 76.7 927.9 76.6C938.8 76.9 960.6 82.6 975.8 78C975.5 78.9 974.8 79.4 973.4 79.4C973.8 80.8 976.3 80.1 976.7 78.8C977.9 83.5 997.3 80.2 1002.6 80.8C1005.6 81.1 1008.2 83.7 1011.5 80.8C1014.2 80.2 1012.7 83.1 1014.8 82.9C1025.7 81.3 1042 84.9 1057 82.9C1059 82.8 1058.9 84.5 1060.2 85C1088 85.1 1114.4 88.2 1140.6 87.8C1154.4 91.3 1172.4 90.6 1190.9 92.7C1199.2 93.6 1209.2 96.8 1216.9 94.8C1221.1 97 1231.3 96.9 1232.3 97ZM187.1 13.6C284.7 3.3 373.4 4.6 477.7 2.3C477.8 1.5 477.5 1.1 476.9 0.9C477.2 -1.1 479.4 0.8 478.5 2.3C521.3 1.1 559.3 3.2 594.6 2.3C597.7 2.2 601.5 0.2 602.7 3.7C492.6 6 391.8 4.8 273.2 10.1C257.3 10.8 240.2 12.1 224.5 13.6C203.5 15.5 182.1 18.1 164.4 19.9C157.8 20.6 150.9 21.5 144.1 22C137.6 22.5 129.5 19.6 123.8 24.1C170.8 26.1 223.7 17.8 273.1 15.7C285.8 15.2 300.9 14.5 312.9 15C314.6 15 317 14.2 317.8 17.1C286.6 17.9 259.8 19.6 224.5 24.1C245.3 24.2 267.6 20.9 290.2 23.4C293.3 24.1 291.5 20.8 294.3 21.3L294.3 23.4C314.1 22.2 332.6 24 347.1 20.6C346.7 23.6 354.2 20.9 358.5 19.9C371.1 17 389.6 20.8 406.4 19.2L406.4 21.3C419.5 20.7 436.5 18.8 449.4 22C427.7 23.6 399.6 21.2 383.6 24.8C382.5 26.6 386.8 27 384.4 27.6C381.6 28.2 381.6 26.5 382.8 25.5C375.7 27.6 367.5 24.4 361.7 26.2C361.8 25.2 361.9 24.2 360.9 24.1C361.9 27.1 356.1 23.3 356 26.2C354.5 26.1 355.5 23.8 354.4 23.4C353.4 23.7 352.8 24.3 352.8 25.5C348.5 21.9 341.1 24.6 334.9 24.8C328.5 25 319.6 22.1 316.2 27.6C314.4 26.2 310.1 27 308.1 27.6C308 25.4 310.6 25.5 313 25.5C310.6 22.6 299.8 26.2 295.9 25.5C294.2 25.7 297.1 27.4 295.1 28.3C293.5 28 293 26.8 291 26.9C291.3 25.9 293.1 26.3 294.3 26.2C284.4 24.5 271.5 26 261.8 29C252.5 27.8 232.2 28.6 225.3 31.8C220.7 32.5 218 30.9 214.7 33.2C219.7 34.1 223.4 34 230.1 33.2C233.2 33.1 230.4 33.8 230.9 35.3C234.7 35.6 237.6 35.1 240.6 34.6C240.1 33.9 238.8 33.9 239 32.5C241.8 31.9 242.9 32.9 242.2 35.3C243.9 34.7 246.1 34.4 246.3 32.5C247.4 34.9 263.5 34.8 270.7 34.6C283.4 34.2 300.9 35.2 311.3 33.9C315.1 33.4 316.3 31.3 320.2 33.2C321.4 32.9 319.9 32.3 320.2 31.1C321.2 31.4 321.8 32 321.8 33.2C332.4 31 345.9 36.1 351.8 30.4C353.1 30.3 354.5 34.7 355 31.1C356.8 30.7 356.1 32.4 357.4 32.5C380.6 32.2 396.4 29.7 419.1 31.1C421.6 32.4 414.4 31.2 414.2 32.5C425.6 33.6 436.2 33.6 445.1 30.4C444.9 31.4 442.7 30.6 442.7 31.8C572.6 33.8 671.9 28.7 804.7 34.6C805.47 34.34 806.38 33.58 805.89 33.3C817.61 36.15 831.66 33.82 846.1 36C848.5 35.3 849.4 33.2 852.6 33.2C852 34.7 848.8 34.1 848.6 36C880.3 38.2 914.6 36.4 937.9 40.2C938.9 40 938.7 38.8 937.9 38.8C938.9 35.5 941 40.1 942 40.2C943.7 40.3 947.3 36.9 950.9 38.8C951.3 39 951.2 40.8 951.7 40.9C956.6 41.8 963.2 41 965.5 39.5C968.4 45 980.1 41.4 985 43.7C986 43.5 985.8 42.3 985 42.3C994.7 41.4 1005.8 44.9 1015.8 43C1014.8 43.9 1015.5 44.1 1015.8 45.1C1020.7 44.2 1027.3 46.8 1028.8 44.4C1055.4 47.8 1094 52.4 1133.5 55C1160.1 56.8 1182.8 63.3 1208.2 64.2C1164.9 55.1 1122.2 54.3 1078.3 46.6C1076.7 47.2 1075.3 47.8 1073.4 48C1068.5 45.9 1061.8 47.2 1054.7 45.9C1055.9 42.5 1057.1 45.3 1059.6 45.2C1076.3 44.8 1103.2 47.3 1118 48C1118 48.7 1117 48.5 1116.4 48.7C1150.8 51.5 1193.9 57.5 1233.3 63.5C1233.1 64.5 1231.3 64.1 1230.1 64.2C1233.5 68 1234.5 62.5 1238.2 64.2C1234.7 66.7 1239.6 65.8 1242.3 64.9C1241.3 65.8 1242 66 1242.3 67C1265.4 70.1 1284.6 74.9 1307.2 80.4C1283 77.3 1265.1 71.9 1243.9 69.8C1264 76 1287.2 79.7 1306.4 86.7C1323.5 89.7 1340.5 89.9 1350.2 98C1325.1 92.6 1303.8 89.1 1276.3 86C1276.9 88.9 1284.4 86 1284.4 89.5C1279.3 87.7 1272.5 87.8 1264.9 86.7C1273.6 90.1 1285.2 91.1 1295.7 93C1281.6 94 1267.1 87.9 1255.9 89.5C1257.6 92.5 1264.6 90.9 1267.3 93C1262.2 94.6 1249 91.6 1241.3 90.9C1245.9 89.2 1249.9 91.3 1255.1 90.2C1252.8 85.5 1243 91.7 1240.5 86C1228.8 87 1213 84.4 1200.7 81.1C1199.1 81.3 1199.1 83 1198.3 83.9C1198.8 81 1192.5 81.4 1188.6 80.4C1189.1 81.1 1190.4 81.1 1190.2 82.5C1178.1 75.9 1151.6 74.1 1135.8 74.1C1146 78 1163.5 77.3 1173.9 81.1C1148.6 77.7 1128.1 78.6 1103.3 74.1C1105.6 73 1108.2 73.5 1110.6 74.1C1110.7 72.2 1109.2 72.7 1110.6 71.3C1097.8 69.4 1088.8 68.4 1074.1 68.5C1073 68.7 1073.4 70.2 1073.3 71.3C1067.5 70.2 1057.6 72.9 1053 68.5C1038.7 70 1011 66.9 995.4 67.1C977.2 67.3 963.8 63.6 942.6 63.6C949.7 60.3 955.8 61.6 962.1 61.5C939.6 57 918 59.7 895.5 56.6C894.7 57.2 892.8 60.2 894.7 60.8C894.5 62.4 891.2 61.1 889.8 61.5C890.2 59.5 894 60.5 893 57.3C880.6 56.5 869.4 54.6 855.7 56.6C831.3 54.7 787 51.7 755.9 52.4C741.3 52.7 723.4 51.6 711.3 53.8C702.2 50.1 683.3 53.4 673.1 53.1C654.7 52.5 637.1 50.2 618.7 53.1C616.7 51.8 608.8 50.3 607.3 53.1C593.9 51.5 580.7 52.6 562.7 53.1C564.1 54.5 562.1 54.5 563.5 55.9C565.1 55.6 563.6 52.7 566.8 53.8C568.6 54.6 569.9 55.8 570.9 57.3C568 54.9 568 58.9 565.2 58.7C565.6 58.1 566 57.6 566 56.6C562.9 55.8 564.7 59.2 561.9 58.7C558.7 58.8 562.2 57.6 560.3 56.6C556.2 57.9 549.5 57 544.1 57.3C550.6 54 557 58 562 53.8C531.7 50.7 503.8 55.2 478.4 53.8C479.8 55.4 483.7 54.9 484.1 57.3C477.8 58.8 463.4 57.9 454.1 58C457 56 463 56.8 466.3 55.2L466.3 57.3C469.3 56.3 473.5 57.9 475.2 54.5C474.5 52.8 473.2 56.4 470.3 55.2C470.9 52.3 460.9 54.1 456.5 55.9C453.8 53.5 445.2 55.1 443.5 53.8C439.8 54.5 444.9 56.6 442.7 58C440 58.7 439.9 57.8 437 58.7C437.3 57.8 438.4 57.6 438.6 56.6C436 56 437 58.4 435.4 58.7C409.3 59.2 387.1 60.4 361.5 60.1C361.6 58.8 364.1 59.6 363.9 58C352.8 59.6 346.7 62.4 338.7 59.4C313.6 62.9 275 62.3 251.9 62.2C232.5 66.3 205.1 65.4 187.8 67.1C184.5 66.6 185.8 70 182.9 69.9C181.2 70.2 181.4 68.9 181.3 67.8C154.6 68.6 135.2 69.6 105 69.2C106 70.1 105.3 70.3 105 71.3C120.1 74.1 136.8 70.6 149.6 74.8C150.5 73.4 151.2 71.9 154.5 72.7C154.8 75.6 153.4 72.6 151.3 73.4C153.8 75.9 157.7 74 161.8 74.1C161.3 76.5 157.4 75.9 154.5 76.2C161.4 80 172 74.2 179.7 79.7C181.5 78.3 177.4 77.9 180.5 76.2C182.9 76.7 183.5 78 181.3 79C182.6 79.2 183.4 77.8 183.7 79C184.9 78.7 183.4 78.1 183.7 76.9C186.1 76.2 185.1 78.5 185.3 79.7C189.3 79.7 192.1 74.9 191.8 79C195 79.6 193.2 76 196.7 76.9C198.6 80 205.3 79.4 211.3 78.3C210.8 77.6 209.4 77.6 209.7 76.2C213.1 76.9 213.3 76.4 217 76.2C216.4 77.1 215.2 77.5 213.7 77.6C218.4 79.9 225 77.6 233.2 78.3C232.9 77.4 234 73.7 237.3 76.2C237.2 77 235.8 76.8 234.9 76.9C270.9 78.5 300.8 78.7 331.5 77.6C336.8 77.4 343.7 75.1 348.5 79C345.3 77.4 348.7 80 348.5 81.8C341.9 81.3 336.7 82.5 328.2 81.8C327.9 80.1 331.9 82.2 330.6 79.7C330.3 78.6 329.2 80.3 329 79C327.3 78.7 327.5 80 327.4 81.1C324.9 78.8 319.4 79.4 318.5 82.5C315.7 82 308.6 82.6 310.4 80.4C305.9 82.9 296.1 83.8 292.5 80.4C292.9 83 285.4 83.5 288.4 80.4C285.7 79.9 287.4 83.3 284.4 82.5L284.4 80.4C283 82.2 280.1 82.8 277.1 83.2C278.3 80.6 278.8 82 276.3 80.4C274.1 80.9 273.5 82.7 271.4 83.2C270.3 82.5 264.5 79.9 264.1 83.2C258.3 78 243.7 87.3 246.2 81.1C239.1 80.2 235.6 83 226.7 83.9C225.6 83.5 226.6 81.2 225.1 81.1C214.7 84.8 196.4 83.1 181.3 84.6C186.7 85.2 186.4 86.7 191.8 86.7C191.9 88.6 190.5 88.1 191.8 89.5C199.2 88.5 212.5 89.8 218.6 88.8C215.8 91.7 225.2 92.5 224.3 90.2C226 90.2 234.6 93.6 236.5 88.8C239.1 90.3 239.7 90.3 242.2 88.8C241.7 89.4 241.2 90.1 242.2 90.2C245.7 90.7 241.5 88.8 243.8 88.8C247.6 88.6 242.6 90.1 246.2 90.9C250.5 91.9 262.8 88.6 249.4 89.5C247.6 88.2 255.3 89.1 257.5 88.8C254.2 91.6 260.4 89.8 259.9 92.3C240.9 93 226.1 94.2 211.5 96.1C209 94.1 202.9 93.9 199.8 95.9C199.8 96.6 200.8 96.4 201.4 96.6C202.4 98.7 197.7 95.6 197.3 94.5C188.9 98.7 174.8 92.1 166.5 98.7C162.7 98.5 161.2 98.4 159.2 98C159.1 96.5 162.1 97.7 163.3 97.3C160.2 93.7 156.4 99.1 150.3 98.7C149.7 96.8 151.9 97.3 151.9 95.9C149.8 97 143.6 94.8 145.4 97.3C144.3 98.7 142.8 94.5 138.9 95.9C139.7 98 134 97.4 131.6 98.7C129.9 98.8 131.3 96.2 130.8 95.2C118.6 99.3 109.7 95.8 100 97.3C106.8 100.1 118.5 98.6 126.8 100.1C115.7 102 106.3 99.5 96.8 100.1C97.1 101.4 94.2 101.3 93.6 103.6L80.6 103.6C84.4 105.5 90.6 105.2 93.6 107.8C83 110 65.8 106.7 55.4 104.3C55.9 100.7 56.3 98.7 53.8 98C58.5 95.1 56.2 99.8 58.7 100.8C60.9 96.7 62.5 99.7 69.3 99.4C69.9 97.2 66.5 98.6 67.7 95.9C64.6 95.9 59 96.3 56.3 94.5C59 93.1 64.5 95.3 69.3 94.5C68.9 94.3 68.1 91.1 67.7 93.1C66.3 92.6 67.2 91.5 68.5 91.7C67.8 89.7 62.6 91.6 62.8 88.9C67.9 88.1 69.9 88.1 71.7 85.4C67.2 85.6 63.1 85.5 57.1 84C57 82.6 55.5 79.4 57.1 77C53.4 77.4 52.1 75.8 48.2 76.3C48.9 74.1 53.9 75.6 55.5 74.2C56.7 70.7 51.8 72.3 52.3 69.3C58.1 68.6 63 67.9 67.7 67.9C67.8 66.4 64.8 67.6 63.6 67.2C63.8 65.6 66.4 65.9 66 63.7C64.6 63.6 64.3 64.6 62.8 64.4C63.4 63.4 64.8 62.9 66.8 63C65.6 62.2 64.6 61.2 63.6 60.2C64.2 58.6 68.2 59.9 70.1 59.5C71.6 55.6 68.4 52.9 63.6 52.5C66.2 50 68 54.7 70.9 52.5C66.8 50.8 65.4 48.8 64.4 47.6C63.8 46.9 61.6 47.2 62 47.6C59.6 45.5 61.2 41.5 52.3 42C54.1 39.5 57.2 42.1 59.6 39.9C57.8 37.8 55 40.6 52.3 39.9C58.4 37.6 49.7 37.6 45.8 37.8C48.2 36.4 51.2 35.5 55.5 35.7C55.4 34.1 52 35.4 50.6 35C51.4 33.8 54.1 34.2 55.5 33.6C52.3 32.9 49 32.2 45.8 31.5C60 26 74.4 26.3 90.4 23.7C75.6 20.6 62 27.1 44.9 27.9C90.3 14.8 136.9 17.2 187.1 13.6ZM805.5 33.2C805.67 33.21 805.8 33.25 805.89 33.3C805.76 33.26 805.63 33.23 805.5 33.2ZM1153.5 101.8C1159.6 102.1 1167.2 102.7 1170.6 103.2C1170.7 105.2 1165.3 102.3 1166.5 105.3C1164 104.7 1157.4 100.8 1155.1 104.6C1154.3 104.4 1154.6 103.2 1153.5 103.2L1153.5 101.8ZM1299.7 101.1C1297.2 103.2 1292.4 100.9 1288.3 99.7C1291.8 97.6 1296.4 100.6 1299.7 101.1ZM1023.7 96.9C1025.8 98 1017 98 1016.4 96.9C1018.1 94.8 1020.7 97.8 1023.7 96.9ZM1002.6 95.5C1002 98 995.7 98.3 995.3 95.5C999.5 96 998.3 96 1002.6 95.5ZM984.7 94.8C989.2 94.6 990.2 96.4 992.8 96.2C992.5 98.5 988.1 97.3 985.5 97.6C987.7 95.7 984.2 97 984.7 94.8ZM981.5 95.5C978.1 98.1 977.3 95 972.6 95.5C972.7 96.3 974 96.1 975 96.2C974.7 97.8 970.3 97.2 971.8 94.8C976.9 94.5 977.3 93.8 981.5 95.5ZM953.1 91.9C953.1 89.5 948.7 92 947.4 89.1C943 93.1 930.2 88.7 930.4 92.6C930.4 94 927 91.1 928 94.7C917.8 92.3 904.9 96 898.8 91.9C894.9 92.3 889.4 94.1 885 93.3C883.4 93 882.2 91.2 881.8 91.2C875.9 91 869.5 93.5 863.1 92.6C836.8 89 798.4 91.6 773 88.4C790.5 85.9 817.4 89.3 835.5 88.4C827.3 84 814.9 89.1 807.9 84.9C793.8 88.8 775.8 83.7 763.2 86.3C764 83.5 760.8 84.1 759.1 83.5C759.2 81.9 762.6 83.2 764 82.8C763.6 84.3 764.5 84.6 764.8 85.6C784.7 81.1 802 85.4 826.5 83.5C826.1 85 827 85.3 827.3 86.3C831.6 86 835.8 85.7 839.5 84.9C839.6 82.7 837 82.8 834.6 82.8C843.8 80.7 862.1 83.4 871.1 82.8C866.3 85.5 858.3 81.8 854.9 86.3C851.4 81.1 846.7 84.1 840.3 83.5C848.8 87.8 860.7 87.2 869.5 85.6C870.7 89.7 876.7 85.8 880.9 86.3C865.5 91.3 854 86 836.3 87.7C856.2 91.8 876.3 87.8 891.5 91.9C893.8 89.6 898.7 91.3 901.2 90.5C901.4 91.6 900.4 91.7 900.4 92.6C909.8 88.7 921.1 94.1 929.6 91.2C929.7 89.7 926.7 90.9 925.5 90.5C926.2 88.6 926 85.8 928.7 85.6C924.3 83.1 917.1 83.2 914.1 87C915.8 88.3 922.2 83.8 924.6 85.6C924.3 88.3 919.4 84.9 918.9 88.4C919.4 90.1 923.9 88.3 924.6 89.8C917.8 90.6 910.1 90.4 904.3 89.1C906.3 86.2 908.8 89.9 913.2 89.1C915.9 88.1 910.5 88.3 911.6 86.3C915.9 81 922.2 82.7 931.1 83.5C933.9 83.8 943.7 83.2 937.6 84.2C933.9 84.6 934.2 84.9 930.3 85.6C928.8 85.9 931.7 87.6 927.9 87C929.2 89.6 934.7 83 934.4 88.4C937.1 85 946.3 86 948.2 88.4C950.7 88.5 952.1 87.6 953.9 87C953.6 86 951.8 86.4 950.6 86.3C951.5 84.5 955.9 85.7 957.1 84.2C959 84.7 958.9 86.9 961.2 87C958.6 90.6 955.8 91.2 953.1 91.9ZM1267.2 92.7C1268.8 91.1 1272.6 93.6 1276.1 92.7C1275.3 94.6 1269.1 95.8 1267.2 92.7ZM937.7 92.7C938.2 94.3 936.2 93.7 936.1 94.8C935.3 94.8 935.5 94 935.3 93.4C932.7 93 932.8 94.7 931.2 93.4C933.3 91.8 934.8 92.4 937.7 92.7ZM406.9 89.1C406 90.7 405.2 92.4 402.8 92.6C394 88.7 382.8 92.8 374.4 92.6C374.6 91.6 381.1 91 376.8 90.5C389.4 88.3 394.8 88.7 406.9 89.1ZM365.4 89.9C366 92.3 362.1 90.8 363 93.4C359.4 92.4 357.1 93 353.3 93.4C353.6 88.7 361.5 89.3 365.4 89.9ZM963.6 89.1C964 91 960.6 89.8 960.4 91.2C959.2 89.4 963.9 87.8 960.4 84.9C961.4 83.2 962.8 86.2 963.6 84.2C966.3 85 960.2 87.7 963.6 89.1ZM772.1 87.7C772.2 88.5 771.9 88.9 771.3 89.1C728.8 88.8 689.3 89.4 648.7 87.7C684.7 85.1 731.9 87.3 772.1 87.7ZM1320.8 87C1322.8 84.9 1325.7 87.8 1328.9 87C1328.8 88.6 1323.3 88.1 1320.8 87ZM631.7 86.3C627.6 88.8 620.4 87.5 616.3 87.7C619.4 84.4 625.6 87.6 631.7 86.3ZM553.8 87C552.5 88.2 550.2 88.5 547.3 88.4C548.9 86.9 551.5 86.2 553.8 87ZM1210.3 87.7C1212.1 86.9 1214 86.2 1216 85.6C1216.6 88.4 1213 87.6 1210.3 87.7ZM645.5 86.3C646 89.1 641 87.1 639 87.7C639.8 86.1 642.7 86.3 645.5 86.3ZM613.8 86.3C614.5 88.8 610.6 87.3 608.9 87.7C610 85.2 611.6 87.5 613.8 86.3ZM739.6 82.8C739 83.3 736.2 85 739.6 84.9C740.09 86.16 735.75 85.06 732.57 85.55C732.57 85.55 732.57 85.55 732.57 85.55C732.48 85.57 732.39 85.59 732.3 85.6C732.39 85.58 732.48 85.57 732.57 85.55C735.36 84.99 737.76 81.83 739.6 82.8ZM374.4 85.6C381.1 84.9 393.5 82.5 399.6 85.6C393.8 85.3 382.7 85.8 374.4 85.6ZM462 82.8C460.5 85.9 451.9 84.1 445.8 84.2C441.8 84.2 438.2 84.6 435.3 84.9C441.1 81.9 457.1 84.4 462 82.8ZM434.4 83.5C433.4 84.7 425.9 86.5 425.5 83.5C429.5 84 430.4 84 434.4 83.5ZM405.3 82.1C405.5 83.3 403.9 83.9 405.3 84.2C405.4 85.7 402.4 84.5 401.2 84.9C402.3 83.8 403.2 82.5 405.3 82.1ZM586.2 82.1C584 84.1 582.5 82.3 579.7 83.5C579.9 81.3 583.8 82.3 586.2 82.1ZM548.1 82.8C547.5 84.4 543.5 83.1 541.6 83.5C543 81.2 546.1 82.4 548.1 82.8ZM626.8 82.1C628.8 82.1 628.5 80.7 630.9 82.1C624.4 83.7 617.6 82.2 626.8 82.1ZM606.5 81.4C601.3 85.1 591.6 81.7 601.6 81.4C603.7 81.3 603.8 82.5 606.5 81.4ZM746.1 81.4C750.4 80.1 755.7 80.3 758.3 80.7C753.5 82.2 750.4 81.6 746.1 81.4ZM371.1 81.4C370.4 79.4 372.2 79.6 371.9 77.9L376.8 77.9C375.9 78.8 376.1 79.3 377.6 79.3C376.5 80.8 374.7 81.9 371.1 81.4ZM384.1 74.3C384.15 74.48 384.19 74.64 384.21 74.8C384.15 74.65 384.12 74.48 384.1 74.3ZM384.21 74.8C385.35 78.06 394.41 74.58 394.7 78.5C393.9 78.4 393 78.4 392.3 78.5C389 78.8 387 79.4 382.5 79.2C381.75 76.58 384.51 77.02 384.21 74.8ZM414.2 76.4C414.6 82.5 403 78.7 394.8 78.5C400.5 74.2 408 79.4 414.2 76.4ZM430.4 79.3C431.4 77.3 434.6 77.9 437.7 78.6C436.6 81.1 431.9 79 430.4 79.3ZM421.5 79.3C419.5 79.9 419.3 79.8 415.8 80C415.3 78.1 421.7 76.5 421.5 79.3ZM363.8 77.2C358.9 79.3 354.1 80.3 349.2 79.3C351.7 76.4 359.2 77.1 363.8 77.2ZM775.3 78.6C781.1 74.5 790 80.6 795.6 77.2C793.2 75.2 791.2 77 787.5 75.8C787.9 74.6 794 74.9 791.6 73.7C796.1 73.5 801.9 74.2 806.2 75.1C804.6 78.8 797.6 74 796.4 77.2C798.2 78.2 801 78.4 803.7 78.6C796.4 80.2 783.3 78.7 775.3 78.6ZM510.8 78.6C509.8 79.4 507.9 79.4 505.9 79.3C505.1 77.3 511.1 75.8 510.8 78.6ZM501 77.9C498.4 79.9 492.9 77.8 488 78.6C490.9 75.9 495.1 77.1 501 77.9ZM475.9 77.2C474.8 80.1 467.4 77.2 463.7 79.3C464.4 75.8 470.1 78.3 475.9 77.2ZM453.9 79.3C454.4 77.6 457.1 76.4 458.8 77.9C458.7 79.7 456.1 79.3 453.9 79.3ZM742.1 78.6C742.5 74.1 750.7 76.6 751 77.9C747.6 78.8 746 77.8 742.1 78.6ZM720.2 77.2C719 78.9 717.4 78.4 715.3 77.9C715.7 75.6 718.3 76.9 720.2 77.2ZM667.4 77.9C664.1 78.8 663.6 77.8 660.1 78.6C659.9 75.6 667.2 74.5 667.4 77.9ZM562.7 78.6C563.5 76.5 567.6 77.2 570 76.5C569.7 79 564.7 77.5 562.7 78.6ZM1040.7 75.8C1049.5 74.6 1064.4 77.7 1073.2 76.5C1064.9 79.5 1051.1 75.6 1040.7 75.8ZM643.9 77.9C644.1 75.9 653.4 75.3 652.8 77.2C649.7 78.9 646.8 76.8 643.9 77.9ZM606.5 77.2C609.7 76.5 615.8 75.2 618.7 76.5C615.7 78.1 610.4 78.1 606.5 77.2ZM243.7 75.1C246.4 77.2 240.5 77.7 238.8 76.5C239.9 74.3 243.4 78.2 243.7 75.1ZM262.4 75C266 76.6 255.5 77.7 256.7 75C259.2 74.1 261.2 77.1 262.4 75ZM871.9 73.6C867.9 76.6 859.7 74.3 869.5 74.3C870.1 74.3 870.8 73.3 871.9 73.6ZM720.1 75C720.9 72.2 723.2 73.6 725.8 73.6C725.7 75.7 722.4 74.9 720.1 75ZM718.5 73.6C718.3 75.8 711 75.4 709.6 74.3C710.1 72.1 716.5 74 718.5 73.6ZM703.9 74.3C703.2 74.9 698.9 75 699 72.9C699.7 74.7 704 70.9 703.9 74.3ZM1095.9 74.3C1093.5 74.2 1091.9 73.1 1090.2 73.6C1092.7 70.4 1110.1 75.3 1095.9 74.3ZM914.1 63.1C911.4 59.8 923.2 60.9 925.5 61.7C924.6 64.8 915 62.1 914.1 63.1ZM884.9 61C883.5 63 879.8 63.7 876.8 62.4C878.8 60 881 63.4 884.9 61ZM1261.5 61C1262.8 59 1268.4 61.5 1272.1 61.7C1270.2 62.8 1264.4 61.3 1261.5 61ZM1306.1 59.6C1307.8 57.7 1311.7 59.8 1313.4 60.3C1311.3 62.5 1309.6 58.5 1306.1 59.6ZM1161.5 47.6C1163.9 49.7 1168.2 48 1168.8 50.4C1158.1 48.7 1144.3 49.1 1132.3 43.4C1131.8 45 1125.2 45.4 1121.7 44.1C1122.1 42.1 1126.5 45.9 1127.4 43.4C1122.6 41.7 1115.7 41.8 1110.4 40.6C1109.6 44.3 1117.1 40.9 1116.9 44.1C1094.2 36.8 1059.8 35.7 1032.5 32.1C1022 30.7 1009.4 30.1 997.6 30C971.6 29.9 944.5 23.6 918.1 25.8C898 20.6 871.9 23 854 19.5C847.4 22.5 834.4 18.1 824 18.1C821 18.1 818.5 19.6 815.9 19.5C813 19.4 810.6 17.6 807.8 17.4C802.4 17 795.6 18.3 789.9 18.1C787.9 18 783.7 16.2 783.4 18.8C781.6 17.6 777.3 18.5 776.1 16.7C772.8 20.2 760.2 14.4 759.1 19.5C756.2 16.7 746.9 14.9 742.9 18.8C739.5 18.9 742.9 17.7 743.7 17.4C730 17.3 713.6 16.8 704.8 13.9C718.6 11.8 733.9 13.3 751.1 13.9C785.7 15.2 822.8 14.5 857.4 16.7C861.6 17 870.8 18.5 878.5 18.8C908.2 20.1 939.5 23.7 966.2 23C969.5 25.6 976.6 23.3 980.8 24.4C981.6 22.3 979 23.2 977.5 23C983.7 22.7 994 22.4 1000.2 23C1062 29.4 1135.2 36.3 1191.7 45.5C1159.5 45.4 1132.8 36.8 1104 37.7C1105.8 34.8 1096.3 36.6 1094.2 34.9C1093.4 35.1 1093.7 36.3 1092.6 36.3C1087.2 34.2 1081.5 35.1 1075.6 34.2C1073.6 33.9 1074.6 34 1074.8 32.8C1071.4 35 1070 31.6 1067.5 34.2C1136.2 42.5 1193.8 46.6 1259.9 60.2C1258.9 62.6 1253 61.4 1251.8 58.8C1230.7 59.5 1205.1 51.1 1184.4 50.4C1183.31 52.09 1181.48 50.61 1179.3 50.4C1175.5 47.7 1167.5 48.5 1161.5 47.6ZM1170.6 50.4C1172.04 49.03 1173.9 50.62 1175.94 51.63C1174.21 51.23 1172.38 50.72 1170.6 50.4ZM1175.94 51.63C1177.12 51.91 1178.25 52.14 1179.3 52.24C1178.16 52.55 1177.02 52.17 1175.94 51.63ZM499.4 60.3C497.7 59.9 497.7 59.2 498.6 58.2C496.1 58.1 496.3 60.4 492.9 59.6C493.4 55.5 489.9 58.9 487.2 58.2C487.4 52.2 500.6 57.3 502.6 54.7C505.9 56.4 506.9 55.9 509.9 57.5C506.8 59.9 499.7 55 499.4 60.3ZM1229.8 45.5C1256.5 49.9 1280.7 53.9 1304.5 58.2C1286 58.1 1263.1 51.9 1241.2 48.3C1237.5 47.7 1232.1 49.3 1229.8 45.5ZM726.6 58.1C725.4 56.8 721.3 58 720.1 56.7C721.4 56.8 727.1 55.1 726.6 58.1ZM643 58.2C643.9 57.4 643.7 56.8 642.2 56.8C643.7 53.5 647 56.8 648.7 57.5C648.4 59 644.7 57.7 643 58.2ZM535.9 56.8C533.1 58.1 530.1 58.1 527 57.5C529.7 55.6 533.6 56.5 535.9 56.8ZM522.1 58.2C519.1 56.8 517.3 58.7 513.2 58.2C514.2 57.2 520.7 54.2 522.1 58.2ZM619.5 56C622.2 54.7 624.4 56.2 627.6 54.6C626.3 57.3 621.6 57.8 619.5 56ZM1229.2 45.4C1166.4 37.2 1100.2 30.2 1029.5 22.9C1054.2 21.9 1078.9 26.2 1102.5 27.8C1123.4 29.3 1144.1 34.1 1167.4 34.2C1166.8 35.5 1165 34.7 1166.6 36.3C1168.8 36.8 1168.1 34.9 1169 34.2C1170.5 34.7 1169.1 35.5 1169 36.3C1188.6 39.5 1211.6 41.2 1229.2 45.4ZM1046.4 37C1045.2 35.7 1041.1 36.9 1039.9 35.6C1041.2 34.1 1046.6 35 1046.4 37ZM986.3 34.11C986.2 33.61 985.7 32.95 985.07 32.41C985.52 32.38 985.94 32.29 986.3 32.1C985.8 32.13 985.3 32.16 984.8 32.19C984.24 31.76 983.61 31.44 983.1 31.4C994.1 30 1000.2 32.1 1009.9 32.1C1002.09 32.88 994.2 33.63 986.3 34.11ZM940.9 32.1C943.6 29.6 950 30.9 953.9 31.4C955.8 26.3 965.4 28.7 970.1 30.7C965.9 30 963.1 30.2 957.1 30C958.6 32.3 964.1 29.4 962 32.1C965.78 30.97 969.39 32.66 972.44 33.05C961.81 33.74 951.24 34.08 940.9 32.1ZM976.6 32.1C977.66 31.86 978.05 32.18 978.26 32.65C977.27 32.72 976.27 32.79 975.27 32.86C975.74 32.69 976.18 32.45 976.6 32.1ZM978.26 32.65C979.08 32.59 979.9 32.53 980.72 32.47C979.94 32.68 979.31 33.17 979 34.2C978.53 33.84 978.5 33.15 978.26 32.65ZM982.63 32.34C983.35 32.29 984.08 32.24 984.8 32.19C984.89 32.26 984.98 32.34 985.07 32.41C984.31 32.47 983.46 32.37 982.63 32.34ZM982.63 32.34C981.99 32.38 981.36 32.43 980.72 32.47C981.3 32.31 981.95 32.31 982.63 32.34ZM972.44 33.05C973.38 32.99 974.33 32.92 975.27 32.86C974.4 33.16 973.45 33.18 972.44 33.05ZM430.4 31.4C428.4 32 426.1 32.3 423.1 32.1C422.7 30 430.3 28.6 430.4 31.4ZM494.5 30.7C496.3 29.1 500.4 28.1 501.8 30C500.1 30.8 496.2 31.9 494.5 30.7ZM486.4 30C485.3 32 483.4 30.6 479.9 31.4C480.1 29.2 485.3 29.3 486.4 30ZM462.1 31.4C464.4 30.1 467.7 28.5 471 30C469 31.3 465.7 31.5 462.1 31.4ZM600 30C603.7 28.2 607.4 28.7 611.4 29.3C608.5 31.5 605.3 29.6 600 30ZM569.2 30C575.6 28.7 584.1 28.7 591.9 29.3C587.8 30.7 575.1 30.4 569.2 30ZM458 26.5C460.2 25.4 463.3 25.1 466.9 25.1C466.8 28 460.7 25.8 458 26.5ZM623.6 21.5C598.3 21.3 572.3 22.8 548.9 21.5C557.4 19.8 567.8 18.6 578.1 18.7C588.2 18.8 598.8 17.6 608.9 18C613.7 18.2 619.8 19.1 623.6 21.5ZM465.3 22.2C463.6 21 459.8 22.1 458 22.9C453.1 21.7 467 16.7 465.3 22.2ZM532.7 20.1C519.2 23.6 493.9 20.9 475.9 21.5C494.4 18 510.7 20.5 534.3 19.4C534.3 20.8 536.5 20.3 535.9 22.2C535.3 21.1 531.9 22.4 532.7 20.1ZM467 20.1L470.2 20.1C470.8 22.8 466.3 22.8 467 20.1ZM58.6 19.4C57.5 21.9 52.7 21.2 48.9 21.5C50.9 19.8 55.5 20.2 58.6 19.4ZM603.8 4.6C627.6 0.6 658.6 5.1 677.7 2.5C698.4 5 712.8 2.8 732.9 5.3C806.1 3.2 884.5 12.5 964.2 15.9C974.8 16.3 992.4 18.2 1004 19.4C1012.2 20.2 1022.1 18.3 1028.4 22.9C953.3 17.7 868.2 10.4 803.6 8.8C803.7 9.6 805 9.4 806 9.5C805.7 11 799.8 10.4 802.7 8.8C796.7 7.7 785.8 8.6 782.4 7.4C782 10.1 791.1 8.2 788.9 10.2C785.9 9.6 782.4 9.3 780 8.1C783.6 9.9 778.7 9.5 775.9 9.5C776.2 8.5 778 8.9 779.2 8.8C773 5.3 767.6 8.6 760.5 6.7C758.2 7.3 759.6 7.7 759.7 9.5C757.1 9.7 756.3 8.3 753.2 8.8C752.9 6.8 757.7 9.4 757.3 7.4C755.5 5.5 752.8 7.9 750 8.8C745.7 9.2 751.9 6.9 749.2 6.7C745.9 6.5 747.4 6.9 747.6 8.8C738.6 7.6 722.1 9.1 710.8 6.9C710.9 6.8 711 6.8 711.1 6.7C710.8 6.6 710.3 6.7 709.8 6.7C708.9 6.5 707.9 6.3 707.1 6C707 7.1 708.5 6.8 709.8 6.7C710.1 6.7 710.5 6.8 710.8 6.9C709.2 8 703.5 7.9 706.3 5.3C702.9 6.2 701.9 5.6 698.2 5.3C697.9 6.5 698.8 6.6 699.8 6.7C699.5 8.4 696.1 7.2 697.4 5.3C669.7 5.4 634.4 4.4 603.8 4.6ZM913.3 17.3C903.4 16.5 920.3 16.6 920.6 17.3C919.7 18.7 914.3 18.1 913.3 17.3ZM347.6 15.9C349.6 15 354.2 13.7 356.5 15.2C355.1 16.8 350.3 15.5 347.6 15.9ZM427.1 13.1C426.2 16.1 414.1 14.6 410.9 14.5C415.1 12.8 425 14.5 427.1 13.1ZM471.7 13.8L468.5 13.8C467.1 13.7 466.4 15 466.1 13.8C453.3 13.7 466.8 12.6 472.6 13.1C479 12.7 477.1 14.3 471.7 13.8ZM457.9 13.1C455.5 14.8 452.4 14.3 449.8 13.8C451 12.2 455.5 13.5 457.9 13.1ZM496.2 13.8C504.9 12.3 517 11.4 525.4 13.8C516.8 13.2 506.7 14.2 496.2 13.8ZM488 13.8C489 10.8 492.4 13.6 495.3 13.1C493.2 15.2 490.2 12.1 488 13.8ZM565.9 13.1C567.9 11.4 570.6 11.8 574 12.4C572.9 14 568.4 12.7 565.9 13.1ZM1281.8 117.3C1291.2 118.1 1306.4 121.2 1315.1 122.9C1302.2 123.9 1292.9 119.6 1281.8 117.3ZM1210.3 106C1208.1 108.2 1204.7 105.6 1200.6 105.3C1203.3 103.3 1208 105.5 1210.3 106ZM208.2 96.9C206.5 97.1 204.8 97.3 203.1 97.6C204 96.6 206.1 96.7 208.2 96.9ZM208.3 96.8C209.4 96.7 210.5 96.5 211.6 96.4C211.7 96.6 212 96.7 212.1 96.9C211 97 209.6 96.9 208.3 96.8ZM1184.4 105.3C1179.3 104.9 1175.6 104.3 1171.4 104.6C1172.7 102.5 1182.6 103.4 1184.4 105.3ZM68.4 104.6C65.8 103.8 63.6 102.7 60.3 102.5C60.8 105.4 65.9 105 68.4 104.6ZM336.3 80.7L339.5 80.7C339.3 79.4 340.4 79.2 340.3 77.9C337.7 77.7 337.9 80.1 336.3 80.7ZM226.6 82.8C229.2 82.9 231.5 82.8 232.3 81.4C230 81.5 226.8 80.8 226.6 82.8ZM144.7 77.9C150 76.5 151.8 80.2 153.6 76.5C152.9 76.5 145.1 75.3 144.7 77.9ZM117.1 80C121 79.5 123.6 79.9 128.5 80C128.1 77.7 117.4 77.7 117.1 80ZM89.5 88.5C87.1 89 84.5 89.3 83.8 91.3C86.3 93.1 88.2 89.8 89.5 88.5ZM107.4 63.1C100.7 60.5 92.8 63.3 87.1 61.7C85.8 65.4 81.4 63.6 79.8 65.9C90.6 64.7 98.7 68.8 107.4 63.1ZM1265.6 85.6C1268.5 85.7 1272.8 88.2 1275.3 86.3C1272.4 86.2 1268.2 83.6 1265.6 85.6ZM1230.6 68.7C1234.6 70 1238.8 70.9 1242.8 70.1C1239.4 68.3 1233.5 67.4 1230.6 68.7ZM1208.8 63.8C1209.4 66.5 1215.1 64.9 1216.9 66.6C1216.4 63.7 1211.1 65 1208.8 63.8ZM1112.2 73.6C1118.8 73.4 1123.3 74.5 1127.6 73.6C1124.6 72 1114.9 71.1 1112.2 73.6ZM1085.3 62.4C1087.9 62.1 1088.2 63.7 1091 63.1C1092.1 60.7 1085.6 61.4 1085.3 62.4ZM1046.4 58.9C1052.7 60.8 1062 59.6 1069.1 61C1063 57.3 1051 58.7 1046.4 58.9ZM1014.8 56C1018.1 56.1 1019.1 58.4 1022.1 58.8C1022.9 56.9 1027.2 58.1 1028.6 56.7C1023.5 55.8 1019.3 54.9 1014.8 56ZM962.8 60.3C985.6 64.4 1024.6 66.7 1053.7 67.3C1024.9 64.1 994.9 62.4 962.8 60.3ZM997 55.3C998.2 55.4 999.9 55.1 1000.2 56C1000.2 56.4 1000.3 56.8 1001 56.7C999.9 53.4 1004.8 58.3 1004.2 54.6C1002.3 54.9 994.9 54 997 55.3ZM975 55.3C981.6 52.4 988.2 57.4 994.5 54.6C987.8 53.1 976.5 51.3 975 55.3ZM953.9 54.6C957 53 957.7 55.4 961.2 55.3C962.4 50.7 970.7 56.6 972.6 52.5C964.9 53.1 959.3 50 953.9 52.5C955.3 52.8 953.7 53.4 953.9 54.6ZM942.6 51.8C944.1 52.8 946.9 51.1 949.1 53.2C947.8 53.3 946.1 53 945.8 53.9C948.9 53.5 949.8 55.2 953.1 54.6L953.1 51.8C948.2 52.1 944.7 48.5 942.6 51.8ZM419.1 56C421.7 55.6 421.6 57.3 423.1 56C423.9 53.5 418.5 54.5 419.1 56ZM934.4 51.8C935.4 49.2 939.3 53.5 940.1 51.1C939 50.4 931.5 49.6 934.4 51.8ZM923.1 49.7C924.3 51.7 921.9 52.9 925.5 53.2C925.8 52 924.3 51.4 925.5 51.1C929.8 51.2 926.1 51.2 926.3 53.2C928.3 52.1 931.7 52.3 932.8 50.4C928.6 51 926.9 49.4 923.1 49.7ZM396.3 33.5C398.3 32.9 403.3 34.9 402.8 32.1C399.8 33.3 397.2 31.3 396.3 33.5ZM232.5 51.9C332.8 48 451.4 47.3 558.8 46.3C571.1 46.2 582.3 43.4 589.6 47C599 42.5 610.1 45.5 619.6 46.3C626.1 46.8 633.9 45.7 641.5 45.6C657.4 45.4 678.1 45.3 694.3 45.6C765.7 46.7 840.5 48.3 916.7 52.6C915.8 50.1 921.5 51.7 921.6 49.8C839.8 45.8 751.5 40.9 656.2 41.3C625.6 41.4 589.1 43.7 558.8 40.6C533 42.8 517 42.8 491.4 41.3C479.2 44.2 466.8 42.5 453.2 42.7C443.9 42.9 434.6 43.7 425.6 44.1C416.5 44.5 406.8 42.5 400.4 42.7C396.6 42.8 393.7 44.7 389.8 44.8C350.5 45.6 307.8 46.4 265.6 47.6C253.4 48 241.3 48.1 232.5 51.9ZM211.3 25.1C213.5 25.9 216.5 25.5 218.6 24.4C215.6 24.1 213.9 23.3 211.3 25.1ZM1007.5 93.4C1007.7 95.7 1011.3 91.3 1010.7 94.8C1003.6 95.1 1003 94 996.9 94.1C996.7 93 997.6 92.9 997.7 92C985.2 95.9 973.8 91.8 962 92.7C961.8 90.2 965 92.9 966.9 91.3C966.8 90.5 965.4 90.7 964.5 90.6C964.5 89.2 966.7 89.7 966.1 87.8C968 90.1 971.1 87.1 972.6 89.9C974.1 89.6 973.2 87.2 975.8 87.8C976.3 90 972.9 88.8 975 90.6C978.4 89.2 977.5 86.5 980.7 87.8C981.8 84.5 974.6 88.4 975.8 85C980 85.5 980.1 85.8 984.7 86.4C984.5 87.3 982.7 87 981.5 87.1C993.5 89 999.5 88.5 1011.5 88.5C1011.4 87.7 1010.1 87.9 1009.1 87.8C1007.1 86.5 1014.4 87.3 1016.4 87.1C1016.3 88.4 1013.7 87.5 1013.2 88.5C1020 90.1 1030.7 89.9 1035.9 89.9C1034.6 91.3 1033.1 94.9 1031 93.4C1030.7 94.6 1031.6 94.7 1032.6 94.8C1031.1 97.2 1020.1 94.3 1017.2 95.5C1017 94.4 1018 94.3 1018 93.4C1015.5 92.8 1015 94 1014 94.8C1012.3 93.8 1011.4 91.5 1007.5 93.4ZM1024.5 92.6C1026.1 92.9 1030.5 92.1 1029.4 91.9C1029.2 91.6 1025.1 90.4 1024.5 92.6ZM1019.6 94.1L1023.7 94.1C1024.5 91.2 1018.8 91.2 1019.6 94.1ZM1191.5 101.1C1190.5 103.8 1185 101.5 1184.2 99.7C1184.1 101.2 1170.1 101.4 1161.5 101.1C1158.58 101 1148.48 99.77 1154.45 99.7C1144.92 99.71 1140.07 97.33 1128.2 99C1131.2 101.2 1138.5 100.7 1141.2 101.1C1139 101.8 1137.4 103.7 1142 103.2C1137.7 105 1133.3 103 1129.8 103.2C1130.7 101.6 1134.9 102.9 1137.1 102.5C1133.9 100.6 1127 101.9 1123.3 100.4C1123.7 100.9 1124.1 101.5 1124.1 102.5C1121.3 100.8 1117.9 103.4 1113.6 102.5C1114.48 100.34 1112.38 100.78 1112.02 99.76C1112.88 102.69 1104.47 101.7 1099.8 101.8C1100.1 100.9 1101.2 100.7 1101.4 99.7C1099 98.4 1096.9 99.6 1094.1 101.1C1092 100.9 1092 98.2 1090 98.3C1087.6 98.4 1090.4 100.3 1088.4 101.1C1085.3 102.3 1076.3 99.1 1068.9 99.7C1068.3 99.7 1066.3 101.1 1065.7 101.1C1064.4 101.1 1059.9 97.9 1056 99.7C1055.7 97.1 1061.1 99.4 1061.7 97.6C1060.6 96 1056.1 97.3 1053.6 96.9C1053.3 98.1 1054.2 98.2 1055.2 98.3C1052.4 100 1046.1 98.7 1043 98.3C1043.1 96.8 1046.5 98 1047.9 97.6C1045 95.2 1037.7 96.6 1032.5 96.2C1035.1 94.5 1035.5 94 1038.2 93.4C1038.7 90.6 1035.3 94.2 1035.8 90.6C1045.5 90.2 1059.7 91.7 1071.5 92C1072.6 91.9 1071.8 89.9 1073.1 89.9C1077.1 89.9 1071.2 91.5 1073.9 92.7C1078 93.4 1077.4 91.3 1078 90.6C1096.7 90.3 1113.9 92.3 1137.3 93.4C1136.9 95.1 1141 93 1139.7 95.5C1149.3 93.2 1162.6 96.3 1173.8 97.6C1176.6 97.9 1181.9 95.7 1181.1 99.7C1182.9 99.9 1182 97.7 1183.5 97.6C1203.6 99.2 1221.2 101 1237.1 103.2C1220.8 103.6 1202.4 99.4 1186 99C1186.1 101.3 1189.7 100.5 1191.5 101.1ZM1112 99.7C1112.01 99.72 1112.01 99.74 1112.02 99.76C1112.01 99.74 1112.01 99.72 1112 99.7ZM1155 99.7C1154.8 99.7 1154.62 99.7 1154.45 99.7C1154.63 99.7 1154.82 99.7 1155 99.7ZM1048 94.1C1044.8 94.6 1039.4 93.2 1037.5 94.8C1041.5 95.4 1044.7 95.5 1048 94.1ZM1074.8 97.6C1071.3 98.2 1070.3 97 1069.1 99C1071.7 99.1 1074 99 1074.8 97.6ZM1102.4 99C1100.7 95.6 1091 96.3 1088.6 97.6C1094.9 98.8 1096.9 97.3 1102.4 99ZM1121.1 94.8C1119.9 93.9 1114.1 93.4 1113 94.8C1115.9 95.7 1119.7 95.6 1121.1 94.8ZM1179.6 99C1175.5 97.9 1170.7 97.1 1168.2 99.7C1173.9 98.9 1177.7 101.5 1179.6 99ZM1032.6 97.6C1031.5 100.1 1026.5 96.4 1026.1 98.3C1023.8 95.5 1029.9 98.3 1032.6 97.6ZM970.9 94.1C970.1 95 970.2 96.7 968.5 96.9C965.5 94.4 957.4 95.4 955.5 96.2C953 96.4 957.6 94.2 954.7 94.1C958.7 92.5 965 95 970.9 94.1ZM947.4 94.8C946.3 95.8 943.9 95.5 941.7 95.5C942 94.3 947 91.4 947.4 94.8ZM902 82.1C899.8 84.4 895 84.4 893.1 87C894.1 88.3 897.3 87.5 898.8 88.4C893.4 90 886.1 88.5 881.8 88.4C882.5 86.1 888.7 88.9 889.1 84.9C887.6 83.6 886.5 85.1 885.8 86.3C884.6 86 886.1 85.4 885.8 84.2C883.2 83.6 883.3 85.3 882.6 86.3C881.3 85.2 882.3 84.1 882.6 82.8L879.4 82.8C883.6 85.2 874.3 84.4 875.3 81.4C881.1 80.7 883.6 81.6 890.7 80.7C891.5 82.3 893.5 82.9 893.1 85.6C894.9 83 897.7 81.2 902.8 81.4L902.8 84.2C899.6 84.3 902.5 83.6 902 82.1ZM965.3 84.9C967.7 86.7 966.8 85.6 969.4 84.9L969.4 87C967 88 964.9 84.8 965.3 87.7C962.8 87.3 966 86.2 965.3 84.9ZM500.2 84.2C496.7 83.7 494.8 83.9 492.9 83.5C494.7 82.4 500.4 82.8 500.2 84.2ZM789.1 81.4C788 82 782.2 82.2 777.8 82.1C778.4 79.3 787.1 80.7 789.1 81.4ZM759.9 79.2C757 79.1 755.2 78.1 752.6 77.8C753.8 76.2 754.6 76.8 756.7 77.1C757 74.8 753.2 75.9 751.8 75C754.1 75.2 758.9 70.1 756.7 72.9C760.4 74.2 757.3 77.1 759.9 79.2ZM596.8 77.2C592 78.9 586.1 79.4 579.7 78.6C579.1 76.5 581.9 77.3 581.3 75.1C583.2 76.9 584 76.9 586.2 77.2C586.1 78 584.7 77.8 583.8 77.9C588 79.1 589.7 76.1 596.8 77.2ZM768.9 72.9C768.9 72.67 768.9 72.49 768.8 72.38C769.91 73.26 771.59 75.68 774.5 75C772 76.8 768.2 75.4 765.6 74.3C765.7 73 768.3 73.9 768.9 72.9ZM768.7 72.3C768.74 72.32 768.78 72.35 768.8 72.38C768.77 72.35 768.73 72.32 768.7 72.3ZM927.1 61.7C928 61.2 934.2 62.1 937.6 61.7C935.5 63.2 931.8 63.2 927.9 63.1C928 62.3 927.7 61.8 927.1 61.7ZM801.3 60.3C799.7 60.6 799.2 59.8 798.1 59.6C798.5 59 798.9 58.5 798.9 57.5C801 57.2 801.5 58.4 801.3 60.3ZM1149.5 45.5C1147.3 45.1 1145.9 44.6 1143.8 45.5C1144.5 46.1 1149 47 1149.5 45.5ZM845.1 59.6C847.1 58.1 848.4 61.1 851.6 59.6C850.8 62.3 846.9 60.1 845.1 59.6ZM821.6 59.6C816.3 60.3 812.6 59.5 805.4 59.6C807.7 56.2 818 58.3 822.4 58.2C824 58.7 821.5 59.3 821.6 58.2C820.6 58.3 820.8 59.6 821.6 59.6ZM784.2 56.1C784.9 60.9 777.4 54.7 776.9 58.9C776 58.7 776.4 57.5 775.3 57.5C777.7 53.6 782.8 58.6 784.2 56.1ZM711.5 58.1C712 58.1 712.5 58.1 712.8 58.2C712.1 58.2 711.8 58.1 711.5 58.1ZM671.5 57.4C672.7 57.1 671.2 56.5 671.5 55.3C684.8 54.6 689.1 54.8 701.5 54.6C701.3 56.1 699.4 56.1 697.4 56C701 60 707.3 52.7 712 55.3C712.3 56.4 710.6 57.6 711.5 58C707 57.8 695.5 59.8 687.7 58.1C689.6 56.6 690.6 58.4 693.4 57.4C689.5 54.4 685.3 59.6 685.3 56.7C675.5 60.6 663.4 56.9 653.6 58.8C653.7 57.5 656.3 58.3 656.1 56.7C652.8 55.7 653.5 58.2 651.2 58.1C652.7 56.9 651.3 55.7 648.8 56C652.8 55.5 661.5 54 665.8 57.4C666.5 56.6 668.7 57.2 668.2 55.3C670.8 54.7 669.3 57.7 671.5 57.4ZM570.9 58.9C573.3 57.9 570.7 56.6 573.3 55.4C574.5 55.7 573.2 56 573.3 56.8C581.8 55.3 597.3 56 609 54.7C609.5 55.4 610.8 55.4 610.6 56.8C613.2 55.1 614 56.3 617.1 55.4L617.1 58.2C611.7 59.1 610.3 57.1 603.3 58.9L603.3 56.8L598.4 56.8C600.9 62.2 592.8 52.9 591.9 58.9C586.6 53.8 581 60.3 570.9 58.9ZM444.2 57.5C445.8 57.2 448.9 56.7 451.5 57.5C450.6 58.9 445.2 58.3 444.2 57.5ZM668.2 20.2C684.4 19.3 696.9 21.9 711.2 20.9C715.2 20.6 715.8 20.3 719.3 20.9C737.5 23.9 758.4 19.9 776.9 20.9C780.6 21.1 784.1 23 788.2 23C799.9 23 815.4 24 828.8 24.4C850.9 25.1 869.6 25.8 892.1 27.2C889.2 23.3 878.4 26.1 875.1 24.4C881.2 21.9 887 25.5 897 24.4C898.3 26.9 894.3 24.8 894.6 26.5C895.8 27.7 896.8 26.2 900.3 26.5C900.1 27.3 898.7 27 898.7 27.9C908 25.8 919.9 33.3 925.5 26.5C927.5 26.6 925.7 28.9 925.5 29.3C931.3 31.2 935.7 28.8 941.7 29.3C940.6 30.5 937.8 30.2 937.6 32.1C871.8 27.2 797.1 25 726.6 22.9C706.4 22.3 683.1 22.6 664.1 21.5C661.3 18.3 667.8 21.5 668.2 18.7C669.4 19 668.1 19.3 668.2 20.2ZM613.8 30.7C615.2 29.5 618.2 27.7 620.3 29.3C617.8 30.9 616.3 29.9 613.8 30.7ZM388.9 25.1C388.6 28.4 389.6 26.1 392.2 26.5C393.5 27.3 388.1 28.1 385.7 27.9C387 27 386.7 24.9 388.9 25.1ZM863 24.3C862.9 22.5 868.9 21.2 871.1 23.6C868.9 25.7 864.9 23 863 24.3ZM929.5 19.4C930.3 16.6 934.4 18.7 936.8 18.7C936 20.3 931.7 19 929.5 19.4ZM662.5 19.4C655.1 23.3 631 21.8 625.2 19.4C639.8 18.6 648.6 20.6 662.5 19.4ZM897.9 16.6C892.6 15 907.2 15.1 907.6 17.3C905.2 16.4 901.4 16.6 897.9 16.6ZM428.7 14.5C432.3 13.4 441.4 12.8 446.6 13.8C441.4 14.9 436.1 14.1 428.7 14.5ZM576.5 12.4C576.5 12.4 576.5 12.4 576.5 12.4C576.5 12.4 576.5 12.4 576.5 12.4ZM576.5 12.4C585.2 10.7 580.9 13.6 575.7 12.4C575.8 11.32 576.58 12.37 576.5 12.4ZM351.7 90.6C348.4 93.1 344.4 92.9 340.3 92C340.7 92.6 341.1 93.1 341.1 94.1C319 90 283 95.2 261.6 92.7C268.4 88.9 284.4 93.5 290.8 88.5L290.8 90.6C302 89.6 309.4 91.9 317.6 87.8C320.2 93.5 334.6 86.8 343.6 91.3C345.7 89.5 347.2 90.8 351.7 90.6ZM908.5 86.3C906.4 85.2 908.5 81.7 911.7 82.8C912 85.2 908.3 84.1 908.5 86.3ZM741.2 82.8C745.1 81.6 746.7 86.4 748.5 82.8C749.6 83.2 750 84.3 750.1 85.6L741.2 85.6L741.2 82.8ZM773.7 58.1C764.9 55.2 743.3 62.7 733.9 57.4C740.1 54 752.4 56.7 762.3 56.7C766.4 56.8 771.6 53.9 773.7 58.1ZM360.6 18C361.5 15.8 361.5 15.8 358.2 15.9C373.1 13.9 395.4 12.5 408.5 15.2C395.9 14.1 382.6 18.9 376.8 15.9C371 18 368.8 18.6 360.6 18ZM394.7 78.6L394.7 78.6C394.7 78.5 394.7 78.5 394.7 78.6Z" />
</svg>