<svg xmlns="http://www.w3.org/2000/svg" viewBox="0 0 1043 152" width="1043" height="152">
	<style>
		tspan { white-space:pre }
		.shp0 { fill: #ffe6b2 } 
	</style>
	<g id="Layer">
		<path id="Layer" fill-rule="evenodd" class="shp0" d="M803 76.7L803 76.7L803 76.7L803 76.7Z" />
		<path id="Layer" fill-rule="evenodd" class="shp0" d="M701.9 66.9C701.8 66.9 701.8 66.9 701.7 66.9C701.7 66.9 701.7 67 701.7 67.1C701.8 67.1 701.8 67.1 701.8 67.1C702 66.9 702 66.9 701.9 66.9Z" />
		<path id="Layer" fill-rule="evenodd" class="shp0" d="M802.9 76.8C803 76.8 803 76.7 803 76.7L803 76.7C802.9 76.7 802.9 76.8 802.9 76.8Z" />
		<path id="Layer" fill-rule="evenodd" class="shp0" d="M875.4 76.8C875.5 77 875.7 77 875.8 77.2C875.7 77.1 875.6 77 875.5 76.9C875.5 76.9 875.5 76.9 875.4 76.8L875.4 76.8Z" />
		<path id="Layer" fill-rule="evenodd" class="shp0" d="M962.7 83.1C963 83.4 963 84.1 962.9 84.5C962.4 85.4 962.1 85.1 961.4 84.6C958.7 82.7 956.1 79.9 952.5 81.3C952.3 81.4 952 81.4 951.9 81.3C947.4 77.7 943.1 80.9 938.8 81.8C936.6 82.3 935 82.1 933.4 80.3C931.7 78.5 930 77.1 927.7 79.6C926.7 80.7 925.1 80.1 923.8 79.9C921.2 79.5 918.6 79 915.9 78.9C912.8 78.8 909.8 78.4 906.9 80.2C906.4 80.5 905.6 80.5 905 80.4C896.3 78.9 887.5 78.7 878.8 78.3C877.3 78.3 876.4 77.4 875.4 76.6C875.3 76.6 875.3 76.5 875.3 76.5C875.2 76.5 875.2 76.5 875.2 76.5C872.7 74.9 870.8 77.9 868.3 77.7C866.1 77.5 864.2 76.3 861.8 76.6C856.5 77.3 851.2 77.9 845.9 76.6C841.4 78.1 836.9 74.9 832.2 76.5C830.1 77.2 827.5 76 825.1 75.5C824.7 75.4 824.2 74.9 824.2 74.5C823.9 70.7 821.6 71.3 819.4 71.6C819.2 73 821 73.6 820.3 75C818.3 76.4 816 73.8 813.9 75.5C812.3 74.3 810.7 73.2 809.3 72.1C808.1 72.9 810.7 76.2 807.9 74.9C805.4 73.8 804.2 74.8 802.8 76.3C800.6 75.4 798.6 73.7 796.1 74C795.6 74 795 73.4 794.5 72.9C793.6 72 795 69.4 792.9 69.6C791.9 69.6 791.7 71.4 791.3 72.6C791 73.7 790.1 73.9 789.2 73.5C788.3 73.1 787.7 72.4 786.9 71.9C786 71.3 785.3 71.6 784.9 72.8C784.2 74.9 782.8 75.2 781.2 74C780.2 73.3 779.4 72.5 778.4 71.9C776.2 70.5 776 70.6 774.8 74.2C774.7 74.5 774.3 75 773.9 75.1C773.4 75.3 773.1 74.9 773.1 74.2C773.1 73.4 773.2 72.6 773 71.9C771.9 68.8 769.8 66.1 766.5 69.4C765.8 70.1 765 70.6 764.3 71.1C762.3 72.5 762.2 72.4 761.5 69.3C761.4 68.8 761.4 68.2 761.1 68C760.9 67.8 760.1 68.1 760 68.3C758.7 72.4 756 73.3 752.6 72.4C752.62 72.38 752.63 72.36 752.65 72.34C751.58 73.23 750.8 74.33 750.8 75.9C749.1 74.1 747.4 72.3 744.9 72C742.8 71.8 742.5 69.1 740.9 68.4C740.1 68 739.1 66.3 738.3 68.4L738.3 68.3C736 68.2 735.7 64.7 733.1 64.4C730.5 64.1 728.3 64 726.5 66.3C725.33 67.76 724.16 69.13 722.99 70.5C721.09 70.41 718.8 71.49 717.4 69L717.5 69.1L717.6 69C718.2 69.1 718.7 69.2 719.2 69.2C719.5 69.1 719.7 68.7 720 68.5C719.6 68.3 719.2 67.9 719 68C718.5 68.3 718.1 68.7 717.6 69C717.5 69 717.4 69 717.3 69C716.3 68.1 715.4 67 715.8 65.3C716 64.1 715.7 63.3 714.6 63.1C713.7 62.9 713 63.2 712.5 64.3C711.4 66.6 711.4 66.5 709.7 65.3C707.6 63.8 707.5 63.7 706.2 66.1C705.4 67.5 704.7 69 703 69.2C703.4 66.9 703.4 66.8 701.6 66.2C701.5 64.7 701 63.1 699.5 63.8C697.6 64.7 695.4 64.1 693.8 65.9C693.8 66 693.8 66.1 693.8 66.2C693.7 66.2 693.7 66.1 693.6 66.1L693.8 65.9C691.7 66.7 691.1 68.5 690.9 70.9C690.8 72.7 689.3 73 688 72.5C686.7 72 687.4 71 687.8 70.2L687.8 70.1C688.2 69.9 688.9 69.7 688.9 69.5C688.8 67.4 687.2 65.3 690 62.9C686 63.4 683.1 62.1 680.5 64.2C680.2 64.4 679.3 63.9 678.7 63.7C677.4 63.2 676.4 63.6 676.5 65.3C676.5 66.6 676.3 67.7 675.4 68.6C674.7 69.3 673.8 69.8 673.5 68.3C673.3 67.2 673 66.4 672 66.2C671.7 66.2 671.3 66.5 670.9 66.7C672.4 70.6 670 70 668.1 69.9C667.2 69.8 666.9 68.9 667.7 69.3C668.2 69.5 668 68.9 667.9 68.6C668 68.7 668 68.7 668.1 68.7C668.05 68.6 668.03 68.53 668 68.46C668 68.51 668 68.55 668 68.6C667.8 68.3 667.8 68.4 667.9 68.6C665.7 68.1 663.2 68.9 661.4 66.5C661.2 66.3 660.2 66.5 660.2 66.5C660.1 69.2 656.4 68 656.5 70.9L656.4 70.9C655.9 70.1 655.1 69.8 654.3 69.7C653.8 69.7 653.4 70.2 653.7 70.7C654.1 71.3 654.6 71.8 655.2 72C655.9 72.3 656.3 71.6 656.5 70.9C656.5 71 656.5 71 656.6 71.1C656.6 71 656.6 71 656.6 70.9C657.6 70.7 658.8 70.1 659.2 71.8C659.5 73.1 658.5 74 657.5 74.7C657.1 74.9 656.6 75 656.2 75C655.5 75 654.7 75.1 654.2 74.7C652.4 73.4 650.6 73.5 648.5 73.8C646.6 74 644.6 73.3 642.7 72.9C642.5 72.8 642.1 71.9 642.2 71.7C643.1 70 642.8 69.3 641.1 68.4C639.5 67.6 638.7 68.1 637.7 69.3C637.5 69.5 637.4 69.7 637.2 69.8C635.6 71 635.5 71 634.5 68.6C634.3 68.2 634.4 66.5 633.7 67.8C632 71.1 628.7 68.7 626.8 70.7L626.6 70.4L626.6 70.9C626.7 70.8 626.7 70.7 626.8 70.7C626.5 71.3 626.2 71.9 625.9 72.4L626 72.5C624.5 71.6 620.9 72.9 622.6 68.3C622.7 68 621.2 66.7 620.3 66C619.1 65.1 618 66.7 617.8 67.3C616.6 70 614.2 70.4 612.4 71.8L612.3 71.6C610.3 69.6 611.8 67.4 612.3 65.4C612.7 64 613.1 62.7 613.1 61.3C613.2 61.2 613.3 61.1 613.3 61.1C613.3 61 613.2 61 613.2 61C613.2 61 613.1 61.1 613.1 61.2C611.6 62.7 610 64.2 608.5 65.7L608.2 65.8L608.7 65.8C607.8 67.3 607.1 69 605.1 67.7C603.9 66.9 602.3 67.9 601.4 66.4C600.9 65.6 600 65.5 599.9 66.3C599.6 68.5 598.2 68.8 596.8 69.5C595.8 70.1 595.7 71.6 595.8 72.9C594.1 70.8 592.2 68.9 591.1 66.3L591.3 66.3C590.5 65.9 589.8 65.2 589 65C587.9 64.6 587.4 65.4 587.8 66.5C588.2 67.4 588.7 68.1 589.1 69C589.8 70.4 589 71.2 588.1 71.9C587.7 70.9 587.2 71 586.8 71.9C585.8 71.9 585 72.1 584.5 73.1C584 74.1 583.3 74.7 582.5 73.7C580.9 71.6 579.9 72.1 578.5 74.2C576.9 76.5 574.5 76.8 572.2 75.4C572.26 75.4 572.29 75.36 572.3 75.3C572.2 75.4 572.1 75.4 572 75.5C572.1 75.5 572.1 75.6 572.2 75.6L572.2 75.7C571.1 75 570.1 74.2 569.1 73.5L568.9 73.7C567.6 71 565.7 71.9 564 72.7C562.6 73.3 561.6 72.9 560.8 71.6L560.8 71.5C560.8 71.6 560.7 71.6 560.7 71.6C560.7 71.5 560.7 71.5 560.7 71.5C560.5 71.6 560.4 71.7 560.3 71.8C560.4 71.7 560.6 71.7 560.7 71.6C560.8 71.6 560.8 71.6 560.8 71.6C559.9 73 558.8 74.2 559.5 76.2C560 77.4 559.4 78 558.4 78.2C557.6 78.3 556.6 78.8 556.2 77.5C555.9 76.3 555.5 75.2 554.6 74.4C553.1 73.1 552.1 71.2 549.8 71C547.6 70.7 546 71.7 544.4 73L544.5 73C544 73.3 543.3 73.9 542.8 73.8C541.6 73.7 542.2 71.2 540.8 71.3C539.6 71.4 540.3 73.9 538.9 73.8C537.8 73.7 536.4 73.5 535.7 74.3C533.2 77.2 531 76.2 528.7 74.3C527.5 73.2 526.4 72.7 525.3 74.3C523.8 76.3 522.9 75.3 521.6 73.8C520 71.9 518.5 72.2 517.8 74.9C517.4 76.5 517.2 77.5 515.9 76.8C513.6 75.6 511.7 75.6 510 78C509.6 78.6 508.7 78.7 508.3 78C507 75.6 504.7 76.3 503 75.2C500.2 73.5 498 74 495.8 76.5C493.6 78.9 490.6 79.1 487.7 78.4L487.8 78.6C487.8 78.6 487.7 78.6 487.6 78.6L487.7 78.5C486.8 77.7 486 77.6 485.1 78.5L485.2 78.6C485.2 78.6 485.1 78.6 485 78.6L485.1 78.4C482.5 81 479.6 80.1 477 78.6C475 77.4 473.3 77.1 471.6 79C471 79.7 470 80.1 469.2 80.1C465.9 79.9 463.1 81 460.5 83.3C458.6 84.9 456.7 82.6 454.8 83.9C454.5 81.1 456.6 82 457.6 80.6C452.5 80.2 447.9 80.6 443.7 83.8C443.1 84.2 442.5 84.8 441.9 84.4C438 81.6 433.9 82.9 429.8 83.7C428.2 84 426.7 83.6 425.3 82.6C424.2 81.8 423.3 80.6 421.7 80.7C420.9 82.2 420.1 83.9 419.2 85.5C417.3 83.7 415.3 82.2 412.6 82.9C411.6 83.2 410.4 82.7 409.4 82.4C407.8 82 407.2 82 407.3 84.4C407.3 86.5 405.7 87.8 403.6 87.6C403.6 86.6 403.6 85.7 403.4 84.8C402.9 83.2 401.9 82.7 400.9 83.8C399.8 85 398.8 86.9 397.1 86.3C394.4 85.4 392 86.2 389.6 87.6C387.9 88.7 387.3 86.8 386.3 86C384.9 84.9 383.6 84.3 382.4 86.4C380.4 89.8 378 89.7 375 88C373.5 87.1 371.5 87.4 370 86.4C369.8 85.9 369.6 85.4 369 85.6C368.8 85.7 368.7 86.2 368.5 86.6C368 87 367.6 87.5 367.2 88C367.1 88.1 367.1 88.1 367 88.2L367.1 88C365.8 88.4 364.5 88.9 363.2 88C362 85.6 360.1 85.6 358.1 86.1C358.1 86.2 357.8 86.4 357.8 86.4L358.3 86.2C357.7 88.8 355.4 89.4 353.8 90.9L353.9 91.1C353.4 91.6 353 92.2 352.5 92.7L352.3 92.6C352.8 92 353.3 91.5 353.8 90.9C352.9 89.7 351.9 89.4 350.6 90.2C349.5 90.9 348.2 91.4 347 92C346.9 92 346.8 92 346.7 92L346.7 92.1C346.7 92.2 346.6 92.2 346.6 92.2C346.6 92.3 346.7 92.4 346.7 92.4C346.3 92 346.6 92.5 346.7 92.4C346.7 92.5 346.8 92.5 346.8 92.5L346.7 92.4C346.8 92.4 346.8 92.3 346.8 92.2C346.9 92.2 347 92.1 347.1 92.1C348.9 92.4 350.7 92.6 352.5 92.8C352.9 93.8 354.5 94.6 352.6 95.6C351.8 96 351 96.3 350.2 96.7C347.2 98.2 347.2 98.2 344.7 95.3C343.7 94.1 342.8 93.7 341.3 93.7C339.3 93.6 337.4 93.8 335.4 94.3C334.6 94.5 333.7 94.8 332.9 94.6C331.4 94.3 330.2 92.9 328.5 93.5C327.4 97.2 323.2 97 322 100.4C321.69 100.4 321.43 100.34 321.19 100.22C321 100.81 320.8 101.41 320.6 102C318.6 102.4 316.4 102.8 314.9 104.7C314.9 104.4 315 104.2 314.9 103.9C314.1 98.9 312.3 97.8 308.7 100.3C308.1 100.7 307.7 101.3 307.2 101.8C306.2 102.8 305.2 102.7 304.2 101.9C302.1 100.3 300.5 100.8 298.3 102.5C296.4 104 293.5 104.7 290.8 103.6C288.9 102.8 287.7 102.4 286.6 105.3C285.8 107.2 282.6 107.7 281.2 106.9C278 105.1 275.1 107.1 272.1 107C269.7 106.9 267.3 107.6 264.9 106.4C263.7 105.8 262.4 105.8 261 106.3C258.7 107.2 258.5 107.7 259.2 111.5C257 112.3 254.9 111.3 252.8 111.5C250.7 111.8 248.6 113.4 246.5 111.4C243.3 114.2 239.5 113.1 235.9 113.3C234.6 113.4 234.9 114.5 235 115.6C235.1 117.6 234.1 118.4 232.8 117.5C232.2 117.2 231.5 116.8 231.3 116.2C230.2 113.5 228.3 114.4 226.7 115.1C225.8 115.4 225 117.2 224.2 117.2C220.7 117.1 218.3 118.5 216.4 121.9C215.5 123.5 213.6 123.6 212.1 123.6C207.2 123.6 202.4 124 198.2 127.3C197.9 127.5 197.1 127.7 197 127.5C194.6 123.4 192.9 127.5 190.9 128.1C190.8 128 190.8 128 190.8 128C190.9 128 190.9 127.9 191 127.9C190.9 127.9 190.8 127.9 190.7 127.9C190.4 127.5 190 127 189.6 126.7C189.4 126.6 188.7 126.9 188.6 127.2C188.4 127.6 188.7 128.1 189.2 128.1C189.7 128.1 190.2 128.1 190.7 128C190.7 128.1 190.8 128.1 190.8 128.1C189.5 129 188.1 129.5 186.6 129.5C183.5 129.5 180.5 129.8 177.5 130.8C176.8 131 175.8 130.4 175.2 131.4C173 135.1 169.7 135.4 166.3 135.2C164.3 135.1 162.6 135.1 160.7 136.5C159.1 137.7 156.8 137.5 154.9 137.8C146.8 139.2 138.9 141.5 130.7 141.9C128.8 142 127.2 142.7 125.6 143.6C121.4 146 116.8 146.7 112.2 147.7C105.2 149.2 98.2 149.6 91.1 149.2C89.7 149.1 88.5 149.3 87.2 149.9C85.5 150.6 83.8 151.1 82.1 151.6C81.3 151.9 80.3 152.2 79.6 151.4C78.5 150.1 79.5 149.1 80.1 148.1C80.3 147.7 80.6 147.3 80.7 146.8C81.4 144.4 80.5 142.5 78.5 142.2C76.5 141.8 74.5 141.7 72.5 141.5L72.5 141.7C72.1 138.2 74.2 136.8 76.4 135.4C76.9 135 77.5 134.4 77 133.5C76.8 133.1 76.4 132.7 76 132.7C74.9 132.6 73.8 132.4 72.7 132.6C67.7 133.8 62.7 134.8 57.7 136.2C50.5 138.3 43.2 138.9 35.9 138.8C35.5 138.8 35 138.7 34.7 138.4C34.2 138 33.8 137.3 33.5 136.7C33.4 136.6 33.9 135.9 34.2 135.8C37.8 134.5 41.4 133.3 45 132C45.3 131.9 45.7 131.2 45.6 130.8C45.5 130.4 45 129.9 44.7 129.9C43.1 130.1 41.5 130.1 40.1 130.7C37 132 33.9 130.5 30.8 131.2C29.6 131.5 29 130.2 28.4 129C27.7 127.7 27.2 128.1 26.5 129.1C25.5 130.5 23.8 129.5 23.8 128.6C23.6 123.6 19.4 122 17.3 118.8C16 116.8 13.4 115.5 11.2 114.6C8.9 113.5 7.2 111.9 5.5 109.7C3.6 107.2 1.3 105.1 2 101.3C0 98.9 -0.4 96 0.5 92.3C3.2 94.5 5.3 97.2 7.1 100.2C7.7 101.2 8.3 102.3 8.7 103.5C10.6 109.1 12.3 109.4 17.1 107.8C21.7 106.2 26.2 106 30.8 105.5C36.7 104.8 42.8 104.5 48.5 102.3C50.8 101.4 53.2 101 55.6 100.5C58.8 99.7 62.3 99.8 64.9 96.7C65.7 95.7 67.5 95.3 68.7 95.5C72.1 96.1 75.3 94.8 78.6 94.6C83.2 94.2 85.2 92.8 88.6 89C84.8 88.2 81.5 89.9 78.1 90.7C71.5 92.3 64.7 93.4 57.9 94.4C57.1 94.5 56.1 94.5 55.4 95C52.2 97.3 48.6 96.8 45.1 97.3C44.5 97.4 43.8 97.2 43.5 96.4C43.1 95.1 43.9 94.4 44.7 94.1C50.6 92 56.4 89.4 62.6 88.3C62.9 88.3 63.1 88.3 63.3 88.3C67.5 87.4 68.4 86.7 67.8 85.3C66.7 82.9 64.8 83.9 63.1 83.7C61 83.4 58.9 82.3 56.6 82.6C55.7 82.7 54.9 81.9 54.8 80.7C54.7 79.7 54.9 78.5 55.7 78C56.7 77.4 57.7 77 58.8 76.7C68.1 74 77.3 71.2 86.6 68.6C89.3 67.9 92 67.1 94.3 65C94.3 65 94.4 64.9 94.5 64.9L94.4 65C95.2 65 96.8 65.3 96.9 65C98 61.2 101.2 61.7 103.5 61.2C113.5 58.9 123.6 56.9 133.7 54.8C137.4 54 141.1 53 144.8 52.2C152.9 50.6 161 48.9 169.2 47.9C172.9 47.5 176.6 46.2 180.3 45.5C184.8 44.6 189.3 43 194 44.3C194.6 44.4 195.3 44.2 195.9 43.8C199.4 41.7 203.2 41.5 206.9 40.8C215 39.3 223.1 37.6 231.2 36C233.2 35.6 235.2 35.3 237.2 35.3C242.6 35.4 247.7 33.1 253.1 33.5C254 33.6 254.9 33.7 256 33.7C253.7 35.7 251.1 34.7 248.8 35.7C246.5 36.7 244 37 241.6 37.4C238.9 37.9 236.2 38 233.6 38.5C225.9 39.9 218.2 41.4 210.5 42.9C203 44.3 195.6 45.8 188.1 47.2C179.9 48.8 171.8 50.2 163.7 51.8C161.8 52.1 159.9 53 157.1 53.9C159.7 55.4 161.6 54.7 163.3 54.3C166 53.7 168.6 53.5 171.3 53.3C172.7 53.2 174.1 53.4 175.3 52.9C184.5 49.6 194.2 49 203.6 47.4C214.8 45.5 226 43.7 237.2 41.5C237.6 41.4 238.1 41.3 238.5 41.3C247.6 40.9 256.4 38.1 265.5 37.1C270.7 36.6 276.1 37 281.4 36.9C285.1 36.8 288.8 37.4 292.6 36.9C293 36.9 293.5 37 293.9 37C294.5 37.1 295.2 37.1 295.2 38.1C295.2 38.4 294.8 39 294.4 39.1C292.7 39.7 291 40.4 289.2 40.6C284.5 41.3 279.9 41.7 275.2 42.2C273.9 42.3 272.4 42.6 271.3 42.1C269.7 41.3 268.4 41.6 266.9 42.4C264.2 43.8 261.3 44.4 258.4 43.9C255.4 43.4 252.6 44.1 249.9 45.4C248.5 46.1 247 47 245.5 47C236.7 47.3 228.4 50.4 219.7 51.1C215 51.5 210.5 52.7 205.9 53.8C205.2 54 204.7 54.6 204.8 55.5C204.8 55.8 205.4 56.2 205.7 56.2C207.5 56.2 209.5 56.7 211 56C214 54.7 217.1 54.7 220.2 54.2C224.3 53.5 228.5 52.7 232.7 52.1C238.9 51.3 245.1 50.5 251.3 50C254.1 49.8 257 49.3 259.8 48.8C265.5 47.7 271.2 47 277 46.2C284 45.2 291.1 44.2 298.2 43.4C303.7 42.8 309.3 42.6 314.8 43C316.1 43.1 317.5 43.1 318.7 42.5C322.9 40.4 327.5 41 331.8 40C332.4 39.9 333.2 39.9 333.7 40.2C335.8 41.8 337.7 40.7 339.5 39.9C341.6 38.9 343.7 38.6 346 38.4C354.2 37.6 362.4 36.3 370.6 36.1C376 35.9 381.1 34.5 386.3 34C391.4 33.4 396.4 32.9 401.6 33.3C403.3 33.4 405 32.3 406.8 32.1C414.1 31.5 421.4 29.6 428.8 31.2C429.5 31.3 430.2 31.4 430.8 31.1C436.5 28.2 442.4 28.5 448.4 29.4C449.2 29.5 450.2 29.6 451 29.4C455.6 28.1 460.3 28.2 464.9 27.5C470.4 26.7 475.9 26.2 481.5 26.2C484.4 26.3 487.3 25.5 490.2 25.4C499.3 24.9 508.4 24.7 517.5 24C525.3 23.5 533.1 23.3 540.8 22.2C545.9 21.5 551 21.7 556.1 21.5C562.5 21.4 569 21.3 575.4 21C577.2 20.9 578.7 21.8 580.9 21.8C579.4 23.3 578.3 23.9 577.2 23.7C573.2 23.1 569.3 23.9 565.3 23.8C560.5 23.6 555.7 23.4 551.1 25.4C550.7 25.6 550.1 25.8 549.8 25.6C545.9 23.5 542.3 26 538.6 26.3C537.8 26.3 536.9 26.6 536 26.5C531.3 25.7 526.8 25.7 522.3 28C521.2 28.6 519.7 28.2 518.4 27.9C514.8 27 505.5 27.4 502 28.4C501.4 28.6 500.8 29.1 501 30C501 30.4 501.5 30.8 501.9 30.8C503.6 31.1 505.4 31.4 507.1 31.7C507.2 31.8 507.4 32.1 507.6 32.4C507.7 33.9 506.5 33.6 505.8 33.6C496.9 34.1 488 34.6 479.1 35.2C472.2 35.6 465.4 36.3 458.5 36.9C443.2 38.3 427.8 39.6 412.5 41C401.4 42 390.3 43 379.2 44.2C364.1 45.8 348.9 47.1 333.9 49.2C324.4 50.5 314.8 50.4 305.4 52.8C305 53 304.5 53 304.1 53C297.9 53.2 291.7 54 285.6 55C272.4 57.1 259.1 58.9 245.9 60.9C245 61 244.1 61.2 243.3 61.5C243 61.6 242.8 62.2 242.6 62.6C242.4 63.2 242.6 63.5 243.2 63.7C245.1 64.4 247.1 64.3 249.1 64.1C253.5 63.6 258 63.1 262.4 62.5C275.9 60.8 289.4 59.1 302.9 57.5C308.1 56.8 313.5 56.8 318.8 56.4C332.4 55.2 345.9 53.7 359.4 51.8C366.2 50.9 373.1 50.7 380 49.9C391.5 48.7 403 47.3 414.6 46.8C421.3 46.5 427.9 46.1 434.5 45.6C445.9 44.7 457.2 43.4 468.5 42.8C477.8 42.3 487.1 40.7 496.5 41.3C505.7 38.9 515.2 40.1 524.5 39.3C533.8 38.5 543.2 38.3 552.5 37.6C556.7 37.4 560.7 36.3 565 37.6C566.7 38.1 568.7 36.5 570.8 36.4C577.2 36.1 583.7 35.8 590.1 35C601.2 33.6 612.3 34.2 623.4 33.4C629.9 32.9 636.3 32.2 642.7 32.6C651.8 33.3 660.8 31.7 669.9 32.1C679.4 32.6 689 32.6 698.5 32.8C699.6 32.8 700.7 32.8 701.8 32.6C705.1 31.9 708.5 32.1 711.8 32.1C718.3 32.1 724.8 32.1 731.2 32.1C731.9 32.1 732.5 32.2 733.2 32.2C744.7 33.1 756.3 32.8 767.8 33C775.6 33.2 783.4 32.6 791.2 33.7C796.3 34.4 801.5 33.7 806.6 33.8C811.5 33.8 816.4 33.9 821.3 34.1C822.5 34.1 824 33.9 824.6 36.1C819.8 36.9 815 37.8 810.1 37.4C801 36.7 791.8 36.8 782.7 36.8C778.7 36.8 774.7 36.4 770.7 36.3C764.7 36.1 758.7 36.1 752.7 36.1C743.1 36.2 733.6 36.4 724 36.5C713.1 36.6 702.2 36.6 691.3 36.7C685.5 36.8 679.7 36.8 673.9 36.9C663.6 37.1 653.4 37.5 643.2 37.7C637.9 37.8 632.5 37.7 627.2 37.9C612.6 38.5 597.9 39.1 583.2 40C558.3 41.5 533.4 43.4 508.5 44.8C500 45.3 491.6 46.1 483.2 46.8C482.6 46.9 481.9 47.2 481.3 47.4C481.2 47.4 481.1 47.7 481.1 47.9C481 48.1 481.1 48.5 481.2 48.6C481.8 48.9 482.4 49.4 483 49.4C490 48.9 497.1 50 504.2 48.9C508.5 48.3 512.7 48.5 516.8 49.9C517.9 50.3 519.3 50.4 519.9 51.3C522.2 54.5 525 53.7 527.8 52.9C529.1 52.5 530.3 51.9 531.7 51.9C536.4 52.1 541.1 50.8 545.6 51.2C550.9 51.6 556.1 49.5 561.4 51C562 51.1 562.6 50.7 563.3 50.6C570.5 49.2 577.8 47.8 585.1 49.8C586.8 50.2 588.2 49.4 589.7 49.1C593.3 48.3 596.7 47.8 600.3 49C602.9 49.8 605.6 49.1 608.2 48.3C612.4 47 616.5 46.4 620.7 48C621.5 48.3 622.4 48.4 623.3 48.3C630.3 47.7 637.5 48.3 644.5 46.5C646.5 46 648.5 45.8 650.5 46C656.5 46.6 662.4 46.3 668.4 46.1C670.6 46 672.8 46.3 675 46.7C679 47.3 682.8 47.1 686.9 46.4C692.3 45.4 698 45.8 703.5 46.6C704.9 46.8 706.3 47.3 707.5 47C712.6 45.8 717.6 45.7 722.7 46.3C723.5 46.4 724.4 45.9 725.3 46.4C728.9 48.7 732.6 48.2 736.3 46.8C740.3 45.4 744.3 46.3 748.3 46.3C756.9 46.3 765.6 46.8 774.2 47.2C781.3 47.6 788.4 48 795.5 48.5C799.8 48.8 804 48.9 808.2 48.5C811.9 48.1 815.6 47.6 819.4 48.5C822.4 49.2 825.6 48.7 828.7 48.7C830.2 48.7 832 48.5 833.3 49.1C836.6 50.6 839.8 50 843.1 49.6C844.2 49.4 845.3 49.1 846.4 49.3C853.2 50.6 860.1 49.7 867 50C873.7 50.2 880.3 50.4 887 50.7C894.1 51 901.2 51.2 908.3 51.8C912.7 52.2 917.1 52.1 921.5 52.2C932.6 52.4 943.6 53.3 954.7 53.8C957.4 53.9 960 54.1 962.7 54.2C965.2 54.3 967.6 54.4 970 55.3C970.1 55.4 970.4 55.8 970.3 55.9C970.1 56.3 969.8 56.9 969.6 56.9C966.3 56.7 963 56.4 959.7 56.3C951.3 56.1 942.9 55.9 934.4 55.7C926.2 55.5 918 55.1 909.8 54.9C899.1 54.6 888.4 54.5 877.7 54.3C875.8 54.2 873.8 54 871.8 53.6C870.3 53.2 868.7 53.1 867.2 53.4C865.2 53.9 863.2 53.8 861.2 53.7C840.9 52.5 820.7 52.9 800.4 52.5C787.6 52.3 774.7 52.1 761.8 51C756.7 50.6 751.6 51.3 746.5 51.5C742.3 51.7 738 51.9 733.8 51.1C733 50.9 732.1 50.9 731.2 51.1C727 51.9 722.7 51.6 718.5 51.6C712.3 51.6 706.1 51.5 699.9 51.6C691.6 51.8 683.4 51.7 675.2 52.5C670.1 53 664.9 52.2 659.9 53.5C654.5 51.5 649 54.3 643.5 53.5C648 55.8 652.6 56.7 657.3 55C658.8 54.4 660.4 53.8 661.9 54.3C666.1 55.7 670.3 54.7 674.5 54.8C687 54.9 699.5 55.2 711.9 55.2C719.2 55.2 726.5 55.4 733.8 55.2C743.4 55 753 54.2 762.5 56C765.1 56.5 767.8 55.3 770.4 56.6C771.3 57.1 772 57.6 772.1 58.7C772.2 59.6 771.4 60.9 771.8 61.5C772.7 62.9 774.3 62.3 775.5 62C778 61.4 780.2 61.2 782.4 63.2C783 63.8 784 63.8 784.9 63.9C793.6 64.5 802 67 810.6 68.4C812 68.6 813.3 69.1 814.6 69.1C830.1 69.3 845.7 70.6 861.3 69.8C864.9 69.6 868.4 70.3 872 70.4C880.5 70.5 888.8 71.7 897.3 71.1C900 70.9 902.6 71.3 905.3 71.4C911.6 71.6 917.8 71.6 924 71.8C928 72 932.1 71.9 934.9 76.2C935.5 77 936.5 77 937.4 76.8C938.9 76.4 940.4 76 942 75.9C945.3 75.6 948.7 75.4 951.8 77.3C952.5 77.8 953.4 78.2 954.3 78.2C958.1 78.1 960.3 81.2 962.7 83.1ZM321.2 100.2L321.18 100.2C321.18 100.21 321.19 100.21 321.19 100.22C321.2 100.21 321.2 100.21 321.2 100.2ZM321.18 100.2C321.12 100.17 321.06 100.14 321 100.1L320.7 100.3L321.18 100.2ZM368.7 86.4L368.5 86.6C368.6 86.5 368.6 86.4 368.7 86.4ZM572.3 75.3C572.32 75.26 572.33 75.21 572.35 75.17C572.33 75.18 572.32 75.19 572.3 75.2C572.3 75.24 572.3 75.27 572.3 75.3C572.3 75.3 572.3 75.3 572.3 75.3ZM572.35 75.17C573.23 74.68 574.11 74.19 574.9 73.6C575.2 73.5 575.5 72.8 575.4 72.6C575.3 72.2 574.9 71.8 574.5 71.7C574.1 71.7 573.5 71.9 573.4 72.2C573.02 73.16 572.73 74.21 572.35 75.17ZM668 68.3C667.96 68.22 667.92 68.14 667.88 68.05C667.88 68.14 667.89 68.22 667.9 68.3C667.95 68.35 667.98 68.4 668 68.46C668 68.41 668 68.35 668 68.3ZM667.88 68.05C667.81 66.74 668.65 65.42 667.8 64.2C667.6 63.8 667.1 63.6 666.7 63.6C666.6 63.6 666.2 64.4 666.3 64.7C666.77 65.82 667.32 66.94 667.88 68.05ZM723 70.5L722.9 70.6C722.93 70.57 722.96 70.53 722.99 70.5C722.99 70.5 723 70.5 723 70.5ZM752.7 72.3C752.7 72.29 752.7 72.28 752.7 72.27C752.68 72.29 752.67 72.32 752.65 72.34C752.67 72.33 752.68 72.31 752.7 72.3ZM752.7 72.27C752.72 72.23 752.75 72.2 752.8 72.2C752.8 72.2 752.7 72.2 752.6 72.2C752.3 71.7 752.2 71.7 752.3 72.2C752.3 72.2 752.4 72.2 752.6 72.2C752.6 72.2 752.68 72.2 752.7 72.27ZM802.8 76.2C803.1 75.6 803.5 75 803.6 74.4C803.7 73.7 803.6 72.9 802.7 73C802.5 73.1 802.3 73.8 802.3 74.2C802.4 74.8 802.6 75.5 802.8 76.2ZM497.4 31.3C498.3 31.5 499 31.2 499.4 30.2C499.3 29.7 499.2 29.1 499 29C498.1 28.7 497.4 29 497.1 30.1C497 30.4 497.3 31.2 497.4 31.3ZM487.6 32.1C488.3 32.3 488.9 32 489.2 31.3C489.3 30.7 489.1 30.2 488.6 30.2C488 30.2 487.1 30.2 486.8 30.6C486.3 31.3 486.9 31.9 487.6 32.1ZM477.5 31.1C477.8 31.3 478.2 31.5 478.5 31.6C478.6 31.7 478.8 31.4 478.9 31.2C478.6 30.9 478.4 30.5 478.1 30.5C477.9 30.5 477.7 30.9 477.5 31.1ZM452.8 33C459.9 34.7 466.9 32.4 473.9 33.6C474.1 33.6 474.5 32.9 474.6 32.5C474.7 32 474.5 31.4 474.3 31.1C473.4 30 472.3 30 471.2 30.3C469.1 30.9 466.7 32 464.7 31.1C460.3 29.2 456.6 30.9 452.8 33ZM428.4 36C429 36.2 429.7 36.6 430.3 36.5C435.3 35.8 440.3 35 446.6 34C439.6 32.9 434 33.7 428.4 36ZM417.1 35.9C417.1 35.9 417.4 36.4 417.5 36.4C418.3 36.6 419.2 36.8 419.8 36.9C420.3 36.8 420.5 36.9 420.7 36.8C421 36.6 421.5 36.4 421.7 36C421.9 35.4 421.6 35 421 35C419.9 34.9 418.8 34.8 417.7 34.9C417.4 34.9 417.2 35.5 417.1 35.9ZM394.8 38.6C395.1 38.9 395.4 39.4 395.7 39.4C401.4 39 407.1 39.4 413.7 36.7C411 36.6 409.5 36.4 408.1 36.5C404 36.8 399.9 37.2 395.8 37.7C395.4 37.8 395.1 38.3 394.8 38.6ZM381.8 40C382.1 40.2 382.4 40.7 382.8 40.7C383.4 40.8 384 40.7 384.3 39.9C383.9 39.2 383.3 39.1 382.7 39.2C382.4 39.3 382.1 39.8 381.8 40ZM368.6 41.8C368.7 42 369.3 42.3 369.7 42.3C371.9 42.1 374.1 41.9 376.2 41.7C374.2 39.2 372 39.8 369.8 40.1C369.1 40.1 368.6 40.8 368.6 41.8ZM353.4 43.5C354.6 44.4 355.8 44 357 43.5C357.2 43.4 357.3 43.2 357.4 43C357 42.8 356.7 42.4 356.3 42.4C355.3 42.4 354.2 42.1 353.3 43.1C353.2 43.2 353.3 43.6 353.4 43.5ZM338.5 45.1C342.1 45.8 344.9 45.7 347.8 44.4C344.9 43.9 341.9 42.7 338.5 45.1ZM316.8 47.7C316.8 47.9 316.9 48.1 317 48.2C318.2 48.9 320.5 48.7 321.2 47.7C321.3 47.6 321.3 47.2 321.2 47C321.2 46.8 321 46.6 320.8 46.5C319.5 45.9 318.3 46.4 317.1 47C316.9 47 316.9 47.4 316.8 47.7ZM310.4 48.7C310.8 49.5 311.5 49.3 312.1 48.9C312.5 48.6 312.7 48.2 313.1 47.6C312.4 47.6 311.7 47.5 311.1 47.6C310.6 47.6 310.2 48.1 310.4 48.7ZM295.9 49.9C296 50 296.3 50.1 296.5 50.2C296.9 50.1 297.3 50 297.7 49.8C297.7 49.7 297.7 49.4 297.8 49.2C297.4 49.1 296.9 49 296.5 49C295.9 49 295.7 49.3 295.9 49.9ZM65.3 101.1C64.1 99.9 62.7 100.3 61.5 100.8C61 101.1 60.7 101.9 60.4 102.4C60.4 103.4 60.9 104 61.5 104.3C62.6 104.9 63.7 104.3 64.6 103.6C64.9 103.3 65.3 102.9 65.4 102.4C65.5 102 65.4 101.3 65.3 101.1ZM171.3 131.1C171.2 130.4 171 130.3 170.5 130.6C170.4 130.7 170.1 131.1 170.2 131.2C170.4 131.5 170.6 131.8 170.8 132.1C171 131.7 171.2 131.4 171.3 131.1ZM213.8 121C213.7 121 213.5 120.9 213.4 120.9C213.3 120.9 213.3 121.1 213.2 121.3C213.3 121.4 213.5 121.5 213.6 121.5C213.6 121.5 213.7 121.3 213.8 121ZM261.3 55.8C267 54.8 272.7 54.1 278.4 53.2C278.6 53.2 279 52.5 279 52.1C279 51.8 278.6 51.4 278.3 51.1C278.2 51 277.9 51 277.7 51C273.2 52 268.6 51.6 264 52.8C257.8 54.5 251.3 55 244.9 55.9C240.5 56.6 236 56.9 231.7 58.1C227.9 59.1 223.6 58.2 219.7 61.8C221.1 61.9 221.8 62.2 222.4 62C235.2 58.8 248.3 58.2 261.3 55.8ZM570.2 70.7C569.9 70.5 569.6 70.2 569.2 70C569.1 69.9 568.8 70.1 568.7 70.2C568.5 70.8 568.7 71.1 569.3 71.2C569.7 71 570 70.8 570.2 70.7ZM586.3 69.4L586.2 68.9L585.9 69.3L586.3 69.4ZM623.5 66.3C623.5 66.1 623.5 65.9 623.4 65.8C623.3 65.7 623 65.6 622.9 65.7C622.4 66 622.5 66.3 623 66.5C623.2 66.6 623.4 66.4 623.5 66.3ZM673.4 64.6C673.1 64.4 672.8 64.1 672.4 63.9C672.2 63.8 672 64 671.8 64.1C671.9 64.3 672 64.7 672.1 64.7C672.5 64.8 673 64.7 673.4 64.6ZM753.2 68.6C753.3 67.6 752.7 67.5 752 67.5C751.9 67.5 751.8 67.5 751.8 67.5C750.7 67.5 750 67.4 749.4 67.5C748.7 67.6 748.2 68 748.3 68.9C748.3 69.2 748.8 69.8 749.1 69.8C750.2 69.8 751.2 69.8 752.3 69.6C752.6 69.5 753 68.9 753.2 68.6ZM782.9 69.3C782.5 68.9 781.9 68.1 781.5 68.1C781 68.1 780.3 68.9 780.2 69.5C780.1 70.3 780.8 70.9 781.5 70.9C782.3 70.9 782.7 70.3 782.9 69.3Z" />
		<path id="Layer" fill-rule="evenodd" class="shp0" d="M352.3 93C352.4 93 352.4 93 352.5 93L352.3 93C352.3 92.9 352.3 92.9 352.3 93Z" />
		<path id="Layer" fill-rule="evenodd" class="shp0" d="M320.3 102C320.3 102 320.3 102.1 320.2 102.2C320.2 102.2 320.3 102.1 320.3 102C320.3 102.1 320.3 102 320.3 102L320.3 102Z" />
		<path id="Layer" fill-rule="evenodd" class="shp0" d="M751.8 67.4C751.7 67.4 751.7 67.4 751.8 67.4C751.6 67.5 751.6 67.5 751.8 67.4Z" />
		<path id="Layer" fill-rule="evenodd" class="shp0" d="M403.5 88.1L403.5 88C403.4 88 403.4 88 403.4 88L403.5 88.1Z" />
		<path id="Layer" fill-rule="evenodd" class="shp0" d="M322.7 36.1C333.6 34.8 344.4 33.5 355.2 32C361.3 31.1 367.5 29.9 373.7 29.9C375.5 29.9 377.3 30 379 29.5C384.3 28 389.6 28.2 394.9 27.9C396 27.8 397.2 28.3 398.2 27.9C403.5 25.9 409.2 26.6 414.6 26C423.4 24.9 432.3 24.6 441.2 23.8C446.8 23.4 452.3 22.6 457.8 22.2C471.3 21.3 484.9 20.6 498.4 19.7C521 18.2 543.7 16.6 566.4 15C574.4 14.5 582.3 13.8 590.4 13.6C602.8 13.2 615.2 12 627.7 11.6C631 11.5 634.3 11.3 637.6 11C638.4 10.9 639.4 10.4 639.3 9.2C639.3 8.3 638.5 8 637.8 7.9C636.5 7.8 635.1 7.9 633.8 7.9C628.5 8.2 623.1 8.7 617.8 8.8C607.1 9 596.4 9 585.7 9.8C573.9 10.7 562.1 10.8 550.3 11.9C545.5 12.4 540.6 12.9 535.7 13.1C528.2 13.5 520.6 12.9 513.1 14.6C511.8 14.9 510.5 14.6 509.1 14.6C496.9 15.1 484.6 15 472.6 17.7C471.7 17.9 470.8 17.9 470 17.6C464.2 15.8 458.6 18.4 452.9 18.8C450.5 18.9 448.1 19.6 445.7 19.5C443 19.4 440.4 19.7 437.7 19.4C433.4 19 429.5 21.4 425.3 21.5C413.3 22 401.4 24.9 389.4 24C388.7 24 388 24.1 387.4 24.2C383.3 25.1 379.2 26.2 375 27C372.2 27.5 369.6 29.1 366.6 27.5C365.4 26.9 363.5 27.7 362 27.9C359.6 28.2 357.2 28.6 354.7 29C349.9 29.7 344.9 29.8 340.1 30.5C332.5 31.7 325.1 32.1 317.5 31.9C316 31.9 314.3 31.9 312.9 32.6C309.2 34.5 305.2 35.1 301.4 37.5C302.3 37.6 303.1 37.8 304 37.8C310.3 37.3 316.5 36.8 322.7 36.1Z" />
		<path id="Layer" fill-rule="evenodd" class="shp0" d="M644 17.5C645.1 17.4 645.9 18.1 646.5 19.1C646.5 19.1 646.6 19.2 646.6 19.3C646 19.6 645.5 19.8 645 20.2C644.4 20.7 644.4 21.4 644.8 22.1C645.2 22.7 645.9 22.9 646.5 22.6C647.1 22.3 647.6 21.9 647.3 21C647.1 20.4 646.9 19.8 646.7 19.2L646.8 19.2C646.8 19.1 646.8 19.1 646.7 19C651.6 17.1 656.5 15.9 661.7 16.8C667.3 17.7 672.8 16.9 678.3 17C683.2 17 688.1 16.3 693 17.3C694.3 17.5 695.7 16.9 697 16.9C698.6 16.9 700.4 16.4 702.1 17.5C700.2 20.1 697.7 19.9 695.4 19.6C687.1 18.6 678.9 19 670.7 19.3C669.4 19.4 668.1 19.6 666.8 20C666.1 20.2 665 20.6 665.1 21.9C665.2 23.3 666.3 23.2 667.1 23.2C669.4 23.3 671.6 23.3 673.8 23.4C674 23.4 674.3 24 674.4 24.4C674.5 25 674.2 25.3 673.6 25.3C666.1 25.5 658.5 26 650.9 25.8C643.2 25.6 635.4 26.6 627.7 26.6C621.7 26.6 615.7 26.8 609.7 27.1C603.5 27.4 597.3 28 591.1 28.4C586.6 28.6 582.2 28.6 577.7 28.9C561.7 29.9 545.7 30.9 529.7 32C524.8 32.3 519.9 32.8 515 33.2C514 33.3 512.9 33 511.8 32.8C511.3 32.7 511.1 32.2 511.3 31.6C511.4 31.2 511.7 30.7 512 30.6C512.6 30.3 513.3 30.1 513.9 30.2C521.1 31.4 528 29.4 535.1 29C537.5 28.9 539.9 28.1 542.3 29.6C542.8 29.9 543.6 29.8 544.2 29.6C552.1 27.3 560.1 27.5 568.1 27C572.5 26.7 577 26.1 581.4 25.9C590.2 25.5 599.1 24.6 608 24.9C614.9 25.1 621.7 23.4 628.6 24.1C629 24.1 629.4 23.8 629.8 23.6C629.9 23.5 630 23.2 630.1 23C630.4 22.4 630.2 22.1 629.8 21.7C628.4 20.5 626.8 20.8 625.3 20.5C624.1 20.3 624.5 18.9 623.9 18.2C624.3 18.4 624.8 18.8 625.1 18.7C631.4 16.9 637.8 18.3 644 17.5ZM654.3 22.1C654.9 22.1 655 21.6 654.8 21C654.7 20.8 654.5 20.7 654.3 20.5C654.1 20.7 653.9 20.8 653.8 21C653.5 21.6 653.7 22.1 654.3 22.1ZM640.2 21.5C639.9 21.5 639.4 21.8 639.3 22.1C639.1 22.4 639.3 23.2 639.5 23.3C640.2 23.6 640.6 23.1 640.8 22.4C640.7 22.1 640.5 21.5 640.2 21.5Z" />
		<path id="Layer" fill-rule="evenodd" class="shp0" d="M885.5 11.2C883.1 11.1 880.7 11 878.2 11C878 11 877.7 11.7 877.6 12.1C877.5 12.3 877.7 12.6 877.8 12.8C878.2 13.1 878.6 13.4 879 13.5C885.9 13.9 892.7 15.5 899.6 14.3C900.9 14.1 902.1 13.8 903.5 14.1C906.5 14.6 909.6 14.8 912.7 15.2C916.9 15.7 921.2 14.8 925.3 15.5C933.3 16.9 941.3 16 949.2 16.6C949.5 16.6 949.8 16.2 950.1 15.9C949.8 15 949.1 15.1 948.4 15C937.4 12.9 926.3 13.7 915.3 12.6C905.5 11.4 895.5 11.6 885.5 11.2Z" />
		<path id="Layer" fill-rule="evenodd" class="shp0" d="M679 23.3C678.7 23.3 678.3 24 678.3 24.4C678.3 24.6 678.7 25.2 679 25.2C679.6 25.4 680.3 25.4 681 25.4C688.1 25.4 695.2 25.5 702.3 25.4C706.5 25.3 710.7 26.1 715.1 24.3C713.2 23.8 711.2 22.9 709.4 23.1C702.6 23.7 695.8 22.5 689 22.8C685.7 22.9 682.3 23.1 679 23.3Z" />
		<path id="Layer" fill-rule="evenodd" class="shp0" d="M337.8 23.6C342.4 22.4 347 22.2 351.6 21.6C360.4 20.5 369.2 18.8 378.1 18.8C380.4 18.8 382.4 18.1 383.9 16C382 17.5 379.3 16 377.4 18.1C377 18.5 375.6 18.4 374.9 17.9C372.8 16.4 370.7 16.7 368.5 17.3C365.5 18 362.2 17.1 359.3 18.7C356.1 20.5 352.7 18.6 349.5 19.6C349.1 19.7 348.5 19.6 348.2 19.8C345.2 21.8 341.8 21.5 338.5 21.7C338.3 21.7 338.1 21.7 337.8 21.8C337.1 21.9 336.5 22.2 336.7 23.1C336.8 23.3 337.5 23.6 337.8 23.6Z" />
		<path id="Layer" fill-rule="evenodd" class="shp0" d="M893 6.3C894.3 6.5 895.7 6.2 897 6C897.3 6 897.7 5.3 897.6 5C897.6 4.6 897.3 4.1 897 3.9C894.4 2.6 891.6 2.8 889.2 3.8C886.5 4.8 883.9 4.8 881.4 3.9C876.1 2 870.9 2.3 864.9 3.3C866.9 5.1 868.7 5.3 870.5 5.3C877.9 5.3 885.4 5.3 893 6.3Z" />
		<path id="Layer" fill-rule="evenodd" class="shp0" d="M764 24.8C761.2 24.3 759.2 24 757.6 22.6C755.8 21 754.3 22.7 752.6 22.9C750.6 23.2 748.7 23.4 746.7 23.6C745.4 23.7 744.1 23.3 742.8 23.5C742 23.6 740.6 23.4 740.6 25.4C748.1 25.1 755.6 26 764 24.8Z" />
		<path id="Layer" fill-rule="evenodd" class="shp0" d="M284.4 29.2C283.6 28.6 283.3 28 283 28.1C277.3 28.9 271.7 29.7 266 30.5C265.1 30.6 264.3 31 263.5 31.5C262.9 31.8 261.8 31.8 262.2 33.3C269.6 32.8 276.9 31.7 284.4 29.2Z" />
		<path id="Layer" fill-rule="evenodd" class="shp0" d="M450.4 9.4C449 8.6 447.5 9.4 446.6 11.7C451.9 11.5 456.9 11.3 461.9 11.1C458 10.7 454.2 11.6 450.4 9.4Z" />
		<path id="Layer" fill-rule="evenodd" class="shp0" d="M845.5 2C841.6 2 837.6 2 833.3 2C837.4 4.1 841.5 3 845.5 3.7C845.5 3.1 845.5 2.6 845.5 2Z" />
		<path id="Layer" fill-rule="evenodd" class="shp0" d="M904.8 6.6C908.1 7.1 911.4 7.4 915.9 6.8C911.6 4.7 908.3 4 904.7 4.4C904.5 4.4 904.1 5.1 904.1 5.5C904.1 5.8 904.5 6.5 904.8 6.6Z" />
		<path id="Layer" fill-rule="evenodd" class="shp0" d="M586.3 19.9C591.2 20.2 596.3 21.5 601.2 19.3C596.2 19.5 591.2 19.7 586.3 19.9Z" />
		<path id="Layer" fill-rule="evenodd" class="shp0" d="M614.4 20.4C617.6 19.9 621.1 20.7 623.9 18.1C619.4 18.6 614.8 17.9 610 19C611.4 21.2 613.1 20.6 614.4 20.4Z" />
		<path id="Layer" fill-rule="evenodd" class="shp0" d="M623.9 18.1L623.9 18.1L623.9 18.1C624 18.1 624 18.1 623.9 18.1L623.9 18.1L623.9 18.1Z" />
		<path id="Layer" fill-rule="evenodd" class="shp0" d="M968.4 84.5C968.7 84.7 969.1 85.1 969.4 85.1C970.7 85.3 972.5 84.8 973.2 85.7C975.8 88.8 978.2 87.5 980.9 86C977.2 84.3 973.5 83.3 969.6 83.3C968.7 83.3 967.9 84 968.4 84.5Z" />
		<path id="Layer" fill-rule="evenodd" class="shp0" d="M314.8 26.1C315.4 25.9 316.2 25.7 316.2 24.9C316.2 24.1 315.5 23.8 314.8 23.8C311.2 23.8 307.7 24.8 304.5 26.8C308 27 311.4 27.1 314.8 26.1Z" />
		<path id="Layer" fill-rule="evenodd" class="shp0" d="M734.6 24.6C730.2 23.7 725.8 22.4 720 25C725.8 25.9 730.2 25.7 734.6 24.6Z" />
		<path id="Layer" fill-rule="evenodd" class="shp0" d="M922.4 61.3C925 60.8 927.5 61.3 930 61.8C931.3 62 932 61.1 932.5 60L932.6 60C925.1 59.5 925.1 59.5 922.4 61.3Z" />
		<path id="Layer" fill-rule="evenodd" class="shp0" d="M930.4 6.6C930.4 6.1 929.6 5.5 929 5.3C926.4 4.4 923.9 4.8 921.5 7.1C923.9 7.4 926.2 7.8 928.6 8.1C929.5 8.2 930.5 8 930.4 6.6Z" />
		<path id="Layer" fill-rule="evenodd" class="shp0" d="M965.7 16.9C965.7 15.9 964.5 15.5 963.7 15.4C961.1 15.3 958.5 15.4 955.9 15.4C958.4 15.8 960.9 17.3 963.7 17.7C964.5 17.7 965.6 18.1 965.7 16.9Z" />
		<path id="Layer" fill-rule="evenodd" class="shp0" d="M438.7 11.8C434.7 12 430.6 12.2 426.6 12.4C430.7 13.2 434.7 13.5 438.7 11.8Z" />
		<path id="Layer" fill-rule="evenodd" class="shp0" d="M992.8 85.7C992.8 85.7 992.8 85.6 992.8 85.5L992.7 85.5L992.8 85.7Z" />
		<path id="Layer" fill-rule="evenodd" class="shp0" d="M1002.2 82.6C998.9 82.6 995.7 82.9 992.8 84.9C992.7 84.9 992.8 85.2 992.8 85.5C995.9 85.3 998.9 85.3 1002 85C1002.6 85 1003.4 85.2 1003.4 84C1003.4 83.2 1002.9 82.7 1002.2 82.6Z" />
		<path id="Layer" fill-rule="evenodd" class="shp0" d="M783.8 24.6C778.3 24.6 774.1 24.6 769.8 24.6C769.8 24.7 769.8 24.9 769.7 25.1C771.8 25.3 774 25.5 776.1 25.6C778.2 25.7 780.5 26.4 783.8 24.6Z" />
		<path id="Layer" fill-rule="evenodd" class="shp0" d="M907.8 60C905.1 60.2 902.5 58 899.2 59.7C904.2 61.6 904.2 61.6 907.8 60Z" />
		<path id="Layer" fill-rule="evenodd" class="shp0" d="M830.1 37C830.9 37.1 831.8 36.9 832.2 36.9C833.3 37 834 37.2 834.6 37.1C834.9 37 835.4 36.6 835.5 36.2C835.6 35.9 835.1 35.2 834.9 35.2C833.4 35 831.8 35 830.3 35C830 35 829.6 35.6 829.5 36C829.4 36.3 829.9 36.9 830.1 37Z" />
		<path id="Layer" fill-rule="evenodd" class="shp0" d="M486.2 8.3C486.2 8.2 486 7.8 485.8 7.8C483.4 7.8 481 7.5 477.6 10.2C481.3 9.9 483.5 9.7 485.6 9.5C485.9 9.5 486.1 8.7 486.2 8.3Z" />
		<path id="Layer" fill-rule="evenodd" class="shp0" d="M328.2 23.4C323.9 22.5 323.9 22.5 321.6 25.2C325.5 25.3 325.5 25.2 328.2 23.4Z" />
		<path id="Layer" fill-rule="evenodd" class="shp0" d="M823.6 58.5C825.5 58.6 827.4 59.2 830 58.3C827.6 57.3 825.9 56.6 824 57C823.7 57 823.3 57.8 823.4 58C823.5 58.3 823.5 58.5 823.4 58.6C823.4 58.5 823.5 58.5 823.6 58.5Z" />
		<path id="Layer" fill-rule="evenodd" class="shp0" d="M951.3 61.4C953.3 62.2 954.3 62.7 955.3 63C955.9 63.2 956.6 63.2 956.7 62.2C956.7 61.9 956.1 61.4 955.8 61.4C954.8 61.3 953.7 61.4 951.3 61.4Z" />
		<path id="Layer" fill-rule="evenodd" class="shp0" d="M802.8 25.5C802.8 25.2 802.8 25 802.8 24.7C800.5 24.7 798.2 24.7 795.9 24.7C795.9 24.9 795.9 25 795.9 25.1C798.2 25.3 800.5 25.4 802.8 25.5Z" />
		<path id="Layer" fill-rule="evenodd" class="shp0" d="M298.5 27.7C298.6 27.7 298.7 27.3 298.7 27C298.7 26.8 298.5 26.4 298.4 26.4C296.6 26.9 294.7 27.5 292.9 28.1C292.9 28.3 293 28.5 293 28.7C294.8 28.4 296.6 28.1 298.5 27.7Z" />
		<path id="Layer" fill-rule="evenodd" class="shp0" d="M842.6 35.5C842.5 35.5 842.3 35.9 842.3 36.1C842.3 36.3 842.3 36.7 842.5 36.8C843.7 37.7 844.9 37.3 847.1 37C845.9 36.8 845.6 36.8 845.4 36.7C844.5 36.3 843.6 35.9 842.6 35.5Z" />
		<path id="Layer" fill-rule="evenodd" class="shp0" d="M415.9 14.4C417.3 14.8 418.5 14.5 419.4 13.2C419.8 12.6 419.7 12.2 419.2 12C417.9 11.7 416.6 11.7 415.5 12.7C415.4 12.8 415.3 13.1 415.2 13.4C415.5 13.8 415.7 14.3 415.9 14.4Z" />
		<path id="Layer" fill-rule="evenodd" class="shp0" d="M844.2 58.1C842.1 57.7 840.1 57.3 838 56.9L838 56.9C839.6 60 842 58.7 844.2 58.1Z" />
		<path id="Layer" fill-rule="evenodd" class="shp0" d="M360.2 89.8C360.1 90.6 360.7 91.2 361.3 91.3C362.3 91.5 362.8 90.8 363 89.7C363.1 89.3 363.1 88.9 363.1 88.5C362.7 88.5 362.4 88.4 362 88.4C361.2 88.5 360.3 88.6 360.2 89.8Z" />
		<path id="Layer" fill-rule="evenodd" class="shp0" d="M363.1 88.5C363.2 88.5 363.2 88.5 363.3 88.5C363.3 88.4 363.2 88.4 363.2 88.3C363.1 88.3 363.1 88.3 363.1 88.3C363.2 88.3 363.1 88.4 363.1 88.5Z" />
		<path id="Layer" fill-rule="evenodd" class="shp0" d="M498.8 78.1L498.8 78.3C497.4 78.5 496.7 79.4 497.4 80.9C497.6 81.3 498.7 81.6 499.1 81.4C500.3 80.6 499.1 79.7 498.9 78.9C498.9 78.6 498.8 78.3 498.8 78.1Z" />
		<path id="Layer" fill-rule="evenodd" class="shp0" d="M859 59C859.1 59.3 859.7 59.7 860 59.6C861.2 59.3 862.6 60.1 863.5 58.5C862.3 57.6 861 58.2 859.8 58.1C859.2 58.1 858.8 58.5 859 59Z" />
		<path id="Layer" fill-rule="evenodd" class="shp0" d="M941.8 61.1C940.2 60.8 938.6 60.5 937 60.1C937.9 63.9 940.1 61.1 941.8 61.1Z" />
		<path id="Layer" fill-rule="evenodd" class="shp0" d="M974.9 63.2C975.4 63.2 975.9 63.1 976.4 63.1C976 63.1 975.6 63 975.3 63C974.6 63 974 63 973.3 63C973.9 63 974.4 63.2 974.9 63.2Z" />
		<path id="Layer" fill-rule="evenodd" class="shp0" d="M683.1 67.1C682.8 66.9 682.3 67 682 67.3C681.3 67.8 680.7 68.5 680.1 69.1C680.3 69.3 680.5 69.5 680.6 69.8L680.4 69.7C680.4 69.8 680.4 69.9 680.4 70.1C680.5 70 680.5 69.9 680.5 69.9C680.9 70.4 681.3 70.9 681.8 71.3C681.4 71.3 681 71.4 680.6 71.4C680.6 71.1 680.5 70.9 680.4 70.6C680.4 70.9 680.4 71.2 680.4 71.5C680.9 71.5 681.4 71.5 682 71.5L681.9 71.3C682.4 70.3 683 69.3 683.5 68.2C683.5 68 683.3 67.3 683.1 67.1Z" />
		<path id="Layer" fill-rule="evenodd" class="shp0" d="M883 59.9C881.8 59 880.5 58.6 879.1 59C880.1 61.1 881.6 59.9 883 59.9Z" />
		<path id="Layer" fill-rule="evenodd" class="shp0" d="M973.2 17.4C973.4 17.4 973.6 16.9 973.8 16.7C973.3 16.3 972.8 16 972.4 15.6C972.1 16 971.7 16.4 971.7 16.6C972 17.4 972.6 17.5 973.2 17.4Z" />
		<path id="Layer" fill-rule="evenodd" class="shp0" d="M701.8 67C700.9 66.9 700 67.1 699.8 68C699.4 69.3 700.2 70.4 701.1 71C701.9 71.5 702.6 70.9 703.1 70C702.1 69.3 702.1 68.1 701.8 67Z" />
		<path id="Layer" fill-rule="evenodd" class="shp0" d="M703.1 70C703.2 70 703.2 70.1 703.3 70.1C703.3 70 703.3 69.9 703.4 69.8C703.3 69.8 703.3 69.8 703.2 69.8C703.2 69.9 703.1 69.9 703.1 70Z" />
		<path id="Layer" fill-rule="evenodd" class="shp0" d="M544.5 73.6L544.4 73.6L544.5 73.6C544.6 73.6 544.5 73.6 544.5 73.6Z" />
		<path id="Layer" fill-rule="evenodd" class="shp0" d="M550.3 73.2C548.3 73.4 546.5 73.5 544.6 73.6C545.9 73.9 547.2 74.3 548.5 74.5C549.1 74.6 550.1 75 550.3 73.2Z" />
		<path id="Layer" fill-rule="evenodd" class="shp0" d="M769.4 71.5C769 71.8 768.6 71.9 768.4 72.3C767.7 73.6 768 75 768.3 76.4C768.8 75.1 769.3 73.9 769.8 72.6C769.8 72.3 769.5 71.9 769.4 71.5Z" />
		<path id="Layer" fill-rule="evenodd" class="shp0" d="M768.2 76.6L768.3 76.6L768.3 76.6L768.3 76.6L768.6 76.2L768.2 76.5L768.2 76.4C768.2 76.5 768.2 76.5 768.2 76.6Z" />
		<path id="Layer" fill-rule="evenodd" class="shp0" d="M802.8 57.5C803.2 57.5 803.6 57.3 804 57.1C803.6 56.9 803.3 56.6 802.9 56.6C802.5 56.6 802.1 56.8 801.7 56.9C802.1 57.1 802.4 57.5 802.8 57.5Z" />
		<path id="Layer" fill-rule="evenodd" class="shp0" d="M992.8 85.6L992.7 85.5L992.6 85.6C992.6 85.6 992.7 85.6 992.8 85.6Z" />
		<path id="Layer" fill-rule="evenodd" class="shp0" d="M988.5 86.2C989.9 86.7 991.3 86.7 992.5 85.6C991.2 85.3 989.8 85.1 988.5 86.2Z" />
		<path id="Layer" fill-rule="evenodd" class="shp0" d="M982.7 63C982.4 62.9 982.1 63.3 981.7 63.5C981.9 63.8 982.2 64.1 982.4 64.4C982.7 64.2 983 64.1 983.3 63.9C983.2 63.5 983 63.1 982.7 63Z" />
		<path id="Layer" fill-rule="evenodd" class="shp0" d="M1034.5 84C1034.4 84.1 1034.2 84.6 1034.3 84.6C1035.1 85.3 1035.9 85.1 1036.8 84.7C1036.9 84.6 1036.9 84.3 1037 84C1036.1 83.4 1035.3 83.6 1034.5 84Z" />
		<path id="Layer" fill-rule="evenodd" class="shp0" d="M888.1 59.5C888 59.6 888 60 888.1 60.1C888.7 60.6 889.3 60.5 889.8 60C889.8 59.8 889.8 59.5 889.7 59.4C889.2 58.8 888.7 58.9 888.1 59.5Z" />
		<path id="Layer" fill-rule="evenodd" class="shp0" d="M472.7 9.6C472.4 9.4 472.1 9.1 471.7 9.1C471.3 9.1 471 9.3 470.6 9.5C470.9 9.7 471.3 10 471.6 10C472 10 472.3 9.8 472.7 9.6Z" />
		<path id="Layer" fill-rule="evenodd" class="shp0" d="M809.9 1.5C810.1 1 809.8 0.7 809.3 0.7C809.1 1 808.8 1.3 808.6 1.6C808.8 1.7 808.9 2 809 2C809.3 1.9 809.8 1.7 809.9 1.5Z" />
		<path id="Layer" fill-rule="evenodd" class="shp0" d="M836.8 57.1C834.9 57.3 833.7 58.5 834.7 58.4C835.9 58.2 837 57.5 838.1 56.9L838.1 56.9C837.6 56.9 837.2 57 836.8 57.1Z" />
		<path id="Layer" fill-rule="evenodd" class="shp0" d="M850.5 58.5C850.7 58.6 851 58.7 851.1 58.6C851.5 58.3 851.3 57.9 850.8 57.8C850.6 57.8 850.5 57.9 850.3 58C850.4 58.2 850.4 58.4 850.5 58.5Z" />
		<path id="Layer" fill-rule="evenodd" class="shp0" d="M312.4 103.2C311.9 102.8 311.6 102.9 311.7 103.5C311.7 103.7 312 103.9 312.1 104C312.9 104.3 313.7 104.5 314.5 104.7L314.5 104.7L314.5 104.7L314.5 104.7C313.8 104.2 313.1 103.7 312.4 103.2Z" />
		<path id="Layer" fill-rule="evenodd" class="shp0" d="M321.6 100.7C321.7 100.7 321.7 100.6 321.8 100.5C321.7 100.5 321.7 100.5 321.7 100.5C321.7 100.5 321.6 100.6 321.6 100.7C321.6 100.6 321.6 100.6 321.6 100.7Z" />
		<path id="Layer" fill-rule="evenodd" class="shp0" d="M322.7 102C323 101.3 322.2 100.9 321.7 100.7C321.3 101.2 320.8 101.6 320.4 102.1C321.1 103 322 103.5 322.7 102Z" />
		<path id="Layer" fill-rule="evenodd" class="shp0" d="M1011 84.3C1011.3 84.5 1011.5 84.9 1011.8 84.9C1012.1 84.9 1012.4 84.5 1012.7 84.3C1012.3 84.2 1011.9 84.1 1011.5 83.9C1011.4 84.1 1011.2 84.2 1011 84.3Z" />
		<path id="Layer" fill-rule="evenodd" class="shp0" d="M369.7 86.9C369.8 86.9 369.8 86.9 369.9 86.9C369.9 86.9 369.9 86.8 369.8 86.7L369.7 86.7C369.8 86.7 369.7 86.8 369.7 86.9Z" />
		<path id="Layer" fill-rule="evenodd" class="shp0" d="M367.2 88.3C368.9 89.1 369 89 369.7 86.9C369.3 86.9 368.8 86.9 368.4 86.9C368 87.3 367.6 87.8 367.2 88.3Z" />
		<path id="Layer" fill-rule="evenodd" class="shp0" d="M940.5 8.3C940.7 8.4 941 8.4 941.1 8.3C941.5 7.9 941.3 7.6 940.7 7.6C940.5 7.6 940.3 7.8 940.2 7.9C940.3 8 940.4 8.2 940.5 8.3Z" />
		<path id="Layer" fill-rule="evenodd" class="shp0" d="M676.6 74.5C676.7 74.8 677.1 75.4 677.4 75.3C678.1 75.3 678.6 74.7 678.6 73.8C678.3 73.6 678 73.1 677.7 73.1C676.9 73.1 676.4 73.6 676.6 74.5Z" />
		<path id="Layer" fill-rule="evenodd" class="shp0" d="M593.4 73.2C593.2 73.2 592.9 73.2 592.8 73.3C592.6 73.9 592.8 74.1 593.3 74C594.1 73.9 594.9 73.9 595.7 73.8L595.7 73.8L595.7 73.8L595.7 73.8L595.7 73.8L595.7 73.8C595 73.6 594.2 73.4 593.4 73.2Z" />
		<path id="Layer" fill-rule="evenodd" class="shp0" d="M539.8 78.5C539.9 78.7 539.9 79 540 79.1C540.1 79.2 540.4 79 540.6 78.9C540.5 78.7 540.5 78.5 540.4 78.2C540.2 78.3 540 78.4 539.8 78.5Z" />
		<path id="Layer" fill-rule="evenodd" class="shp0" d="M1027 85.7C1027 85.9 1027 86.2 1027 86.2C1027.2 86.2 1027.4 86.2 1027.5 86.2C1027.5 86.1 1027.5 85.8 1027.5 85.8C1027.4 85.7 1027.2 85.7 1027 85.7Z" />
		<path id="Layer" fill-rule="evenodd" class="shp0" d="M408.9 15C409.1 14.9 409.3 14.8 409.4 14.6C409.6 14 409.4 13.7 408.9 13.5C408 13.1 407.4 13.8 406.6 14.2C407.3 14.8 407.9 15.3 408.9 15Z" />
		<path id="Layer" fill-rule="evenodd" class="shp0" d="M811.1 57.2C811.1 57.2 811.1 56.9 811.2 56.7C811 56.7 810.7 56.6 810.6 56.7C810.3 57.2 810.5 57.4 811.1 57.2Z" />
		<path id="Layer" fill-rule="evenodd" class="shp0" d="M92.3 64.8C92.4 65.1 93 65.2 93.4 65.2C93.7 65.2 94 65 94.4 64.8C94 64.7 93.6 64.5 93.2 64.3C92.7 64.2 92.2 64.4 92.3 64.8Z" />
		<path id="Layer" fill-rule="evenodd" class="shp0" d="M696.2 68.4C695.5 67.9 694.8 67.4 694.1 66.8C694.3 69 694.4 69 696.2 68.4Z" />
		<path id="Layer" fill-rule="evenodd" class="shp0" d="M696.3 68.4C696.3 68.4 696.2 68.4 696.3 68.4C696.3 68.5 696.4 68.5 696.5 68.6L696.3 68.4Z" />
		<path id="Layer" class="shp0" d="M978 17L977.6 17.1L977.9 17.4L978 17Z" />
		<path id="Layer" class="shp0" d="M67.2 139.8L67.7 139.6L67.3 139.3L67.2 139.8Z" />
		<path id="Layer" fill-rule="evenodd" class="shp0" d="M587.8 74.2C587.9 74.2 587.9 73.6 588 73.1C587.6 73.1 587.3 73.1 586.9 73.1C587 73.6 587 74.3 587.8 74.2Z" />
		<path id="Layer" fill-rule="evenodd" class="shp0" d="M588 73.1C588.1 73.1 588.2 73.1 588.2 73.1C588.1 73 588.1 72.9 588.1 72.8L588 72.8C588 72.9 588 73 588 73.1Z" />
		<path id="Layer" fill-rule="evenodd" class="shp0" d="M586.6 73.1C586.7 73.1 586.7 73.1 586.8 73.1C586.8 73 586.7 72.9 586.7 72.9C586.7 73 586.6 73 586.6 73.1Z" />
		<path id="Layer" fill-rule="evenodd" class="shp0" d="M673.3 75.8C673.3 76 673.3 76.1 673.2 76.3L673.4 76.4L673.4 76.4L673.4 76.4L673.7 76.3L673.3 76.3C673.4 76.1 673.4 76 673.3 75.8Z" />
		<path id="Layer" class="shp0" d="M632 75.6L632.6 75.3L632.1 75L632 75.6Z" />
		<path id="Layer" fill-rule="evenodd" class="shp0" d="M750.7 76.7C750.8 76.7 750.8 76.7 750.9 76.8L751 76.6L751 76.6L751 76.6L751 76.6L751 76.6L751 76.6C750.9 76.6 750.8 76.7 750.7 76.7Z" />
		<path id="Layer" fill-rule="evenodd" class="shp0" d="M750.4 76.8C750.5 76.8 750.6 76.8 750.7 76.7C750.5 76.6 750.2 76.5 750 76.5C750.2 76.6 750.3 76.8 750.4 76.8Z" />
		<path id="Layer" fill-rule="evenodd" class="shp0" d="M687.4 70.9C687.6 70.9 687.8 70.9 688.1 70.9L688.1 70.8C687.8 70.8 687.6 70.9 687.4 70.9Z" />
		<path id="Layer" fill-rule="evenodd" class="shp0" d="M734.6 72C734.6 72 734.8 71.9 735 71.9C734.9 71.7 734.9 71.4 734.8 71.4C734.4 71.3 734.3 71.6 734.6 72Z" />
		<path id="Layer" fill-rule="evenodd" class="shp0" d="M726.8 73.6C726.9 73.4 727 73.3 727 73.2C726.9 73.3 726.8 73.5 726.8 73.6C726.6 73.6 726.5 73.5 726.4 73.5C726.5 73.6 726.6 73.6 726.8 73.6C726.7 73.6 726.8 73.6 726.8 73.6Z" />
		<path id="Layer" fill-rule="evenodd" class="shp0" d="M936.6 60.2C935.2 60.1 933.9 60 932.6 59.9L932.5 59.9C933.9 60.5 935.2 60.6 936.6 60.2Z" />
		<path id="Layer" fill-rule="evenodd" class="shp0" d="M936.8 60.2C936.9 60.2 936.9 60.2 937 60.2L937 60.1C936.9 60.1 936.8 60.1 936.7 60.2C936.6 60.2 936.7 60.2 936.8 60.2L936.8 60.2Z" />
		<path id="Layer" fill-rule="evenodd" class="shp0" d="M487.5 79.2C486.7 79.2 485.8 79.2 485.1 79.2C485.9 80.9 486.7 80.3 487.5 79.2Z" />
		<path id="Layer" class="shp0" d="M1042.4 81.9L1042.6 82.4L1042.8 81.9L1042.4 81.9Z" />
		<path id="Layer" fill-rule="evenodd" class="shp0" d="M1020.4 84.5C1020.5 84.6 1020.6 84.8 1020.8 84.9C1021 84.9 1021.1 84.8 1021.3 84.7C1021.1 84.2 1020.8 84.1 1020.4 84.5Z" />
		<path id="Layer" fill-rule="evenodd" class="shp0" d="M680.2 68.7L680 69L680 69.2L680 69.2L680 69.2C680.1 69.1 680.2 68.7 680.2 68.7Z" />
		<path id="Layer" fill-rule="evenodd" class="shp0" d="M590.9 67L591.2 67.2C591.2 67.2 591.4 67.2 591.3 67.2L590.9 67Z" />
		<path id="Layer" fill-rule="evenodd" class="shp0" d="M815.8 57.6L815.4 57.7L815.5 57.7L815.8 57.6Z" />
		<path id="Layer" class="shp0" d="M876.9 59.1L877 59L876.9 58.8L876.9 59.1Z" />
		<path id="Layer" fill-rule="evenodd" class="shp0" d="M876.9 58.8L877 59C877.1 58.9 877.1 58.9 877.2 58.8C877.1 58.8 877 58.8 876.9 58.8Z" />
		<path id="Layer" fill-rule="evenodd" class="shp0" d="M878.8 59C878.9 59 879 59 879 59L878.9 58.9C878.8 58.9 878.7 58.9 878.5 58.9C878.7 58.9 878.8 59 878.8 59L878.8 59Z" />
		<path id="Layer" fill-rule="evenodd" class="shp0" d="M877.2 58.8C877.7 58.8 878.2 58.8 878.6 58.8C878.2 58.4 877.7 58.4 877.2 58.8Z" />
		<path id="Layer" fill-rule="evenodd" class="shp0" d="M384.1 16C383.7 15.8 384 16.3 384.1 16L384.1 16Z" />
		<path id="Layer" fill-rule="evenodd" class="shp0" d="M384.3 16.1C384.5 16.2 384.6 16 384.3 15.9C384.3 16 384.2 16 384.2 16C384.2 16.1 384.2 16.1 384.3 16.1Z" />
		<path id="Layer" fill-rule="evenodd" class="shp0" d="M384.3 15.9C384.3 15.8 384.3 15.8 384.4 15.7L384.1 15.9L384 16L384.1 15.9C384.1 15.9 384.2 15.9 384.3 15.9Z" />
		<path id="Layer" fill-rule="evenodd" class="shp0" d="M406.5 14.2C406.6 14.3 406.7 14.4 406.9 14.4C406.8 14.4 406.7 14.3 406.5 14.2C406.6 14.2 406.6 14.2 406.5 14.2C406.6 14.1 406.5 14.1 406.5 14.1L406.5 14.2L406.5 14.2L406.5 14.2Z" />
		<path id="Layer" class="shp0" d="M589.9 76.8L590.2 76.9L590.1 76.5L589.9 76.8Z" />
		<path id="Layer" fill-rule="evenodd" class="shp0" d="M498.6 77.7L498.8 78.3L498.8 78.1C498.8 78.1 498.6 77.7 498.6 77.7Z" />
		<path id="Layer" class="shp0" d="M696.3 68.4L696.4 68.5L696.6 68.3L696.3 68.4Z" />
		<path id="Layer" fill-rule="evenodd" class="shp0" d="M628.3 75.1C628.3 75 628.2 75 628.2 74.9L628.1 75.1C628.2 75.1 628.3 75.1 628.3 75.1Z" />
		<path id="Layer" fill-rule="evenodd" class="shp0" d="M628.7 75C628.7 75 628.5 75 628.4 75C628.6 75.4 628.7 75.4 628.7 75Z" />
		<path id="Layer" fill-rule="evenodd" class="shp0" d="M569 74.4C569 74.3 569 74.2 569.1 74.2L568.9 74.4C568.9 74.4 568.9 74.4 569 74.4Z" />
		<path id="Layer" fill-rule="evenodd" class="shp0" d="M569 74.4C569 74.5 569 74.5 569 74.6C569.2 74.5 569.2 74.5 569 74.4Z" />
		<path id="Layer" fill-rule="evenodd" class="shp0" d="M726.4 73.5C725.9 73.4 725.4 73.2 724.9 73.1L724.8 73.2C725.3 73.3 725.8 73.4 726.4 73.5Z" />
		<path id="Layer" fill-rule="evenodd" class="shp0" d="M626.1 73.3C626.1 73.3 626 73.3 626 73.2C626 73.3 626 73.3 626.1 73.3L626.1 73.3Z" />
		<path id="Layer" fill-rule="evenodd" class="shp0" d="M628.2 74.9C627.7 74 627.1 73.3 626.1 73.3C626.8 73.9 627.5 74.5 628.2 75L628.2 74.9Z" />
		<path id="Layer" fill-rule="evenodd" class="shp0" d="M612.3 73L612.4 72.7L612.3 72.5L612.3 73Z" />
		<path id="Layer" fill-rule="evenodd" class="shp0" d="M738.5 72.1C738.4 72.1 738.4 72.1 738.4 72.1C737.9 72.3 738 72.7 738.6 72.5L738.7 72.5L738.7 72.5L738.7 72.5C738.7 72.4 738.7 72.4 738.6 72.3L738.6 72.3C738.5 72.2 738.5 72.1 738.5 72.1Z" />
		<path id="Layer" fill-rule="evenodd" class="shp0" d="M724.9 73.1C724.3 72.4 723.8 71.8 723.2 71.1L723.1 71.2C723.7 71.9 724.2 72.5 724.8 73.2C724.8 73.3 724.9 73.1 724.9 73.1Z" />
		<path id="Layer" fill-rule="evenodd" class="shp0" d="M738.5 72.1L738.5 72.1L738.5 72.1C738.5 72.2 738.5 72.3 738.6 72.4C738.6 72.2 738.6 72.1 738.5 72.1C738.7 72 738.6 71.9 738.6 72C738.6 71.1 738.5 70.2 738.5 69.4C738.3 70.2 738.2 71.2 738.5 72.1Z" />
		<path id="Layer" fill-rule="evenodd" class="shp0" d="M738.5 69.3C738.5 69.2 738.5 69.2 738.5 69.1L738.5 69C738.5 69.1 738.5 69.2 738.5 69.3Z" />
		<path id="Layer" fill-rule="evenodd" class="shp0" d="M680.3 70.4C680.3 70.5 680.4 70.6 680.4 70.7C680.4 70.5 680.4 70.3 680.4 70.1C680.3 70.3 680.3 70.3 680.3 70.4Z" />
		<path id="Layer" fill-rule="evenodd" class="shp0" d="M401.7 89.9L401.5 89.8L401.7 89.9Z" />
		<path id="Layer" fill-rule="evenodd" class="shp0" d="M401.7 89.9C402.3 89.3 402.9 88.7 403.4 88.1L403.3 87.9C402.7 88.5 402.1 89.1 401.5 89.7L401.7 89.9Z" />
	</g>
</svg>